<?xml version="1.0" encoding="utf-8"?>
<!-- Generator: Adobe Illustrator 16.0.0, SVG Export Plug-In . SVG Version: 6.00 Build 0)  -->
<!DOCTYPE svg PUBLIC "-//W3C//DTD SVG 1.1//EN" "http://www.w3.org/Graphics/SVG/1.1/DTD/svg11.dtd">
<svg version="1.1" xmlns="http://www.w3.org/2000/svg" xmlns:xlink="http://www.w3.org/1999/xlink" x="0px" y="0px" width="500px"
	 height="500px" viewBox="0 0 500 500" enable-background="new 0 0 500 500" xml:space="preserve">
<g id="BACKGROUND" display="none">
	<rect display="inline" fill="#F9FFF3" width="500" height="500"/>
</g>
<g id="OBJECTS">
	<path display="none" opacity="0.1" fill="#B0B1CA" d="M411.245,180.794c-8.958-34.793-41.655-32.63-72.635-26.174
		c-16.665,3.473-40.001,8.278-64.354,1.182c-52.415-15.274-112.683-19.089-142.383,0s-47.555,42.09-38.991,74.224
		c8.564,32.134,30.321,61.025,11.818,78.223c-18.502,17.198-18.192,82.333,57.893,87.404c76.084,5.072,68.539-67.943,118.787-64.553
		c50.247,3.39,153.394,52.817,157.75,16.982c4.357-35.835-51.605-61.396-31.544-120.901
		C411.568,215.373,415.339,196.696,411.245,180.794z"/>
	<g display="none">
		<path display="inline" opacity="0.1" fill="#B0B1CA" d="M236.293,123.852c0,0,1.943-12.478,7.414-11.992
			c1.514,0.135,2.544,1.669,3.219,3.317c0.416,1.016,1.869,0.944,2.17-0.111c1.448-5.07,4.408-12.809,8.996-12.809
			c4.745,0,4.902,8.854,4.558,14.247c-0.052,0.812,1.001,1.173,1.459,0.5c1.252-1.842,3.078-3.611,5.3-3.098
			c4.326,0.999,3.161,9.946,3.161,9.946H236.293z"/>
		<path display="inline" opacity="0.1" fill="#B0B1CA" d="M36.201,241.2c0,0,1.943-12.478,7.414-11.992
			c1.515,0.134,2.544,1.669,3.219,3.317c0.416,1.015,1.87,0.944,2.171-0.111c1.447-5.07,4.408-12.81,8.996-12.81
			c4.745,0,4.902,8.854,4.558,14.247c-0.052,0.813,1.001,1.173,1.458,0.5c1.251-1.842,3.078-3.61,5.3-3.098
			c4.327,0.999,3.162,9.946,3.162,9.946H36.201z"/>
		<path display="inline" opacity="0.1" fill="#B0B1CA" d="M421.164,191.346c0,0,1.942-12.478,7.414-11.992
			c1.514,0.134,2.544,1.669,3.219,3.317c0.416,1.015,1.869,0.944,2.171-0.111c1.447-5.07,4.408-12.81,8.996-12.81
			c4.745,0,4.902,8.854,4.558,14.247c-0.052,0.813,1.001,1.173,1.459,0.5c1.251-1.842,3.078-3.61,5.299-3.098
			c4.327,0.999,3.162,9.946,3.162,9.946H421.164z"/>
	</g>
	<g>
		<g>
			<g>
				<path fill="#F9B587" d="M305.588,223.668c0,0-5.714,4.961-13.936,8.086c0,0-4.72,2.951-10.761,6.392c0,0-0.003,0-0.003,0.002
					c-7.114,4.053-12.608,6.737-17.854,8.161c-4.415,1.196-8.335,2.701-11.298,3.984c-0.36,0.156-0.706,0.309-1.034,0.457h-0.003
					c-2.933,1.317-4.687,2.301-4.687,2.301l-3.676-8.659c0,0,6.681-6.638,10.628-9.905c4.89-4.05,13.75-12.756,24.139-16.513
					c0,0,0,0,0-0.003c0.829-0.298,1.623-0.533,2.376-0.69c0,0,8.351-5.847,14.458-9.037c2.025-1.056,3.802-1.82,4.949-1.983
					C298.888,206.262,308.669,215.254,305.588,223.668z"/>
				<path fill="#F39568" d="M282.605,222.215c0,0-3.479-3.858-5.501-4.24c0,0,0,0,0-0.003c0.829-0.298,1.623-0.533,2.376-0.69
					C279.48,217.282,282.297,220.119,282.605,222.215z"/>
				<path fill="#F39568" d="M305.588,223.668c0,0-5.714,4.961-13.936,8.086c0,0-4.72,2.951-10.761,6.392
					c4.203-2.98,10.842-9.352,15.94-13.711c3.481-2.977,1.559-6.778,0.145-10.335c-0.589-1.48-2.118-4.055-2.839-5.737
					c-0.031-0.072-0.135-0.078-0.199-0.118c2.025-1.056,3.802-1.82,4.949-1.983C298.888,206.262,308.669,215.254,305.588,223.668z"
					/>
			</g>
			<path fill="#F9B587" d="M250.351,247.464l1.113,10.422c0.118,1.103-0.297,2.196-1.116,2.945l-6.082,5.555
				c-0.725,0.662-1.849,0.61-2.509-0.115l0,0c-0.553-0.608-0.617-1.517-0.153-2.195l4.516-6.614l-0.782-2l-2.636,4.015l-2.12,3.949
				l-1.076,6.148c-0.157,0.895-1.029,1.477-1.915,1.277l0,0c-0.773-0.174-1.3-0.891-1.236-1.68l0.602-7.382l0.887-5.367
				l-2.179,5.533l-2.388,9.064c-0.158,0.6-0.664,1.044-1.279,1.123l0,0c-0.948,0.122-1.772-0.648-1.715-1.602l0.473-7.956
				l1.629-5.725l-4.756,7.964l-2.583,5.617c-0.285,0.62-0.984,0.936-1.638,0.74l0,0c-0.727-0.218-1.139-0.983-0.919-1.71
				l1.999-6.608l3.371-6.473l-3.279,5.147l-0.885,2.021c-0.184,0.421-0.675,0.613-1.096,0.429l0,0
				c-0.365-0.16-0.566-0.557-0.479-0.945l0.519-2.305l2.278-4.758l17.511-11.614C242.429,244.367,245.362,243.377,250.351,247.464z"
				/>
			<path fill="#F39568" d="M251.542,250.379c-0.36,0.155-0.511,0.224-0.838,0.372h-0.003c0,0-0.268-1.378-2.406-3.146
				C248.401,247.639,250.001,248.139,251.542,250.379z"/>
		</g>
		<path fill="#2C2A40" d="M412.664,229.656c-0.362,0.71-1.142,1.184-1.983,1.5c0.693,10.62,0.444,19.733-1.151,23.845
			c-4.919,12.663-46.793,18.853-56.86,9.658c-10.065-9.194-15.547-69.893-1.979-79.47c10.129-7.152,31.384-8.316,41.506-8.447
			c4.236-0.054,8.094,2.472,9.681,6.399c2.541,6.291,4.811,16.264,6.456,26.887c0.602,0.018,1.245,0.109,1.864,0.331
			C412.295,211.114,413.651,227.724,412.664,229.656z"/>
		<g>
			<path fill="#B0B1CA" d="M335.814,354.94c0.362,1.482,1.042,2.97,2.132,4.42c0,0-4.435,1.792-8.549,3.47
				c-3.134,1.279-8.266,2.041-11.59,3.31c-0.828,0.317-1.543,0.667-2.089,1.063c-0.141,0.101-0.27,0.206-0.385,0.314
				c-1.838,1.712-11.469,5.743-14.509,6.468c-0.308,0.073-0.546,0.113-0.705,0.113c-0.908,0-2.185-0.393-2.959-1.636v-0.003
				c-0.695-1.117-0.987-2.916-0.247-5.73c0.715-2.726,3.02-6.017,5.303-8.78c2.783-3.367,6.146-6.204,9.921-8.403
				c3.541-2.062,8-4.754,8.871-5.71c2.778-3.056,5.263-6.579,9.209-8.142c0.979-0.386,2.265-0.504,3.644-0.456
				c4.183,0.139,9.234,1.757,9.234,1.757S333.593,345.9,335.814,354.94z"/>
			<path fill="#2C2A40" d="M333.861,335.238c-1.912,1.384-4.949,3.804-6.197,6.007c-1.887,3.33-9.288,6.783-12.495,8.881
				c-3.207,2.097-15.563,11.76-16.775,17.063c-1.053,4.605,1.063,6.359,2.431,6.796c-0.307,0.072-0.546,0.111-0.703,0.111
				c-1.728,0-4.769-1.416-3.207-7.368c0.715-2.727,3.02-6.018,5.304-8.78c2.782-3.367,6.146-6.204,9.92-8.402
				c3.54-2.063,8-4.756,8.87-5.711c2.778-3.057,5.263-6.579,9.21-8.141C331.196,335.307,332.482,335.19,333.861,335.238z"/>
			<path opacity="0.2" fill="#2C2A40" d="M337.946,359.36c0,0-4.435,1.792-8.549,3.47c-3.134,1.279-8.266,2.041-11.59,3.31
				c-0.828,0.317-1.543,0.667-2.089,1.063c-0.141,0.101-0.27,0.206-0.385,0.314c-1.838,1.712-11.469,5.743-14.509,6.468
				c-0.308,0.073-0.546,0.113-0.705,0.113c-0.908,0-2.185-0.393-2.959-1.636v-0.003c0,0,6.291-1.392,9.563-3.487
				c2.109-1.354,4.988-3.544,7.757-5.019c-0.621-1.208-1.548-2.743-2.927-4.591c0.093,0.065,2.285,1.659,4.251,3.941
				c1.057-0.468,2.073-0.79,3-0.876c3.229-0.294,13.394-3.669,17.01-7.487C336.177,356.423,336.856,357.91,337.946,359.36z"/>
		</g>
		<g>
			<path fill="#B0B1CA" d="M314.231,326.145c-0.086,4.938,0.954,8.997,0.772,10.701c-0.327,3.126-5.59,9.375-5.59,9.375
				c-0.397,3.571-3.238,8.622-7.023,11.3v0.002c-0.018,0.013-0.035,0.025-0.053,0.035c-0.035,0.028-0.078,0.056-0.124,0.084
				c-2.207,1.51-4.719,2.207-7.253,1.341c-0.281-0.096-0.561-0.209-0.843-0.345c-4.845-2.333-6.35-19.049,0-25.738
				c6.126-6.455,8.715-19.735,14.803-21.216c6.083-1.479,9.209,1.15,9.209,1.15c-0.161,0.239-0.314,0.48-0.458,0.723
				C315.062,317.819,314.3,322.254,314.231,326.145z"/>
			<path fill="#2C2A40" d="M318.129,312.833c-0.16,0.239-0.313,0.481-0.458,0.723c-0.577-0.212-6.351-2.244-9.902,0.018
				c-3.742,2.383-5.84,11.432-7.813,13.898c-1.974,2.467-8.142,11.511-8.304,15.049c-0.166,3.535-0.987,12.25,2.383,14.801
				c3.182,2.405,7.035,1.036,8.18,0.321c-2.451,1.678-5.281,2.349-8.096,0.994c-4.846-2.331-6.351-19.047,0-25.737
				c6.125-6.456,8.716-19.735,14.801-21.216C315.004,310.203,318.129,312.833,318.129,312.833z"/>
			<path opacity="0.2" fill="#2C2A40" d="M315.004,336.846c-0.302,2.882-4.797,8.418-5.499,9.264l-0.058,0.07
				c-0.021,0.028-0.033,0.041-0.033,0.041c-0.397,3.571-3.238,8.622-7.023,11.3v0.002c-0.018,0.013-0.035,0.025-0.053,0.035
				c-0.035,0.028-0.078,0.056-0.124,0.084c-2.207,1.51-4.719,2.207-7.253,1.341c0.396-0.199,0.894-0.37,1.521-0.498
				c4.311-0.884,8.021-6.858,8.838-10.13c0.244-0.974,1.007-2.199,1.971-3.495c-1.472-0.849-3.433-1.782-4.952-1.805
				c0,0,1.98-0.718,5.627,0.921c2.217-2.816,5.025-5.773,5.346-7.13c0.503-2.134,0.921-10.701,0.921-10.701
				C314.146,331.082,315.186,335.142,315.004,336.846z"/>
		</g>
		<g>
			<path fill="#F9B587" d="M440.489,154.745l-12.335,6.873l-12.458,6.942c0,0-5.016-11.348-0.535-18.379
				c0,0,1.046-0.612,2.575-1.416c1.12-0.589,2.502-1.28,3.92-1.912c0.81-0.36,1.634-0.701,2.428-0.989c0,0,1.233-4.098,3.33-8.711
				c1.113-2.445,1.254-4.115,1.14-5.141c-0.101-0.91-0.399-1.32-0.399-1.32s6.414-3.234,10.114-6.367
				C438.269,124.325,446.163,142.41,440.489,154.745z"/>
			<path fill="#F39568" d="M430.375,150.84c0,0-5.289,1.322-8.719-3.986c0.81-0.36,1.634-0.701,2.428-0.989
				C424.084,145.864,426.509,150.181,430.375,150.84z"/>
			<path fill="#F39568" d="M428.154,161.618l-12.458,6.942c0,0-5.016-11.348-0.535-18.379c0,0,1.046-0.612,2.575-1.416
				c0,0,0.139,9.646,1.456,12.026C420.507,163.175,424.947,162.365,428.154,161.618z"/>
			<g>
				<path fill="#F9B587" d="M438.269,124.325c-1.479,1.65-7.973,6.293-8.925,6.747c-0.333,0.158-0.792-0.044-1.246-0.375
					c-0.441,0.022-3.345,0.141-4.938-0.58c-0.876-0.397-0.864-1.635-0.637-2.948c-2.104-0.508-6.204-3.72-6.147-6.777
					c0.062-3.33,3.639-3.577,3.639-3.577c0.062-3.824,3.7-3.207,3.7-3.207c0.185-1.665,3.207-2.405,3.207-2.405
					c0.309-1.418,2.282-1.665,3.454-1.11s8.141,8.634,8.449,10.114C439.132,121.688,438.269,124.325,438.269,124.325z"/>
				<path fill="#F39568" d="M427.92,125.327c0.506,1.912-1.103,2.158-1.103,2.158c0.325-0.249,0.301-1.065,0.21-1.769
					c0,0-0.013-0.479-0.19-1.051c-0.002-0.002-0.002-0.002-0.002-0.005c-0.195-0.625-0.593-1.359-1.395-1.72
					c-1.442-0.644-2.097-0.205-2.097-0.205l-2.866-3.886c1.479,0.893,3.453,3.022,3.453,3.022c2.549-0.104,3.501,1.774,3.831,2.803
					c0.501-0.04,1.057-0.257,1.256-0.952c0.4-1.389-0.522-2.729-0.522-2.729l-3.979-5.289c0,0,5.428,5.057,5.551,7.031
					C430.229,125.356,427.92,125.327,427.92,125.327z"/>
				<path fill="#F39568" d="M428.493,114.041c0,0,3.55,4.238,4.021,5.396c0.513,1.265-0.289,2.529-1.214,2.775
					s-1.452-0.226-1.452-0.226l0.003,1.336c0,0,3.587,0.555,3.551-2.85C433.384,118.771,428.493,114.041,428.493,114.041z"/>
				<path fill="#F39568" d="M433.175,119.687c0,0,0.869,0.83,1.918,0.491c1.048-0.339,1.264-1.048,1.018-1.696
					c0,0,0.637,0.626,0.093,1.542c-0.71,1.192-2.473,0.978-3.028,0.833V119.687z"/>
			</g>
			<path fill="#F39568" d="M432.514,130.118c0,0-1.093,2.107-3.96,1.895c-0.101-0.91-0.399-1.32-0.399-1.32
				S430.498,130.858,432.514,130.118z"/>
		</g>
		<path fill="#6C8C31" d="M391.475,291.172c0,0-3.624-7.948-2.961-12.457s6.769,2.584,7.57,4.495
			C396.886,285.122,395.745,290.375,391.475,291.172z"/>
		<path fill="#2C2A40" d="M345.463,337.566c-3.592,1.552-7.376,2.462-10.489,2.581c3.288-2.411,7.166-3.302,7.166-3.302
			C343.179,336.972,344.311,337.231,345.463,337.566z"/>
		<g>
			<path fill="none" d="M359.574,312.764c-0.703,3.055,0.146,6.902-2.14,13.884c-1.562,4.769-6.544,8.575-11.972,10.919
				c4.865,1.416,10.072,2.581,10.072,2.581c8.494-0.297,24.514,3.194,24.514,3.194C365.001,329.28,359.574,312.764,359.574,312.764z
				"/>
			<path fill="#2C2A40" d="M416.147,355.43c-0.656-14.309-24.21-50.737-27.876-78.367l-14.76-5.323
				c-1.959-0.565-1.103-0.239-3.411-0.925c0,0-34.868-18.009-50.491,5.674c0,0-1.974,8.387,2.795,17.269
				c1.983,3.692,3.454,15.129,1.974,17.434c0,0-1.974,0.163-6.249,1.643c-2.62,0.907-6.662,2.556-9.398,3.696
				c-3.447,1.437-6.092,4.371-7.007,7.992c-0.473,1.868-0.533,4.04,0.289,6.404c2.63,7.563,9.209,8.388,13.484,7.729
				c0,0,9.212,0,16.447,1.315c0.897,0.162,1.922,0.219,3.029,0.178c-2.001,1.468-3.784,3.498-4.345,6.236
				c-1.479,7.237,5.523,12.499,5.523,12.499s0.726,1.48,6.318,1.152c5.59-0.33,5.575-1.825,10.195,0.047
				c4.621,1.873,37.004,15.248,47.693,15.741C411.051,376.317,416.807,369.738,416.147,355.43z M355.535,340.147
				c0,0-5.207-1.165-10.072-2.581c5.428-2.344,10.41-6.15,11.972-10.919c2.285-6.981,1.437-10.829,2.14-13.884
				c0,0,5.427,16.517,20.475,30.578C380.049,343.342,364.029,339.851,355.535,340.147z"/>
			<g>
				<g>
					<path fill="#5B5B6C" d="M319.385,316.232c-0.502,0.104-1.012,0.211-1.524,0.319l0.156,0.739
						c0.512-0.108,1.021-0.215,1.522-0.319c0.514-0.107,1.02-0.212,1.515-0.317l-0.156-0.739
						C320.403,316.021,319.897,316.126,319.385,316.232z"/>
					<path fill="#5B5B6C" d="M303.96,321.514l0.368,0.659c0.892-0.498,1.807-0.992,2.718-1.469l-0.35-0.669
						C305.778,320.515,304.857,321.012,303.96,321.514z"/>
					<path fill="#5B5B6C" d="M313.057,317.667l0.192,0.73c0.885-0.233,1.866-0.471,3.003-0.724l-0.165-0.737
						C314.941,317.192,313.95,317.432,313.057,317.667z"/>
					<path fill="#5B5B6C" d="M329.183,305.448l0.754-0.043c-0.059-1.031-0.158-2.079-0.295-3.114l-0.749,0.099
						C329.027,303.406,329.125,304.436,329.183,305.448z"/>
					<path fill="#5B5B6C" d="M322.979,274.229l-0.754-0.05c-0.069,1.05-0.111,2.099-0.126,3.116l0.755,0.011
						C322.867,276.301,322.91,275.266,322.979,274.229z"/>
					<path fill="#5B5B6C" d="M328.618,300.619l0.743-0.133c-0.189-1.063-0.419-2.092-0.682-3.059l-0.729,0.198
						C328.208,298.571,328.433,299.578,328.618,300.619z"/>
					<path fill="#5B5B6C" d="M308.346,319.229l0.3,0.693c0.833-0.36,1.774-0.7,2.877-1.036l-0.22-0.723
						C310.172,318.509,309.205,318.857,308.346,319.229z"/>
					<path fill="#5B5B6C" d="M328.315,313.38c-0.185,0.252-0.536,0.505-1.046,0.753l0.331,0.68c0.63-0.308,1.063-0.63,1.324-0.986
						s0.48-0.903,0.651-1.626l-0.735-0.173C328.657,312.803,328.454,313.191,328.315,313.38z"/>
					<path fill="#5B5B6C" d="M328.144,295.675c-0.369-1.071-0.786-2.049-1.24-2.902l-0.667,0.354
						c0.436,0.819,0.837,1.759,1.192,2.793L328.144,295.675z"/>
					<path fill="#5B5B6C" d="M322.857,279.101l-0.755,0.015c0.021,1.088,0.077,2.139,0.167,3.123l0.752-0.069
						C322.934,281.203,322.878,280.171,322.857,279.101z"/>
					<path fill="#5B5B6C" d="M329.999,307.23l-0.755,0.008c0.001,0.113,0.001,0.225,0.001,0.337c0,0.985-0.042,1.898-0.126,2.716
						l0.751,0.077c0.086-0.843,0.13-1.782,0.13-2.793C330.001,307.462,330,307.346,329.999,307.23z"/>
					<path fill="#5B5B6C" d="M323.851,286.93c-0.254-0.901-0.463-1.905-0.62-2.985l-0.747,0.109
						c0.162,1.111,0.378,2.148,0.641,3.081L323.851,286.93z"/>
					<path fill="#5B5B6C" d="M324.419,288.601l-0.699,0.285c0.398,0.976,0.874,1.823,1.415,2.518
						c0.06,0.077,0.118,0.155,0.177,0.235l0.609-0.446c-0.063-0.086-0.126-0.17-0.19-0.253
						C325.232,290.3,324.791,289.513,324.419,288.601z"/>
					<path fill="#5B5B6C" d="M322.66,315.531l0.167,0.736c1.268-0.289,2.23-0.539,3.031-0.79l-0.226-0.721
						C324.852,315.001,323.907,315.247,322.66,315.531z"/>
				</g>
			</g>
			<g>
				<g>
					<path fill="#5B5B6C" d="M361.68,311.215c-0.53-0.808-0.827-1.266-0.827-1.266l0.634-0.41c0,0,0.296,0.456,0.824,1.261
						L361.68,311.215z"/>
				</g>
				<g>
					<path fill="#5B5B6C" d="M347.34,341.03c0.799,0.191,1.75,0.435,2.908,0.742l0.194-0.729c-1.164-0.31-2.121-0.554-2.927-0.747
						L347.34,341.03z"/>
					<path fill="#5B5B6C" d="M342.772,339.58l-0.096,0.749c0.762,0.098,1.444,0.163,2.03,0.195c0.211,0.011,0.525,0.056,0.935,0.133
						l0.141-0.741c-0.448-0.085-0.787-0.133-1.034-0.146C344.181,339.739,343.516,339.675,342.772,339.58z"/>
					<path fill="#5B5B6C" d="M351.941,342.229c0.916,0.25,1.887,0.519,2.897,0.8l0.202-0.728c-1.011-0.281-1.983-0.551-2.901-0.801
						L351.941,342.229z"/>
					
						<rect x="356.574" y="343.166" transform="matrix(-0.9628 -0.2701 0.2701 -0.9628 610.0627 771.032)" fill="#5B5B6C" width="3.008" height="0.756"/>
					<path fill="#5B5B6C" d="M361.114,344.786c0.964,0.27,1.934,0.54,2.899,0.807l0.201-0.728c-0.965-0.267-1.935-0.537-2.897-0.806
						L361.114,344.786z"/>
					<path fill="#5B5B6C" d="M373.011,326.529c-0.581-0.82-1.158-1.643-1.728-2.458l-0.619,0.433
						c0.569,0.816,1.147,1.64,1.729,2.462L373.011,326.529z"/>
					<path fill="#5B5B6C" d="M387.594,345.393c-0.207-0.804-0.728-1.691-1.589-2.714l-0.577,0.486
						c0.776,0.921,1.259,1.734,1.435,2.416L387.594,345.393z"/>
					<path fill="#5B5B6C" d="M375.785,330.391c-0.584-0.799-1.172-1.612-1.759-2.433l-0.613,0.439
						c0.588,0.822,1.177,1.638,1.763,2.438L375.785,330.391z"/>
					<path fill="#5B5B6C" d="M338.014,339.271l-0.052,0.26c1.055,0.211,2.053,0.394,2.969,0.542l0.12-0.745
						c-0.439-0.071-0.901-0.151-1.379-0.239C339.12,339.158,338.567,339.22,338.014,339.271z"/>
					<path fill="#5B5B6C" d="M362.644,312.677c0.479,0.724,1.039,1.568,1.666,2.507l0.628-0.42c-0.626-0.937-1.187-1.78-1.664-2.503
						L362.644,312.677z"/>
					<path fill="#5B5B6C" d="M380.788,348.627c-0.269,0.008-0.613-0.01-1.033-0.055l-0.082,0.75
						c0.379,0.041,0.708,0.063,0.979,0.063c0.056,0,0.108-0.001,0.161-0.003c0.701-0.023,1.354-0.068,1.941-0.133l-0.083-0.751
						C382.104,348.562,381.469,348.604,380.788,348.627z"/>
					<path fill="#5B5B6C" d="M384.415,341.014c-0.492-0.468-1.063-1.066-1.698-1.782l-0.565,0.501
						c0.649,0.731,1.236,1.347,1.744,1.828c0.125,0.119,0.245,0.235,0.362,0.351l0.529-0.538
						C384.668,341.255,384.544,341.135,384.415,341.014z"/>
					<path fill="#5B5B6C" d="M381.58,337.91c-0.581-0.696-1.215-1.48-1.882-2.33l-0.594,0.467c0.672,0.855,1.31,1.645,1.896,2.347
						L381.58,337.91z"/>
					<path fill="#5B5B6C" d="M376.216,332.251c0.628,0.846,1.237,1.655,1.812,2.406l0.6-0.46c-0.572-0.747-1.179-1.553-1.805-2.396
						L376.216,332.251z"/>
					<path fill="#5B5B6C" d="M384.352,348.217l0.176,0.734c1.401-0.336,2.315-0.852,2.797-1.576l-0.629-0.417
						C386.33,347.508,385.541,347.932,384.352,348.217z"/>
					<path fill="#5B5B6C" d="M365.706,346.06c0.983,0.269,1.956,0.532,2.906,0.784l0.194-0.729c-0.949-0.252-1.92-0.515-2.901-0.783
						L365.706,346.06z"/>
					<path fill="#5B5B6C" d="M374.947,348.436c1.131,0.26,2.128,0.469,2.963,0.62l0.135-0.742c-0.823-0.15-1.81-0.356-2.929-0.613
						L374.947,348.436z"/>
					<path fill="#5B5B6C" d="M367.958,320.584c0.553,0.808,1.122,1.637,1.704,2.479l0.621-0.43c-0.581-0.841-1.15-1.668-1.702-2.475
						L367.958,320.584z"/>
					<path fill="#5B5B6C" d="M367.595,318.71c-0.59-0.868-1.152-1.702-1.682-2.489l-0.627,0.421c0.53,0.788,1.094,1.623,1.685,2.492
						L367.595,318.71z"/>
					<path fill="#5B5B6C" d="M370.313,347.291c1.049,0.272,2.031,0.521,2.922,0.738l0.179-0.733
						c-0.887-0.217-1.866-0.464-2.911-0.735L370.313,347.291z"/>
				</g>
			</g>
		</g>
		<path fill="#2C2A40" d="M345.463,337.566c-3.592,1.552-7.376,2.462-10.489,2.581c3.288-2.411,7.166-3.302,7.166-3.302
			C343.179,336.972,344.311,337.231,345.463,337.566z"/>
		<g>
			<path fill="#A5C723" d="M416.944,170.41c-0.052,4.761-0.303,8.222-0.303,8.222c-0.884,0.323-1.826,0.738-2.808,1.236
				c-6.508,3.298-14.592,10.179-16.559,17.185c-0.781,2.788-1.145,8.545-1.285,15.056c-0.115,5.262-0.084,11.015-0.012,16.089
				c0.005,0.274,0.007,0.548,0.012,0.817c0.102,6.426,0.26,11.624,0.26,13.102c0,4.11-0.824,16.282-0.987,21.544
				c-0.165,5.262,1.315,10.854,1.974,19.735c0.656,8.881-5.763,7.775-5.763,7.775c6.251-2.63,3.012-10.114-0.981-11.723
				c-0.595-0.239-1.283-0.498-2.056-0.77c-0.002-0.003-0.002-0.003-0.002-0.003c-9.547-3.379-31.688-9.083-42.972-10.74
				c-16.807-2.468-25.854,8.553-25.854,8.553s3.289-18.256,6.086-21.875c2.795-3.616,4.44-15.458,5.59-20.391
				c0.156-0.659,0.24-1.495,0.274-2.45c0.157-4.418-0.807-11.358-1.369-14.952c-0.225-1.433-0.385-2.333-0.385-2.333
				c-1.7,2.795-12.739,8.55-18.389,11.368c-1.996,0.997-3.32,1.623-3.32,1.623l-4.685-7.11l-9.293-14.106
				c0,0,0.616-0.56,2.541-2.077c1.369-1.078,3.399-2.64,6.34-4.83c7.07-5.262,15.458-14.802,18.583-16.282
				c3.126-1.48,3.619-1.315,7.729-5.262c2.884-2.768,13.348-6.12,19.343-7.876c2.554-0.748,4.295-1.207,4.295-1.207
				c8.013,2.428,13.936-0.95,13.936-0.95s2.19-1.436,5.156-3.231c4.808-2.914,11.656-6.772,14.503-6.994
				c3.606-0.281,19.118-4.643,25.673-6.522c1.815-0.518,2.943-0.849,2.943-0.849C416.735,156.011,417.007,164.285,416.944,170.41z"
				/>
			<g>
				<path fill="#2C2A40" d="M359.44,176.25c-7.092,0.355-10.104-4.902-10.785-6.315c2.554-0.748,4.295-1.207,4.295-1.207
					c8.013,2.428,13.936-0.95,13.936-0.95s2.19-1.436,5.156-3.231C372.9,171.784,367.434,175.847,359.44,176.25z"/>
				<path fill="#2C2A40" d="M311.417,225.854c-1.996,0.997-3.32,1.623-3.32,1.623l-13.978-21.216c0,0,0.616-0.56,2.541-2.077
					L311.417,225.854z"/>
				<path fill="#2C2A40" d="M416.642,178.632c-0.884,0.323-1.826,0.738-2.808,1.236c1.226-11.935-0.679-23.961-1.616-28.838
					c1.815-0.518,2.943-0.849,2.943-0.849C417.959,160.542,416.642,178.632,416.642,178.632z"/>
			</g>
			<path fill="#B8E019" d="M395.979,228.198c-11.525-5.045-39.619-14.091-64.419,3.575c0.157-4.418-0.807-11.358-1.369-14.952
				c3.762-2.378,21.814-13.166,39.086-12.636c11.891,0.365,21.247,4.655,26.714,7.924
				C395.875,217.371,395.906,223.124,395.979,228.198z"/>
		</g>
		<g>
			<path fill="#2C2A40" d="M340.366,129.147c0,0-4.563-1.027-5.127,4.271c-0.483,4.541,5.282,6.242,5.282,6.242
				S342.37,131.952,340.366,129.147z"/>
			<path fill="#2C2A40" d="M342.616,136.841c0,0-4.563-1.027-5.126,4.271c-0.484,4.541,5.281,6.242,5.281,6.242
				S344.62,139.646,342.616,136.841z"/>
			<path fill="#2C2A40" d="M339.607,130.216c0,0-7.26-2.79-4.777-10.796c2.483-8.006,11.943-4.819,11.943-4.819
				s0.349-5.58,6.593-5.867c6.243-0.288,8.51,4.697,8.51,4.697s4.223-4.196,9.361-2.938c5.14,1.258,6.881,7.494,5.287,10.445
				c0,0,3.266-0.581,5.748,3.223s3.118,9.444,0.036,11.539c0,0,3.662,4.01,1.664,9.454c-1.997,5.443-7.365,5.313-7.365,5.313
				s1.033,7.093-5.854,8.821s-6.244-4.396-6.244-4.396S352.436,127.049,339.607,130.216z"/>
			<g>
				<path fill="#F9B587" d="M368.343,162.11l0.997,4.882c0.254,1.241-0.234,2.522-1.26,3.267
					c-8.839,6.422-15.574,2.005-16.991-0.173c1.068-1.001,20.044-18.958,20.35-29.053
					C371.438,141.033,373.617,153.59,368.343,162.11z"/>
				<path fill="#F9B587" d="M340.111,143.763c-0.37,1.447-0.494,2.936-0.371,4.407c0.102,1.271,0.387,2.531,0.853,3.735l3.096,8.009
					c1.151,2.979,4.072,4.895,7.263,4.755c3.657-0.16,8.542-0.994,12.777-3.813c7.99-5.321,8.023-17.541,8.023-17.541
					s-0.658-12.396-10.948-17.091c-10.289-4.695-20.756,0.803-20.756,0.803l-1.198,8.673c-0.067,0.484-0.107,0.969-0.12,1.455
					c-0.046,1.63,0.206,3.259,0.748,4.808L340.111,143.763z"/>
				<path fill="#2C2A40" d="M348.488,134.609c0,0,5.786-5.646,9.77-0.558l-0.721,1.301c0,0-4.025-3.505-8.677,0.874L348.488,134.609
					z"/>
				<path fill="#F39568" d="M340.111,143.763c-0.37,1.447-0.494,2.936-0.371,4.407c1.24-0.88,3.737-1.615,8.763-0.933
					c0,0-2.696-2.19-5.387-2.238c-0.724-0.013-1.228-0.72-1.003-1.408l1.503-4.603c0,0-0.541-0.918-1.686-1.264
					c-0.698-0.21-2.08-0.464-3.201-0.57c-0.046,1.63,0.206,3.259,0.748,4.808L340.111,143.763z"/>
				<path fill="#2C2A40" d="M338.983,135.768c1.951,0.128,3.519,0.686,3.519,0.686l0.18,1.5c-1.391-0.47-2.618-0.629-3.688-0.592
					c-0.528,0.019-0.963-0.378-0.937-0.849c0-0.006,0-0.012,0.001-0.017C338.082,136.063,338.497,135.736,338.983,135.768z"/>
				<path fill="#FFFFFF" d="M342.41,150.935l13.743-1.3c0,0-1.577,7.417-8.886,7.228C341.535,156.713,342.41,150.935,342.41,150.935
					z"/>
				<path fill="#F39568" d="M351.766,164.424c0,0,8.521-1.061,13.104-12.926c0,0,2.122,4.374-0.37,10.66
					c-2.493,6.286-13.411,7.928-13.411,7.928L351.766,164.424z"/>
				<path fill="#F9B587" d="M368.215,141.305c0,0,2.589-4.936,6.367-2.717c3.778,2.219,1.671,13.483-3.812,11.372
					C365.288,147.849,368.215,141.305,368.215,141.305z"/>
			</g>
			<path fill="#2C2A40" d="M350.194,138.961c0,0,0.805-2.452,3-2.463c3.201-0.016,3.817,2.692,3.817,2.692
				S353.902,134.913,350.194,138.961z"/>
			<path fill="#2C2A40" d="M342.987,140.671c0,0-2.206-2.626-3.516,0.56C339.472,141.231,340.949,139.194,342.987,140.671z"/>
			<path fill="#2C2A40" d="M339.607,130.216c0,0,3.731,0.938,6.878-1.233s2.384-4.101,2.384-4.101s1.282,3.196,5.541,2.87
				c4.258-0.326,4.846-1.511,4.846-1.511s-0.178,4.766,3.305,5.494c3.481,0.728,5.589-2.097,5.589-2.097
				s-15.475-13.629-20.795-9.992C342.034,123.282,337.455,125.198,339.607,130.216z"/>
			<path fill="#2C2A40" d="M366.318,130.297c0,0-2.104,4.084,1.465,6.444c0,0-0.115,3.51-1.274,6.401l2.722-0.04
				c0,0,1.997-3.487,1.803-6.477C370.839,133.637,370.817,129.095,366.318,130.297z"/>
		</g>
		<path fill="#F39568" d="M438.269,124.325c0,0-0.616,1.598-1.521,2.215c0,0,1.52-0.066,2.034-0.938L438.269,124.325z"/>
		<path fill="#A5C723" d="M302.339,357.559c0.017-0.013,0.034-0.024,0.052-0.037v0.003
			C302.373,357.536,302.355,357.549,302.339,357.559z"/>
		<path opacity="0.2" fill="#2C2A40" d="M388.435,278.676c-9.547-3.379-31.688-9.083-42.972-10.74
			c-16.807-2.468-25.854,8.553-25.854,8.553s3.289-18.256,6.086-21.875c2.795-3.616,4.44-15.458,5.59-20.391
			c0.156-0.659,0.24-1.495,0.274-2.45c0.157-4.418-0.807-11.358-1.369-14.952c-0.225-1.433-0.385-2.333-0.385-2.333
			c-1.7,2.795-12.739,8.55-18.389,11.368c-1.996,0.997-3.32,1.623-3.32,1.623l-4.685-7.11l-0.645-3.086
			c0,0,12.278-6.661,29.177-15.789c0,0,7.647,9.621,7.526,20.722c-0.215,19.75-3.049,33.222,9.185,37.826
			C360.506,264.504,386.801,277.845,388.435,278.676z"/>
		<path opacity="0.2" fill="#2C2A40" d="M416.944,170.41c-0.052,4.761-0.303,8.222-0.303,8.222
			c-0.884,0.323-1.826,0.738-2.808,1.236c-6.508,3.298-14.592,10.179-16.559,17.185c-0.781,2.788-1.145,8.545-1.285,15.056
			c-0.115,5.262-0.084,11.015-0.012,16.089c0.005,0.274,0.007,0.548,0.012,0.817c0,0-4.347-29.66-1.88-38.376
			C396.551,182.02,416.501,170.662,416.944,170.41z"/>
		<path fill="#2C2A40" d="M335.211,177.482c-3.596,21.38-2.938,46.707-2.938,46.707c1.315,6.743-1.469,12.304-1.469,12.304
			c-13.721-14.832-4.288-59.011,0.811-67.933c6.264-10.962,15.439,1.85,15.439,1.85l-4.692,1.482c0,0-1.627-2.294-3.638-1.806
			C336.714,170.575,335.211,177.482,335.211,177.482z"/>
		<path fill="#2C2A40" d="M373.979,163.388c0,0,1.405-10.808,9.295-11.084c12.499-0.438,15.646,32.414,16.634,50.176
			c0.986,17.762-3.918,21.339-3.918,21.339l-0.152-10.114c0,0-6.467-43.707-9.669-51.396c-3.512-8.43-6.52-4.265-9.675-0.039
			l-2.82,1.299"/>
	</g>
	<g>
		<g>
			<path fill="#F9B587" d="M100.775,152.167c-20.207-5.237-36.001-24.293-40.194-28.887c-0.367-0.402-0.775-1.08-1.208-1.983
				c-0.002-0.002-0.002-0.002-0.002-0.002c-4.009-8.311-10.482-35.634-11.924-41.828c-0.098-0.42-0.171-0.743-0.219-0.957
				c-0.048-0.196-0.07-0.299-0.07-0.299l11.494-5.023c0,0,0.937,11.021,6.473,19.912s10.641,22.985,10.641,22.985
				c10.822,5.326,22.398,15.221,22.398,15.221C104.203,143.968,100.775,152.167,100.775,152.167z"/>
			<path fill="#F39568" d="M100.775,152.167c-20.207-5.237-36.001-24.293-40.194-28.887c-0.367-0.402-0.775-1.08-1.208-1.983
				c0.234,0.199,15.178,13.019,20.796,16.265c5.662,3.272,12.072,6.179,15.221,3.971c3.151-2.209,4.032-6.417,2.773-10.228
				C104.203,143.968,100.775,152.167,100.775,152.167z"/>
			<g>
				<path fill="#F9B587" d="M47.864,78.792c2.216-0.074,9.945-2.065,10.905-2.503c0.335-0.153,0.475-0.635,0.514-1.195
					c0.301-0.324,2.257-2.473,2.729-4.157c0.258-0.926-0.698-1.712-1.85-2.382c0.963-1.939,1.137-7.145-1.242-9.065
					c-2.591-2.093-5.079,0.489-5.079,0.489c-2.969-2.41-4.835,0.774-4.835,0.774c-1.395-0.928-3.904,0.912-3.904,0.912
					c-1.285-0.675-2.742,0.678-3.07,1.933c-0.328,1.255,1.384,11.786,2.32,12.974S47.864,78.792,47.864,78.792z"/>
				<path fill="#F39568" d="M55.281,71.507c1.14,1.616,2.363,0.542,2.363,0.542c-0.4,0.089-1.01-0.455-1.49-0.976
					c0,0-0.358-0.317-0.683-0.821c0-0.003,0-0.003-0.002-0.005c-0.353-0.55-0.661-1.327-0.422-2.173
					c0.434-1.52,1.191-1.738,1.191-1.738l-1.135-4.693c-0.267,1.708,0.096,4.588,0.096,4.588c-1.717,1.886-0.891,3.822-0.315,4.736
					c-0.352,0.358-0.875,0.644-1.536,0.35c-1.321-0.586-1.754-2.154-1.754-2.154l-1.496-6.448c0,0,0.387,7.408,1.82,8.771
					C53.82,73.295,55.281,71.507,55.281,71.507z"/>
				<path fill="#F39568" d="M46.266,64.693c0,0,0.966,5.443,1.551,6.548c0.639,1.206,2.123,1.404,2.907,0.854
					c0.783-0.55,0.76-1.258,0.76-1.258l1.021,0.861c0,0-1.88,3.105-4.465,0.89C46.747,71.48,46.266,64.693,46.266,64.693z"/>
				<path fill="#F39568" d="M47.583,71.909c0,0,0.077,1.199-0.856,1.784c-0.934,0.585-1.616,0.295-1.953-0.31
					c0,0,0.07,0.891,1.122,1.062c1.369,0.223,2.338-1.266,2.583-1.785L47.583,71.909z"/>
			</g>
			<path fill="#F39568" d="M49.926,78.793c0,0-1.035,0.818-2.479,0.675c-0.098-0.42-0.171-0.743-0.219-0.957
				C47.228,78.511,48.416,78.871,49.926,78.793z"/>
			<path fill="#F39568" d="M59.041,76.038c0,0-1.206,1.153-2.275,1.468c0,0,1.44,0.101,2.428-0.604L59.041,76.038z"/>
			<path fill="#F39568" d="M75.765,116.085c0,0-3.859,3.231-6.04,3.567c0,0,4.409,1.471,8.119-2.494L75.765,116.085z"/>
		</g>
		<path fill="#2C2A40" d="M88.093,213.813c0.451,0.658,1.284,1.028,2.159,1.234c0.668,10.622,2.079,19.628,4.187,23.503
			c6.495,11.931,48.816,12.724,57.628,2.32c8.809-10.404,6.497-71.306-8.183-79.072c-10.959-5.8-32.189-4.241-42.245-3.079
			c-4.208,0.487-7.712,3.485-8.784,7.583c-1.717,6.563-2.695,16.746-2.971,27.491c-0.595,0.094-1.222,0.267-1.808,0.566
			C86.093,195.376,86.868,212.023,88.093,213.813z"/>
		<path fill="#F9B587" d="M246.837,154.675c0,0-3.231,11.984-8.348,25.28c-0.772,2.008-1.588,4.049-2.443,6.083
			c-3.481,8.282-7.601,16.452-12.042,22.013c-2.371,2.965-4.83,5.187-7.334,6.292c0,0-7.172,1.007-12.206-2.013
			c-5.034-3.02-24.664-12.75-27.055-16.945c0,0,7.55-10.704,14.723-11.665c0,0,2.665,1.376,6.44,3.571
			c4.062,2.355,9.41,5.657,14.119,9.206c0.453,0.339,0.898,0.682,1.336,1.027c0,0,0.37-0.72,1.037-1.973
			c1.699-3.187,5.328-9.82,9.725-16.83c0.938-1.5,1.915-3.02,2.914-4.525c0.222-0.334,0.446-0.669,0.669-1.001
			c7.802-11.577,8.809-20.038,8.809-20.038S244.698,152.529,246.837,154.675z"/>
		<path fill="#F39568" d="M238.489,179.956c-0.772,2.008-1.588,4.049-2.443,6.083l-11.257-7.316c0.938-1.5,1.915-3.02,2.914-4.525
			L238.489,179.956z"/>
		<path fill="#F39568" d="M224.003,208.052c-2.371,2.965-4.83,5.187-7.334,6.292c0,0-7.172,1.007-12.206-2.013
			c-5.034-3.02-24.664-12.75-27.055-16.945c0,0,7.55-10.704,14.723-11.665c0,0,2.665,1.376,6.44,3.571
			c-0.438,1.505-2.177,6.913-5.3,9.53c-3.649,3.056,4.782,10.102,12.08,13.248S217.736,213.08,224.003,208.052z"/>
		<path fill="#F39568" d="M213.74,205.666c0.84-3.44-1.049-9.168-1.049-9.168c0.453,0.339,0.898,0.682,1.336,1.027
			c0,0,0.37-0.72,1.037-1.973C215.801,202.885,213.74,205.666,213.74,205.666z"/>
		<path fill="#B0B1CA" d="M180.208,383.904c-6.712-3.857-9.061-7.716-13.087-14.428c-2.391-3.986-4.605-7.321-6.01-9.372
			c-0.972-1.42-1.085-3.257-0.292-4.784c0.06-0.118,0.123-0.237,0.188-0.36c1.578-2.984,4.198-7.188,6.458-7.296l2.557,1.392
			l8.843,4.817c0,0,3.858,8.866,3.689,12.736c-0.143,3.381,6.382,11.21,8.358,15.614c0.167,0.372,0.3,0.72,0.396,1.039
			c0.068,0.229,0.116,0.443,0.141,0.642C191.922,387.624,186.919,387.766,180.208,383.904z"/>
		<path fill="#2C2A40" d="M180.208,383.904c-6.712-3.857-9.061-7.716-13.087-14.428c-2.391-3.986-4.605-7.321-6.01-9.372
			c-0.972-1.42-1.085-3.257-0.292-4.784c0.06-0.118,0.123-0.237,0.188-0.36c0.383,1.558,1.445,5.063,3.722,7.722
			c3.02,3.523,7.455,11.45,8.509,12.961c1.054,1.51,8.546,7.982,13.26,8.934c3.823,0.773,4.52-0.04,4.81-1.313
			c0.068,0.229,0.116,0.443,0.141,0.642C191.922,387.624,186.919,387.766,180.208,383.904z"/>
		<path opacity="0.2" fill="#2C2A40" d="M180.208,383.904c-6.712-3.857-9.061-7.716-13.087-14.428
			c-2.391-3.986-4.605-7.321-6.01-9.372c-0.972-1.42-1.085-3.257-0.292-4.784c0.06-0.118,0.123-0.237,0.188-0.36
			c1.578-2.984,4.198-7.188,6.458-7.296l2.557,1.392c0,0-4.999,4.482-3.405,9.431c1.593,4.95,6.936,12.417,9.717,15.688
			c2.698,3.171,8.67,8.705,14.579,8.049c0.167,0.372,0.3,0.72,0.396,1.039c0.068,0.229,0.116,0.443,0.141,0.642
			C191.922,387.624,186.919,387.766,180.208,383.904z"/>
		<path fill="#B0B1CA" d="M177.773,406.751c-0.153,4.452-3.319,8.547-10.308,7.354c-7.875-1.341-10.077-7.885-11.921-11.911
			s-6.209-17.951-8.054-23.488c-0.999-3-0.705-6.302-0.224-8.695c0.405-2.023,0.941-3.4,0.941-3.4l2.839,0.431l16.074,2.437
			c0,0,3.02,6.375,3.692,13.59c0.574,6.174,4.708,14.187,6.312,19.524c0,0.003,0,0.003,0,0.005c0.271,0.901,0.468,1.725,0.566,2.449
			C177.766,405.611,177.796,406.185,177.773,406.751z"/>
		<path opacity="0.2" fill="#2C2A40" d="M177.773,406.751c-0.153,4.452-3.319,8.547-10.308,7.354
			c-7.875-1.341-10.077-7.885-11.921-11.911s-6.209-17.951-8.054-23.488c-0.999-3-0.705-6.302-0.224-8.695
			c0.405-2.023,0.941-3.4,0.941-3.4l2.839,0.431c-0.269,2.789,0.936,10.692,3.155,14.936c2.766,5.285,4.83,16.904,9.647,22.063
			c4.82,5.159,13.457,6.119,13.276-1.443c0.271,0.901,0.468,1.725,0.566,2.449C177.766,405.611,177.796,406.185,177.773,406.751z"/>
		<path fill="#2C2A40" d="M177.773,406.751c-0.153,4.452-3.319,8.547-10.308,7.354c-7.875-1.341-10.077-7.885-11.921-11.911
			s-6.209-17.951-8.054-23.488c-0.999-3-0.705-6.302-0.224-8.695c0.405,2.464,2.515,10.41,4.993,16.737
			c4.024,10.275,7.238,19.305,10.042,22.324C165.104,412.087,176.166,414.1,177.773,406.751z"/>
		<path fill="#00497B" d="M95.44,150.441l6.304,1.986c0,0-1.066,4.455-2.889,4.452C97.033,156.875,94.895,155.905,95.44,150.441z"/>
		<g>
			<path fill="none" d="M180.208,310.25c1.221,3.052,0.082,6.244-1.271,11.341c5.375-7.825,14.357-20.233,14.357-20.233
				l-26.173-8.075C167.121,293.282,178.865,306.895,180.208,310.25z"/>
			<path fill="#2C2A40" d="M225.332,290.862c-0.319-1.205-0.936-2.308-1.754-3.249c-2.708-3.121-10.711-11.383-26.76-20.986
				c-20.468-12.246-24.329-11.24-34.562-18.79c0,0-35-3.936-49.37,9.956c-0.148,0.144-0.294,0.289-0.438,0.436
				c-1.304,1.334-2.421,2.823-3.307,4.49c0,0,0,18.155,7.172,24.779c7.173,6.623,29.667,30.064,31.849,29.848
				c0,0,0.167,3.642,2.852,3.811c0,0-3.692,14.932-2.182,21.309c0,0-2.348,5.368-1.173,9.226c1.173,3.861-0.337,7.719-0.337,10.067
				c0,2.351,2.013,12.752,8.557,14.934c6.543,2.18,13.759-0.168,14.262-5.874c0.503-5.702-0.838-9.395-0.335-12.583
				c0.136-0.863,0.73-3.4,1.553-6.752c2.417,1.51,6.224,2.647,7.507,2.391c1.676-0.335,5.2-10.235,7.382-10.905
				c2.182-0.672,9.898-10.235,15.435-15.604C206.99,322.218,229.248,305.681,225.332,290.862z M167.121,293.283l26.173,8.074
				c0,0-8.982,12.409-14.357,20.233c1.354-5.096,2.491-8.289,1.271-11.34C178.866,306.894,167.121,293.283,167.121,293.283z"/>
			<g>
				<g>
					<path fill="#5B5B6C" d="M113.646,259.323l-0.992,0.166c-0.093-0.554-0.164-0.984-0.207-1.261
						c0.144-0.146,0.29-0.292,0.438-0.436l0.499-0.075C113.384,257.72,113.477,258.314,113.646,259.323z"/>
				</g>
				<g>
					<path fill="#5B5B6C" d="M114.039,261.556l-0.989,0.181c0.199,1.09,0.405,2.18,0.619,3.239l0.986-0.196
						C114.443,263.725,114.237,262.641,114.039,261.556z M115.118,267.002l-0.984,0.211c0.241,1.117,0.488,2.202,0.732,3.219
						l0.979-0.236C115.601,269.187,115.357,268.111,115.118,267.002z M116.399,272.393l-0.974,0.259
						c0.302,1.141,0.609,2.213,0.911,3.182l0.961-0.3C116.998,274.577,116.696,273.522,116.399,272.393z M118.015,277.67
						l-0.946,0.345c0.44,1.213,0.886,2.25,1.327,3.083l0.888-0.471C118.868,279.837,118.44,278.84,118.015,277.67z M120.484,282.386
						l-0.728,0.695c0.491,0.516,1.276,1.309,2.333,2.355l0.707-0.715C121.747,283.683,120.969,282.897,120.484,282.386z
						 M124.425,286.317l-0.705,0.72c0.727,0.71,1.52,1.479,2.363,2.298l0.702-0.725C125.94,287.795,125.149,287.027,124.425,286.317
						z M128.426,290.193l-0.7,0.725c0.768,0.737,1.563,1.5,2.381,2.28l0.695-0.728C129.987,291.69,129.191,290.928,128.426,290.193z
						 M132.453,294.041l-0.695,0.729c0.788,0.748,1.588,1.505,2.394,2.268l0.689-0.732
						C134.039,295.546,133.238,294.788,132.453,294.041z M136.5,297.866l-0.689,0.735c0.805,0.755,1.608,1.507,2.406,2.252
						l0.687-0.737C138.108,299.374,137.303,298.621,136.5,297.866z M140.572,301.669l-0.685,0.737
						c0.823,0.766,1.636,1.513,2.424,2.235l0.679-0.743C142.203,303.179,141.395,302.432,140.572,301.669z M144.674,305.437
						l-0.677,0.745c0.858,0.78,1.679,1.52,2.451,2.207l0.669-0.753C146.348,306.952,145.53,306.214,144.674,305.437z
						 M148.824,309.142l-0.659,0.76c1.006,0.876,1.859,1.596,2.534,2.139l0.631-0.785
						C150.667,310.722,149.823,310.01,148.824,309.142z M153.095,312.474l-0.408,0.921c0.735,0.324,1.165,1.004,1.437,2.277
						l0.986-0.209C154.879,314.381,154.439,313.067,153.095,312.474z M155.446,317.761l-1,0.116
						c0.113,0.979,0.257,2.194,0.589,3.316l0.964-0.284C155.692,319.867,155.556,318.699,155.446,317.761z M155.151,323.272
						c-0.063,0.83-0.208,1.88-0.448,3.204l0.992,0.178c0.244-1.358,0.395-2.44,0.46-3.307L155.151,323.272z M154.273,328.701
						c-0.169,0.83-0.35,1.686-0.534,2.555l-0.139,0.661l0.984,0.207l0.141-0.66c0.184-0.87,0.365-1.731,0.534-2.562L154.273,328.701
						z M153.138,334.152c-0.257,1.269-0.45,2.3-0.611,3.246l0.991,0.169c0.159-0.937,0.353-1.958,0.607-3.217L153.138,334.152z
						 M153.186,339.797l-0.999-0.123c-0.139,1.125-0.207,2.073-0.207,2.901c0,0.156,0.002,0.308,0.008,0.456l1.006-0.035
						c-0.005-0.137-0.007-0.277-0.007-0.421C152.987,341.788,153.052,340.879,153.186,339.797z M153.135,345.264l-1.004,0.04
						c0.021,0.556,0.033,1.135,0.033,1.724c0,0.493-0.007,0.994-0.022,1.527l1.007,0.028c0.015-0.544,0.022-1.052,0.022-1.556
						C153.17,346.426,153.158,345.832,153.135,345.264z M152.043,350.815c-0.033,0.591-0.07,1.178-0.105,1.756
						c-0.033,0.512-0.065,1.02-0.093,1.523l1.004,0.055c0.028-0.501,0.061-1.004,0.093-1.515c0.035-0.581,0.073-1.17,0.106-1.765
						L152.043,350.815z M152.775,359.13c-0.028-0.513-0.04-1.044-0.04-1.623c0-0.364,0.005-0.729,0.015-1.1l-1.006-0.025
						c-0.01,0.378-0.015,0.753-0.015,1.125c0,0.597,0.013,1.146,0.04,1.679c0.01,0.158,0.013,0.325,0.015,0.496l1.007-0.005
						C152.788,359.487,152.783,359.307,152.775,359.13z M151.653,361.896c-0.103,0.943-0.264,2.025-0.483,3.213l0.991,0.182
						c0.222-1.213,0.388-2.317,0.491-3.287L151.653,361.896z M150.727,367.327c-0.219,1.012-0.468,2.084-0.742,3.187l0.977,0.244
						c0.277-1.113,0.531-2.197,0.75-3.22L150.727,367.327z"/>
				</g>
			</g>
			<g>
				<path fill="#5B5B6C" d="M163.164,286.397c0,0,1.183,0.396,3.121,1.047l0.322-0.953c-1.94-0.652-3.123-1.05-3.123-1.05
					L163.164,286.397z"/>
				<path fill="#5B5B6C" d="M171.867,288.268c-1.113-0.377-2.16-0.729-3.108-1.052l-0.319,0.954
					c0.946,0.319,1.991,0.674,3.105,1.052L171.867,288.268z"/>
				
					<rect x="179.028" y="325.713" transform="matrix(-0.817 -0.5766 0.5766 -0.817 137.4418 698.3229)" fill="#5B5B6C" width="1.008" height="3.278"/>
				
					<rect x="175.832" y="330.249" transform="matrix(-0.8179 -0.5753 0.5753 -0.8179 129.6101 704.7947)" fill="#5B5B6C" width="1.007" height="3.276"/>
				<path fill="#5B5B6C" d="M173.238,335.406c0.032,0.558,0.048,1.115,0.054,1.674l1.202-1.707l-0.823-0.582L173.238,335.406z"/>
				<path fill="#5B5B6C" d="M177.125,290.055c-1.062-0.362-2.104-0.715-3.106-1.057l-0.324,0.953
					c1.001,0.34,2.043,0.695,3.103,1.058L177.125,290.055z"/>
				<path fill="#5B5B6C" d="M192.851,295.541c-0.964-0.348-2-0.72-3.09-1.104l-0.335,0.948c1.087,0.385,2.122,0.755,3.083,1.103
					L192.851,295.541z"/>
				<path fill="#5B5B6C" d="M182.374,291.859c-1.034-0.357-2.074-0.715-3.103-1.067l-0.325,0.951
					c1.027,0.353,2.064,0.71,3.098,1.067L182.374,291.859z"/>
				<path fill="#5B5B6C" d="M191.618,310.704l0.745,0.677c0.667-0.734,1.445-1.588,2.195-2.441l-0.752-0.664
					C193.058,309.121,192.282,309.972,191.618,310.704z"/>
				<path fill="#5B5B6C" d="M195.277,306.566l0.772,0.649c0.821-0.979,1.49-1.829,2.046-2.607l-0.818-0.586
					C196.737,304.777,196.083,305.61,195.277,306.566z"/>
				<path fill="#5B5B6C" d="M198.071,297.507c-0.735-0.3-1.771-0.7-3.081-1.186l-0.35,0.946c1.298,0.48,2.325,0.873,3.05,1.173
					L198.071,297.507z"/>
				<path fill="#5B5B6C" d="M200.089,299.138l-0.949,0.334c0.047,0.139,0.073,0.3,0.073,0.474c0,0.568-0.251,1.313-0.745,2.222
					l0.883,0.481c0.584-1.07,0.869-1.956,0.869-2.703C200.22,299.656,200.177,299.384,200.089,299.138z"/>
				
					<rect x="182.224" y="321.178" transform="matrix(-0.8168 -0.5769 0.5769 -0.8168 145.7614 691.9153)" fill="#5B5B6C" width="1.007" height="3.278"/>
				<path fill="#5B5B6C" d="M187.914,314.852l0.765,0.651c0.566-0.666,1.233-1.422,2.159-2.445l-0.748-0.675
					C189.157,313.414,188.485,314.177,187.914,314.852z"/>
				<path fill="#5B5B6C" d="M186.172,317.057l-1.603,2.274l0.823,0.579l1.603-2.272c0.091-0.129,0.184-0.26,0.285-0.393
					l-0.808-0.602C186.366,316.784,186.268,316.92,186.172,317.057z"/>
				<path fill="#5B5B6C" d="M184.188,293.553c1.052,0.365,2.089,0.725,3.096,1.08l0.333-0.952c-1.007-0.352-2.044-0.714-3.096-1.079
					L184.188,293.553z"/>
			</g>
		</g>
		<path fill="#007BB0" d="M196.817,186.216c-1.173,5.25-6.158,10.037-10.12,13.117c0,0,0,0-0.002,0
			c-2.836,2.207-5.146,3.538-5.146,3.538l-2.351-2.026l-7.296-6.279c0,0,0,0-3.506,7.233c-3.503,7.233-2.534,25.735-2.939,31
			c-0.355,4.596,6.729,15.359,8.154,19.036c0.208,0.539,0.297,0.924,0.221,1.117c-0.589,1.511-18.1,3.775-29.488,0
			c-11.385-3.775-34.448,10.017-35.203,9.766c-0.755-0.252-1.415-33.926-4.938-48.897c-3.523-14.969,2.348-54.237,2.348-54.237
			l-4.742-1.505l-2.137-0.677c-6.208,0.337-4.233-6.961-4.233-6.961s0.207,7.381,3.981,5.459c1.689-0.861,1.616-5.874,1.017-11.152
			c-0.732-6.468-2.25-13.333-2.272-13.439c0.073,0.02,1.21,0.325,3,0.831c5.97,1.681,19.182,5.597,24.178,8.572
			c1.5,0.894,5.124,3.493,7.928,5.539c2.069,1.505,3.689,2.713,3.689,2.713c9.88,5.443,13.046,5.083,21.1,7.475
			c0.352,0.105,0.709,0.211,1.067,0.314c9.785,2.907,20.979,6.359,25.134,13.356c3.211,5.411,8.617,11.71,11.156,14.562
			C196.284,185.645,196.817,186.216,196.817,186.216z"/>
		<path fill="#2C2A40" d="M101.81,158.079l-2.137-0.677c-6.208,0.337-4.233-6.961-4.233-6.961s0.207,7.381,3.981,5.459
			c1.689-0.861,1.616-5.874,1.017-11.152c-0.732-6.468-2.25-13.333-2.272-13.439c0.073,0.02,1.21,0.325,3,0.831
			C102.658,138.167,105.336,151.508,101.81,158.079z"/>
		<path fill="#2C2A40" d="M196.817,186.216c-1.173,5.25-6.158,10.037-10.12,13.117c0,0,0,0-0.002,0
			c-2.836,2.207-5.146,3.538-5.146,3.538l-2.351-2.026c7.983-5.401,13.634-12.193,15.83-16.615
			C195.894,185.205,196.817,186.216,196.817,186.216z"/>
		<path fill="#2C2A40" d="M157.225,156.216c-1.576,4.195-3.969,7.981-16.278,5.004c-13.861-3.353-6.282-13.951-6.282-13.951
			c2.068,1.505,2.295,1.695,2.295,1.695c9.88,5.443,10.144,4.276,18.198,6.667C155.51,155.736,156.868,156.113,157.225,156.216z"/>
		<path opacity="0.2" fill="#2C2A40" d="M186.695,199.333c-2.836,2.207-5.146,3.538-5.146,3.538l-9.646-8.305c0,0,0,0-3.506,7.233
			c-3.503,7.233-2.534,25.735-2.939,31c-6.914-16.441,5.187-46.565,5.187-46.565C174.137,193.022,186.486,199.182,186.695,199.333z"
			/>
		<path opacity="0.2" fill="#2C2A40" d="M173.833,252.953c-0.589,1.511-18.1,3.775-29.488,0
			c-11.385-3.775-34.448,10.017-35.203,9.766c-0.755-0.252-1.415-33.926-4.938-48.897c-3.523-14.969,2.348-54.237,2.348-54.237
			l-6.878-2.182c-6.208,0.337-4.233-6.961-4.233-6.961s0.207,7.381,3.981,5.459c1.689-0.861,1.616-5.874,1.017-11.152
			c0,0,11.987,8.63,18.865,10.644c0,0-1.93,12.335-3.775,28.396c-1.847,16.064-0.669,27.107,3.02,38.347
			c3.692,11.242,11.934,22.01,23.373,23.186c11.441,1.173,22.577,9.176,31.69,6.516C173.82,252.375,173.908,252.76,173.833,252.953z
			"/>
		<g>
			<path fill="#2C2A40" d="M176.988,118.481c0,0,0,0-0.002-0.001c-0.285,0.282-0.474,0.428-0.474,0.428l-37.664,13.182
				c0,0-5.628-2.591-5.299-12.429c0.236-7.096,4.814-10.348,7.348-11.61c-0.308-0.31-0.59-0.643-0.82-0.942
				c-0.341-0.443-0.032-1.084,0.526-1.096c0.469-0.011,0.881,0.011,1.246,0.061c-0.111-0.469-0.171-0.945-0.205-1.36
				c-0.045-0.558,0.562-0.925,1.04-0.634c0.766,0.47,1.292,0.94,1.647,1.382c0.017-0.017,0.033-0.034,0.05-0.05
				c3.651-3.683,8.545-5.868,13.723-6.165c2.832-0.162,6.283-0.412,9.715-0.791c6.593-0.729,11.725,0.457,13.647-1.522
				C181.465,96.935,189.586,110.456,176.988,118.481z"/>
			<path fill="#2C2A40" d="M176.257,116.086c0,0,3.853,9.017-2.529,14.389C173.728,130.475,172.785,119.678,176.257,116.086z"/>
			<path fill="#F9B587" d="M153.868,157.851c-0.062,0.051-0.128,0.104-0.194,0.158c-0.776,0.612-1.942,1.291-3.674,1.838
				c-3.269,1.037-10.492-2.156-13.632-3.674c-0.84-0.407-1.232-1.387-0.903-2.26c1.755-4.659,2.593-9.615,2.587-14.614
				c-0.008-7.636,3.077-14.651,3.077-14.651c-0.778,3.604,0.584,8.807,2.68,14.041C147.262,147.316,152.71,156.034,153.868,157.851z
				"/>
			<path fill="#F9B587" d="M171.239,134.949c0.011,1.512-0.229,3.004-0.707,4.419c-0.409,1.224-0.995,2.393-1.746,3.462
				l-4.988,7.115c-1.855,2.646-5.191,3.818-8.292,2.905c-3.553-1.046-8.149-3.053-11.624-6.853
				c-6.557-7.171-3.618-19.183-3.618-19.183s3.661-12.018,14.911-14.128c11.25-2.11,20.196,5.835,20.196,5.835l-0.933,8.812
				c-0.052,0.492-0.13,0.979-0.235,1.458c-0.351,1.613-0.994,3.152-1.904,4.542L171.239,134.949z"/>
			<path fill="#2C2A40" d="M165.235,123.919c0,0-4.311-6.954-9.461-2.924l0.392,1.454c0,0,4.806-2.464,8.311,2.969L165.235,123.919z
				"/>
			<path fill="#F39568" d="M171.239,134.949c0.011,1.512-0.229,3.004-0.707,4.419c-1.004-1.167-3.279-2.496-8.382-3.047
				c0,0,3.182-1.495,5.837-0.889c0.713,0.163,1.38-0.41,1.327-1.14l-0.357-4.886c0,0,0.754-0.771,1.963-0.833
				c0.737-0.037,2.157,0.049,3.284,0.218c-0.351,1.613-0.994,3.152-1.904,4.542L171.239,134.949z"/>
			<path fill="#2C2A40" d="M174.291,127.369c-1.948-0.348-3.624-0.182-3.624-0.182l-0.541,1.43c1.481-0.124,2.725,0.018,3.766,0.315
				c0.515,0.147,1.039-0.137,1.127-0.606c0.001-0.006,0.002-0.011,0.003-0.017C175.104,127.877,174.776,127.456,174.291,127.369z"/>
			<path fill="#FFFFFF" d="M167.236,141.435l-13.185-4.619c0,0-0.254,7.671,6.972,9.262
				C166.691,147.325,167.236,141.435,167.236,141.435z"/>
			<path fill="#F39568" d="M154.765,152.412l-0.605,5.177c-0.09,0.084-0.186,0.172-0.292,0.262
				c-0.062,0.051-0.128,0.104-0.194,0.158c-1.941-0.889-10.058-4.954-10.866-10.92c-0.514-3.775,0.234-6.62,1-8.4
				c0.607-1.417,1.227-2.161,1.227-2.161C146.652,149.299,154.765,152.412,154.765,152.412z"/>
			<path fill="#F9B587" d="M144.228,125.701c0,0-1.343-5.479-5.594-4.217c-4.251,1.261-4.92,12.84,0.979,12.099
				C145.512,132.84,144.228,125.701,144.228,125.701z"/>
			<path fill="#2C2A40" d="M156.938,112.435c0,0-2.484,0.257-2.785,3.401c-0.3,3.144-0.835,8.493-4.881,8.38
				c-4.045-0.112-4.44,4.802-4.44,4.802l-2.895-0.7c0,0-0.286-8.736,1.641-11.713C145.505,113.629,153.622,109.334,156.938,112.435z
				"/>
			<path fill="#2C2A40" d="M156.477,126.247c0,0,1.385-1.771,4.158-0.958s2.62,3.769,2.62,3.769S161.702,125.183,156.477,126.247z"
				/>
			<path fill="#2C2A40" d="M169.537,131.125c0,0,0.986-0.604,2.131-0.161c1.145,0.444,0.728,1.938,0.728,1.938
				S172.131,130.979,169.537,131.125z"/>
		</g>
		<g>
			<g>
				
					<rect x="206.096" y="141.156" transform="matrix(0.8454 0.5342 -0.5342 0.8454 121.1776 -100.0762)" fill="#2C2A40" width="54.696" height="36.217"/>
				<polygon fill="#2C2A40" points="266.237,158.564 246.89,189.182 200.652,159.964 202.653,159.823 265.414,155.392 
					265.969,157.529 265.968,157.531 				"/>
				<path fill="#FFFFFF" d="M265.969,157.529l-18.502,29.366c-0.635-0.401-0.354-0.224-1.4-0.885l-12.669-29.269l32.017-1.349
					L265.969,157.529z"/>
				
					<rect x="207.479" y="138.622" transform="matrix(0.8454 0.5342 -0.5342 0.8454 119.8507 -100.567)" fill="#2C2A40" width="52.305" height="36.217"/>
			</g>
			<path fill="#F9B587" d="M251.036,143.193c-0.003-0.006-0.006-0.009-0.006-0.009c-0.436-0.801-1.392-1.485-2.053-1.581
				c-0.005-0.69-0.674-1.337-1.504-1.696c-0.483-0.209-1.025-0.222-1.533-0.084c-0.235-0.844-1.135-1.504-1.74-1.316
				c0,0-0.145,0.028-0.39,0.085c-0.066-0.605-0.43-0.987-0.43-0.987h-0.003c-0.394-0.904-1.901-1.654-2.581-1.444
				c0,0-5.758,1.032-7.12,5.02c-1.362,3.987-3.109,8.596-1.07,8.313c0.584-0.081,1.261-0.647,1.926-1.468
				c-0.719,2.415-0.984,4.275,0.335,4.093c0.733-0.102,1.613-0.968,2.434-2.146c-0.555,2.059-0.65,3.55,0.536,3.386
				c1.071-0.148,2.454-1.927,3.507-3.924c-0.681,2.332-0.903,4.103,0.386,3.924c1.578-0.219,2.686-3.427,4.27-5.877
				c1.858-2.87,1.793-1.179,3.8-1.952l1.464,0.925C251.976,144.701,251.115,143.316,251.036,143.193z"/>
		</g>
		<path fill="#2C2A40" d="M134.665,147.269c0,0,1.596-13.287-3.911-14.368c-10.696-2.1-22.573,13.737-29.01,30.206
			c-9.689,24.79,1.504,43.402,1.504,43.402l0.198-9.494c0,0-0.879-20.643,8.684-36.965c9.563-16.322,16.232-20.726,17.617-19.593
			c1.384,1.132,1.453,4.291,1.453,4.291L134.665,147.269z"/>
		<path fill="#2C2A40" d="M159.127,156.753c0,0,3.199-8.272,13.454-4.585c8.969,3.224,8.042,12.786,6.658,25.369
			s-13.572,43.705-13.572,43.705s-0.519-10.963,0.866-17.507c0,0,8.389-27.667,5.369-38.614c-3.02-10.948-9.752-7.46-9.752-7.46
			L159.127,156.753z"/>
	</g>
</g>
<g id="DESIGNED_BY_FREEPIK" display="none">
	<g display="inline">
		<g id="XMLID_319_">
			<g id="XMLID_338_">
				<path id="XMLID_346_" fill="#112129" d="M260.104,465.466c-0.433,0.442-0.804,0.931-1.108,1.452l-0.466-0.24
					c-0.066-0.298-0.349-0.503-0.658-0.467c-0.331,0.039-0.568,0.339-0.529,0.67s0.339,0.568,0.67,0.529
					c0.065-0.008,0.127-0.026,0.184-0.053l0.451,0.234c-0.251,0.554-0.433,1.139-0.539,1.744l0.746,0.131
					c0.23-1.306,0.85-2.506,1.792-3.472L260.104,465.466z"/>
				<path id="XMLID_345_" fill="#112129" d="M265.592,463.163c-0.171,0-0.341,0.007-0.51,0.018l-0.073-0.626
					c0.188-0.149,0.296-0.39,0.266-0.645c-0.046-0.394-0.402-0.675-0.795-0.629c-0.394,0.047-0.675,0.402-0.629,0.796
					c0.03,0.254,0.189,0.461,0.405,0.563l0.073,0.624c-0.714,0.116-1.403,0.332-2.06,0.646l0.327,0.684
					c0.934-0.447,1.941-0.673,2.995-0.673c0.496,0,0.993,0.053,1.475,0.157l0.161-0.741
					C266.692,463.223,266.143,463.163,265.592,463.163z"/>
				<path id="XMLID_344_" fill="#112129" d="M272.194,465.711c0.331-0.041,0.566-0.342,0.525-0.673
					c-0.04-0.331-0.342-0.565-0.672-0.525c-0.31,0.038-0.535,0.304-0.53,0.608l-0.416,0.363c-0.418-0.43-0.89-0.813-1.408-1.139
					l-0.403,0.641c1.134,0.715,2.021,1.727,2.563,2.926l0.69-0.313c-0.251-0.555-0.567-1.072-0.942-1.545l0.402-0.352
					C272.064,465.716,272.129,465.719,272.194,465.711z"/>
				<path id="XMLID_343_" fill="#112129" d="M265.044,473.372c-0.386,0.023-0.774,0.034-1.157,0.034
					c-0.88,0-1.732-0.061-2.478-0.179c-0.391-0.063-0.847-0.155-1.271-0.292c1.046,1.86,3.069,3.125,5.389,3.125
					c2.855,0,5.262-1.916,5.949-4.504c-0.682,0.449-1.506,0.825-2.459,1.123C267.839,473.047,266.464,473.286,265.044,473.372z"/>
				<path id="XMLID_339_" fill="#112129" d="M265.592,464.68c-3.353,0-6.079,2.666-6.079,5.943c0,0.426,0.046,0.849,0.137,1.262
					c0.674,0.482,2.706,0.89,5.348,0.73c2.879-0.173,5.297-0.957,6.672-2.158c-0.005-0.195-0.021-0.391-0.045-0.582
					C271.244,466.913,268.65,464.68,265.592,464.68z M263.433,471.194c-1.021,0-1.85-0.83-1.85-1.85c0-1.021,0.829-1.85,1.85-1.85
					c1.02,0,1.85,0.829,1.85,1.85C265.282,470.364,264.452,471.194,263.433,471.194z M268.17,470.286c-0.75,0-1.36-0.61-1.36-1.36
					s0.61-1.36,1.36-1.36s1.36,0.61,1.36,1.36S268.92,470.286,268.17,470.286z"/>
			</g>
			<path id="XMLID_336_" fill="#112129" d="M281.596,466.547c-0.295-0.116-0.806-0.309-1.383-0.237
				c-0.551,0.068-0.844,0.341-0.844,1.007v0.865h2.228v1.718h-2.228v5.454h-1.932v-5.454h-1.34v-1.718h1.34v-0.888
				c0-1.681,0.896-2.783,2.568-2.783c0.643,0,1.157,0.122,1.59,0.309V466.547z"/>
			<path id="XMLID_334_" fill="#112129" d="M286.298,469.879c-0.177-0.03-0.357-0.047-0.526-0.047c-0.896,0-1.51,0.548-1.51,1.614
				v3.907h-1.932v-7.172h1.873v0.785c0.451-0.674,1.14-0.978,2.021-0.978c0.414,0,0.848,0.128,1.094,0.337L286.298,469.879z"/>
			<path id="XMLID_331_" fill="#112129" d="M293.965,471.757c0,0.222-0.015,0.488-0.037,0.651h-5.084
				c0.207,1.036,0.933,1.487,1.843,1.487c0.621,0,1.295-0.251,1.813-0.688l1.132,1.243c-0.813,0.747-1.851,1.088-3.057,1.088
				c-2.198,0-3.723-1.495-3.723-3.753c0-2.257,1.48-3.797,3.627-3.797C292.544,467.989,293.958,469.521,293.965,471.757z
				 M288.851,471.091h3.175c-0.177-0.918-0.732-1.437-1.562-1.437C289.554,469.654,289.021,470.202,288.851,471.091z"/>
			<path id="XMLID_328_" fill="#112129" d="M301.618,471.757c0,0.222-0.015,0.488-0.037,0.651h-5.084
				c0.207,1.036,0.933,1.487,1.843,1.487c0.621,0,1.295-0.251,1.813-0.688l1.132,1.243c-0.814,0.747-1.851,1.088-3.057,1.088
				c-2.198,0-3.723-1.495-3.723-3.753c0-2.257,1.48-3.797,3.626-3.797C300.197,467.989,301.611,469.521,301.618,471.757z
				 M296.504,471.091h3.176c-0.178-0.918-0.733-1.437-1.563-1.437C297.207,469.654,296.674,470.202,296.504,471.091z"/>
			<path id="XMLID_325_" fill="#112129" d="M309.964,471.765c0,2.153-1.495,3.774-3.471,3.774c-0.963,0-1.644-0.378-2.109-0.933
				v3.708h-1.925v-10.133h1.888v0.792c0.466-0.585,1.154-0.984,2.139-0.984C308.469,467.989,309.964,469.61,309.964,471.765z
				 M304.287,471.765c0,1.132,0.748,1.976,1.843,1.976c1.14,0,1.851-0.881,1.851-1.976c0-1.096-0.711-1.977-1.851-1.977
				C305.035,469.788,304.287,470.632,304.287,471.765z"/>
			<path id="XMLID_322_" fill="#112129" d="M313.067,465.836c0,0.695-0.54,1.229-1.235,1.229c-0.696,0-1.229-0.533-1.229-1.229
				c0-0.696,0.533-1.244,1.229-1.244C312.527,464.592,313.067,465.14,313.067,465.836z M312.809,475.354h-1.932v-7.172h1.932
				V475.354z"/>
			<path id="XMLID_320_" fill="#112129" d="M316.032,470.735l2.701-2.554h2.369l-3.479,3.375l3.501,3.797h-2.376l-2.716-2.901v2.901
				h-1.932v-10.657h1.932V470.735z"/>
		</g>
		<g>
			<path fill="#112129" d="M184.413,475.289v-1.055c-0.527,0.718-1.392,1.23-2.388,1.23c-1.846,0-3.149-1.406-3.149-3.706
				c0-2.256,1.289-3.721,3.149-3.721c0.952,0,1.816,0.469,2.388,1.245v-3.765h1.099v9.771H184.413z M184.413,473.37v-3.208
				c-0.396-0.615-1.245-1.143-2.124-1.143c-1.421,0-2.271,1.172-2.271,2.739s0.85,2.725,2.271,2.725
				C183.167,474.483,184.017,473.985,184.413,473.37z"/>
			<path fill="#112129" d="M186.932,471.744c0-2.051,1.465-3.706,3.486-3.706c2.139,0,3.398,1.67,3.398,3.794v0.278h-5.728
				c0.088,1.333,1.025,2.446,2.549,2.446c0.806,0,1.626-0.322,2.183-0.894l0.527,0.718c-0.703,0.703-1.655,1.084-2.813,1.084
				C188.44,475.465,186.932,473.956,186.932,471.744z M190.403,468.946c-1.509,0-2.256,1.274-2.314,2.358h4.644
				C192.718,470.25,192.015,468.946,190.403,468.946z"/>
			<path fill="#112129" d="M194.607,474.352l0.571-0.791c0.469,0.542,1.362,1.011,2.329,1.011c1.084,0,1.67-0.513,1.67-1.216
				c0-1.714-4.38-0.659-4.38-3.281c0-1.099,0.952-2.036,2.637-2.036c1.201,0,2.051,0.454,2.622,1.025l-0.513,0.762
				c-0.424-0.513-1.201-0.894-2.109-0.894c-0.967,0-1.567,0.483-1.567,1.113c0,1.553,4.379,0.527,4.379,3.281
				c0,1.187-0.952,2.139-2.783,2.139C196.306,475.465,195.325,475.113,194.607,474.352z"/>
			<path fill="#112129" d="M201.477,466.471c0-0.41,0.337-0.747,0.732-0.747c0.41,0,0.747,0.337,0.747,0.747
				s-0.337,0.732-0.747,0.732C201.814,467.203,201.477,466.881,201.477,466.471z M201.667,475.289v-7.075h1.099v7.075H201.667z"/>
			<path fill="#112129" d="M204.582,477.105l0.557-0.82c0.586,0.703,1.289,0.967,2.3,0.967c1.172,0,2.27-0.571,2.27-2.124v-1.011
				c-0.512,0.718-1.376,1.26-2.373,1.26c-1.845,0-3.149-1.377-3.149-3.662c0-2.271,1.289-3.677,3.149-3.677
				c0.952,0,1.802,0.469,2.373,1.245v-1.069h1.099v6.87c0,2.344-1.641,3.076-3.369,3.076
				C206.237,478.16,205.417,477.926,204.582,477.105z M209.708,473.253v-3.091c-0.381-0.615-1.23-1.143-2.109-1.143
				c-1.421,0-2.271,1.128-2.271,2.695c0,1.553,0.849,2.695,2.271,2.695C208.478,474.41,209.328,473.868,209.708,473.253z"/>
			<path fill="#112129" d="M217.413,475.289v-4.629c0-1.245-0.629-1.641-1.582-1.641c-0.865,0-1.685,0.527-2.095,1.099v5.171h-1.099
				v-7.075h1.099v1.025c0.498-0.586,1.464-1.201,2.519-1.201c1.479,0,2.256,0.747,2.256,2.285v4.966H217.413z"/>
			<path fill="#112129" d="M219.933,471.744c0-2.051,1.465-3.706,3.486-3.706c2.138,0,3.398,1.67,3.398,3.794v0.278h-5.728
				c0.088,1.333,1.025,2.446,2.549,2.446c0.806,0,1.626-0.322,2.183-0.894l0.527,0.718c-0.703,0.703-1.655,1.084-2.813,1.084
				C221.441,475.465,219.933,473.956,219.933,471.744z M223.404,468.946c-1.509,0-2.256,1.274-2.314,2.358h4.643
				C225.718,470.25,225.015,468.946,223.404,468.946z"/>
			<path fill="#112129" d="M233.35,475.289v-1.055c-0.527,0.718-1.392,1.23-2.388,1.23c-1.845,0-3.149-1.406-3.149-3.706
				c0-2.256,1.289-3.721,3.149-3.721c0.952,0,1.817,0.469,2.388,1.245v-3.765h1.098v9.771H233.35z M233.35,473.37v-3.208
				c-0.396-0.615-1.245-1.143-2.124-1.143c-1.421,0-2.271,1.172-2.271,2.739s0.85,2.725,2.271,2.725
				C232.105,474.483,232.954,473.985,233.35,473.37z"/>
			<path fill="#112129" d="M239.692,475.289v-9.771h1.099v3.765c0.572-0.776,1.421-1.245,2.388-1.245
				c1.846,0,3.149,1.465,3.149,3.721c0,2.3-1.304,3.706-3.149,3.706c-0.996,0-1.86-0.513-2.388-1.23v1.055H239.692z M242.9,474.483
				c1.436,0,2.286-1.157,2.286-2.725s-0.85-2.739-2.286-2.739c-0.864,0-1.729,0.527-2.109,1.143v3.208
				C241.171,473.985,242.036,474.483,242.9,474.483z"/>
			<path fill="#112129" d="M247.528,477.062c0.161,0.073,0.425,0.117,0.601,0.117c0.483,0,0.805-0.161,1.055-0.747l0.468-1.069
				l-2.959-7.148h1.187l2.358,5.801l2.344-5.801h1.201l-3.545,8.511c-0.425,1.025-1.143,1.421-2.08,1.436
				c-0.234,0-0.601-0.044-0.806-0.103L247.528,477.062z"/>
		</g>
	</g>
</g>
</svg>
