<?xml version="1.0" encoding="utf-8"?>
<!-- Generator: Adobe Illustrator 16.0.0, SVG Export Plug-In . SVG Version: 6.00 Build 0)  -->
<!DOCTYPE svg PUBLIC "-//W3C//DTD SVG 1.1//EN" "http://www.w3.org/Graphics/SVG/1.1/DTD/svg11.dtd">
<svg version="1.1" id="Layer_1" xmlns="http://www.w3.org/2000/svg" xmlns:xlink="http://www.w3.org/1999/xlink" x="0px" y="0px"
	 width="750px" height="500px" viewBox="0 0 750 500" enable-background="new 0 0 750 500" xml:space="preserve">
<g>
	<defs>
		<rect id="SVGID_1_" width="750" height="500"/>
	</defs>
	<clipPath id="SVGID_2_">
		<use xlink:href="#SVGID_1_"  overflow="visible"/>
	</clipPath>
	<g clip-path="url(#SVGID_2_)">
		<defs>
			<rect id="SVGID_3_" width="750" height="500"/>
		</defs>
		<clipPath id="SVGID_4_">
			<use xlink:href="#SVGID_3_"  overflow="visible"/>
		</clipPath>
		<path clip-path="url(#SVGID_4_)" fill="#EBEBEB" d="M466.99,443.859c4.792-2.688,10.938-2.789,15.816-0.259
			s8.337,7.613,8.9,13.079C481.609,456.689,471.66,454.333,466.99,443.859"/>
		<path clip-path="url(#SVGID_4_)" fill="#EBEBEB" d="M478.758,433.514c6.758,2.215,14.589,0.806,20.148-3.628
			c5.562-4.433,8.681-11.752,8.029-18.833C494.111,413.567,482.068,419.049,478.758,433.514"/>
		<path clip-path="url(#SVGID_4_)" fill="#E0E0E0" d="M434.793,450.602c-0.006-0.018,0.213-0.104,0.632-0.251
			c0.472-0.16,1.083-0.365,1.843-0.623c1.605-0.521,3.926-1.277,6.776-2.271c5.702-1.965,13.533-4.834,21.972-8.509
			c4.214-1.852,8.174-3.731,11.732-5.531c3.541-1.83,6.677-3.577,9.246-5.15c2.548-1.604,4.579-2.961,5.875-4.035
			c1.325-1.036,1.972-1.716,2.016-1.671c0.013,0.013-0.145,0.185-0.457,0.501c-0.318,0.312-0.764,0.802-1.429,1.326
			c-1.267,1.13-3.275,2.538-5.809,4.192c-2.555,1.619-5.684,3.405-9.223,5.264c-3.556,1.828-7.521,3.727-11.743,5.581
			c-8.456,3.685-16.324,6.502-22.064,8.382c-2.867,0.948-5.209,1.653-6.834,2.114c-0.771,0.219-1.392,0.395-1.871,0.531
			C435.025,450.567,434.798,450.619,434.793,450.602"/>
		<path clip-path="url(#SVGID_4_)" fill="#E0E0E0" d="M479.964,449.741c-0.053,0.074-1.224-0.738-3.237-1.829
			c-2.01-1.093-4.906-2.396-8.271-3.322c-3.368-0.917-6.524-1.271-8.811-1.354c-2.288-0.088-3.71,0.017-3.717-0.075
			c-0.003-0.034,0.349-0.092,0.991-0.162c0.642-0.078,1.576-0.128,2.732-0.131c2.312-0.01,5.524,0.289,8.942,1.221
			c3.414,0.938,6.331,2.317,8.313,3.505c0.993,0.59,1.774,1.108,2.285,1.503C479.709,449.484,479.984,449.713,479.964,449.741"/>
		<path clip-path="url(#SVGID_4_)" fill="#EBEBEB" d="M241.728,404.775c-2.435,6.487-1.385,14.17,2.701,19.767
			c4.086,5.596,11.083,8.936,18.004,8.592C260.515,420.546,255.674,408.595,241.728,404.775"/>
		<path clip-path="url(#SVGID_4_)" fill="#E0E0E0" d="M239.756,398.6c0.083-0.02,0.427,1.375,1.153,3.569
			c0.724,2.195,1.89,5.174,3.551,8.281c1.669,3.104,3.505,5.724,4.932,7.542c1.425,1.818,2.397,2.877,2.334,2.936
			c-0.026,0.025-0.294-0.215-0.758-0.672c-0.468-0.452-1.108-1.145-1.862-2.032c-1.511-1.771-3.418-4.389-5.105-7.527
			c-1.68-3.143-2.805-6.179-3.443-8.417c-0.322-1.119-0.545-2.035-0.662-2.677C239.772,398.963,239.722,398.607,239.756,398.6"/>
		<path clip-path="url(#SVGID_4_)" fill="#EBEBEB" d="M41.887,152.443c-3.772,10.049-2.146,21.95,4.184,30.619
			c6.329,8.669,17.169,13.842,27.89,13.311C70.989,176.871,63.49,158.359,41.887,152.443"/>
		<path clip-path="url(#SVGID_4_)" fill="#E0E0E0" d="M38.832,142.875c0.035-0.008,0.2,0.524,0.468,1.492
			c0.258,0.97,0.671,2.363,1.222,4.068c1.099,3.411,2.893,8.042,5.471,12.865c2.59,4.818,5.454,8.876,7.688,11.679
			c1.114,1.403,2.046,2.518,2.711,3.27c0.657,0.758,1.009,1.19,0.983,1.215c-0.026,0.025-0.427-0.36-1.133-1.079
			c-0.712-0.712-1.69-1.794-2.847-3.175c-2.318-2.755-5.252-6.811-7.861-11.664c-2.597-4.858-4.35-9.546-5.363-13.002
			c-0.509-1.727-0.869-3.141-1.068-4.128C38.895,143.431,38.797,142.883,38.832,142.875"/>
		<path clip-path="url(#SVGID_4_)" fill="#EBEBEB" d="M75.675,351.484c-5.397,4.346-8.403,11.492-7.734,18.39
			c0.669,6.896,4.993,13.333,11.125,16.559C83.821,374.62,85.736,361.87,75.675,351.484"/>
		<path clip-path="url(#SVGID_4_)" fill="#E0E0E0" d="M77.121,345.164c0.082,0.025-0.333,1.401-0.824,3.66
			c-0.494,2.257-1.007,5.415-1.158,8.936c-0.143,3.521,0.104,6.712,0.407,9.002c0.301,2.292,0.599,3.695,0.515,3.715
			c-0.035,0.008-0.143-0.334-0.31-0.963c-0.173-0.628-0.371-1.55-0.568-2.698c-0.4-2.294-0.709-5.517-0.564-9.078
			c0.153-3.559,0.73-6.746,1.32-8.998c0.293-1.127,0.567-2.029,0.792-2.64C76.95,345.485,77.087,345.152,77.121,345.164"/>
		<path clip-path="url(#SVGID_4_)" fill="#EBEBEB" d="M261.26,98.624c6.203,3.087,13.953,2.832,19.938-0.659
			c5.986-3.49,10.026-10.109,10.395-17.028C278.874,81.554,266.489,85.144,261.26,98.624"/>
		<path clip-path="url(#SVGID_4_)" fill="#E0E0E0" d="M254.914,99.952c-0.011-0.085,1.412-0.284,3.669-0.781
			c2.257-0.495,5.34-1.349,8.601-2.683c3.259-1.342,6.054-2.899,8.008-4.132c1.956-1.232,3.108-2.09,3.16-2.021
			c0.023,0.028-0.244,0.27-0.746,0.685c-0.498,0.419-1.253,0.984-2.212,1.644c-1.917,1.321-4.716,2.95-8.012,4.306
			c-3.297,1.348-6.433,2.156-8.726,2.562c-1.146,0.204-2.08,0.332-2.729,0.384C255.278,99.973,254.918,99.988,254.914,99.952"/>
		<path clip-path="url(#SVGID_4_)" fill="#EBEBEB" d="M235.338,96.806c8.932-1.918,16.709-8.554,20.009-17.073
			c3.3-8.519,2.023-18.661-3.286-26.096C239.458,64.729,229.645,78.611,235.338,96.806"/>
		<path clip-path="url(#SVGID_4_)" fill="#E0E0E0" d="M229.889,103.392c-0.025-0.025,0.276-0.392,0.843-1.031
			c0.573-0.634,1.377-1.573,2.342-2.754c1.932-2.358,4.419-5.772,6.687-9.833c2.259-4.068,3.853-7.981,4.839-10.865
			c0.497-1.442,0.871-2.621,1.108-3.441c0.245-0.818,0.398-1.267,0.433-1.259c0.035,0.008-0.051,0.474-0.237,1.311
			c-0.178,0.839-0.5,2.039-0.954,3.504c-0.902,2.931-2.456,6.901-4.734,11.003c-2.287,4.095-4.844,7.507-6.86,9.817
			c-1.007,1.158-1.857,2.063-2.476,2.656C230.265,103.099,229.915,103.417,229.889,103.392"/>
		<path clip-path="url(#SVGID_4_)" fill="#EBEBEB" d="M317.372,439.371c1.886,3.723,5.72,6.386,9.866,6.853
			c4.146,0.466,8.477-1.278,11.143-4.487C332.017,437.461,324.745,434.741,317.372,439.371"/>
		<path clip-path="url(#SVGID_4_)" fill="#E0E0E0" d="M313.83,437.73c0.077-0.148,3.085,1.605,7.197,2.64
			c4.105,1.069,7.585,0.976,7.581,1.145c0.002,0.063-0.863,0.168-2.271,0.134c-1.405-0.032-3.352-0.241-5.439-0.773
			c-2.085-0.537-3.893-1.289-5.141-1.936C314.507,438.293,313.798,437.786,313.83,437.73"/>
		<path clip-path="url(#SVGID_4_)" fill="#EBEBEB" d="M410.071,80.333c2.568,3.287,6.847,5.157,11.005,4.813
			c4.158-0.343,8.068-2.892,10.063-6.556C424.069,75.625,416.409,74.363,410.071,80.333"/>
		<path clip-path="url(#SVGID_4_)" fill="#E0E0E0" d="M406.278,79.408c0.047-0.161,3.338,0.978,7.57,1.197
			c4.234,0.256,7.632-0.509,7.659-0.343c0.016,0.062-0.813,0.332-2.202,0.571c-1.384,0.24-3.336,0.41-5.485,0.292
			c-2.148-0.123-4.067-0.51-5.418-0.904C407.05,79.829,406.257,79.468,406.278,79.408"/>
		<path clip-path="url(#SVGID_4_)" fill="#EBEBEB" d="M650.306,111.093c6.677,1.842,14.229,0.107,19.436-4.462
			c5.204-4.571,7.901-11.836,6.938-18.696C664.318,90.975,652.855,96.866,650.306,111.093"/>
		<path clip-path="url(#SVGID_4_)" fill="#E0E0E0" d="M644.334,113.61c-0.027-0.082,1.331-0.548,3.449-1.469
			c2.119-0.917,4.981-2.345,7.926-4.278c2.939-1.94,5.385-4.003,7.064-5.586c1.685-1.583,2.65-2.645,2.714-2.588
			c0.028,0.024-0.187,0.313-0.6,0.816c-0.408,0.506-1.041,1.205-1.857,2.036c-1.628,1.663-4.062,3.796-7.036,5.757
			c-2.976,1.955-5.897,3.347-8.069,4.184c-1.086,0.42-1.979,0.724-2.605,0.899C644.693,113.561,644.345,113.644,644.334,113.61"/>
		<path clip-path="url(#SVGID_4_)" fill="#EBEBEB" d="M673.967,415.879c11.742-2.712,21.865-11.623,26.046-22.928
			c4.18-11.304,2.288-24.658-4.866-34.357C678.747,373.483,666.085,391.995,673.967,415.879"/>
		<path clip-path="url(#SVGID_4_)" fill="#E0E0E0" d="M666.913,424.678c-0.026-0.024,0.372-0.507,1.113-1.354
			c0.75-0.842,1.8-2.091,3.056-3.666c1.262-1.568,2.685-3.5,4.18-5.699c1.473-2.215,3.008-4.706,4.468-7.406
			c1.445-2.71,2.673-5.366,3.704-7.817c1.008-2.463,1.832-4.716,2.442-6.635c0.618-1.916,1.079-3.481,1.366-4.569
			c0.298-1.088,0.479-1.687,0.514-1.679c0.035,0.009-0.079,0.621-0.318,1.727c-0.226,1.107-0.634,2.693-1.211,4.631
			c-0.568,1.942-1.359,4.219-2.348,6.706c-1.014,2.477-2.237,5.157-3.69,7.883c-1.469,2.718-3.025,5.218-4.53,7.43
			c-1.525,2.197-2.986,4.116-4.291,5.662c-1.298,1.552-2.393,2.768-3.19,3.569C667.388,424.268,666.938,424.702,666.913,424.678"/>
	</g>
	<g clip-path="url(#SVGID_2_)">
		<defs>
			<rect id="SVGID_5_" width="750" height="500"/>
		</defs>
		<clipPath id="SVGID_6_">
			<use xlink:href="#SVGID_5_"  display="none" overflow="visible"/>
		</clipPath>
	</g>
	<g clip-path="url(#SVGID_2_)">
		<defs>
			<rect id="SVGID_7_" width="750" height="500"/>
		</defs>
		<clipPath id="SVGID_8_">
			<use xlink:href="#SVGID_7_"  overflow="visible"/>
		</clipPath>
		<path clip-path="url(#SVGID_8_)" fill="#E8505B" d="M538.224,289.8c-6.316-35.247-36.584-66.028-72.274-68.936
			c-19.446-1.584-39.003,4.549-58.372,2.21c-16.253-1.962-31.685-10.1-42.485-22.402c-15.982-18.205-21.416-44.093-38.349-61.417
			c-23.342-23.88-64.076-24.257-92.473-6.685c-28.396,17.572-45.568,49.275-53.425,81.731l-0.311,9.869
			c-1.71,33.663,7.143,72.788,26.676,102.795c19.785,30.396,32.797,42.946,68.858,64.807
			c30.622,18.561,90.582,26.721,126.381,27.584c35.797,0.861,72.575-9.811,99.496-33.421
			C528.867,362.322,544.539,325.047,538.224,289.8"/>
		<g opacity="0.8" clip-path="url(#SVGID_8_)">
			<g>
				<defs>
					<rect id="SVGID_9_" x="180.327" y="120.255" width="359.29" height="299.147"/>
				</defs>
				<clipPath id="SVGID_10_">
					<use xlink:href="#SVGID_9_"  overflow="visible"/>
				</clipPath>
				<path clip-path="url(#SVGID_10_)" fill="#FFFFFF" d="M538.224,289.8c-6.316-35.247-36.584-66.028-72.274-68.936
					c-19.446-1.584-39.003,4.549-58.372,2.21c-16.253-1.962-31.685-10.1-42.485-22.402c-15.982-18.205-21.416-44.093-38.349-61.417
					c-23.342-23.88-64.076-24.257-92.473-6.685c-28.396,17.572-45.568,49.275-53.425,81.731l-0.311,9.869
					c-1.71,33.663,7.143,72.788,26.676,102.795c19.785,30.396,32.797,42.946,68.858,64.807
					c30.622,18.561,90.582,26.721,126.381,27.584c35.797,0.861,72.575-9.811,99.496-33.421
					C528.867,362.322,544.539,325.047,538.224,289.8"/>
			</g>
		</g>
		<path clip-path="url(#SVGID_8_)" fill="#E8505B" d="M573.475,412.989c0.092,9.529-7.56,17.328-17.089,17.419
			c-9.527,0.093-17.327-7.559-17.419-17.088c-0.092-9.527,7.56-17.327,17.088-17.419S573.383,403.461,573.475,412.989"/>
		<g opacity="0.8" clip-path="url(#SVGID_8_)">
			<g>
				<defs>
					<rect id="SVGID_11_" x="538.966" y="395.901" width="34.509" height="34.509"/>
				</defs>
				<clipPath id="SVGID_12_">
					<use xlink:href="#SVGID_11_"  overflow="visible"/>
				</clipPath>
				<path clip-path="url(#SVGID_12_)" fill="#FFFFFF" d="M573.475,412.989c0.092,9.529-7.56,17.328-17.089,17.419
					c-9.527,0.093-17.327-7.559-17.419-17.088c-0.092-9.527,7.56-17.327,17.088-17.419S573.383,403.461,573.475,412.989"/>
			</g>
		</g>
	</g>
	<g clip-path="url(#SVGID_2_)">
		<defs>
			<rect id="SVGID_13_" width="750" height="500"/>
		</defs>
		<clipPath id="SVGID_14_">
			<use xlink:href="#SVGID_13_"  overflow="visible"/>
		</clipPath>
		<path clip-path="url(#SVGID_14_)" fill="#E8505B" d="M435.164,280.452c0.331,34.434-7.179,60.755-22.522,78.967
			c-15.346,18.216-36.355,27.449-63.025,27.705c-26.795,0.258-48.097-8.569-63.911-26.485
			c-15.813-17.913-23.884-44.085-24.215-78.519l-0.582-60.558c-0.329-34.308,7.176-60.633,22.521-78.967
			c15.344-18.335,36.411-27.631,63.207-27.888c26.67-0.257,47.916,8.633,63.73,26.669c15.813,18.035,23.886,44.21,24.215,78.518
			L435.164,280.452z M390.326,213.533c-0.208-21.681-4-37.697-11.374-48.044c-7.375-10.348-18.034-15.455-31.976-15.321
			c-13.943,0.135-24.472,5.445-31.583,15.931c-7.115,10.486-10.567,26.573-10.359,48.253l0.707,73.583
			c0.209,21.806,4.03,37.91,11.468,48.316c7.434,10.409,18.123,15.544,32.066,15.41c13.941-0.133,24.438-5.443,31.492-15.929
			c7.053-10.486,10.476-26.692,10.266-48.617L390.326,213.533z"/>
		<g opacity="0.4" clip-path="url(#SVGID_14_)">
			<g>
				<defs>
					<rect id="SVGID_15_" x="260.899" y="114.701" width="174.275" height="272.429"/>
				</defs>
				<clipPath id="SVGID_16_">
					<use xlink:href="#SVGID_15_"  overflow="visible"/>
				</clipPath>
				<path clip-path="url(#SVGID_16_)" d="M435.164,280.452c0.331,34.434-7.179,60.755-22.522,78.967
					c-15.346,18.216-36.355,27.449-63.025,27.705c-26.795,0.258-48.097-8.569-63.911-26.485
					c-15.813-17.913-23.884-44.085-24.215-78.519l-0.582-60.558c-0.329-34.308,7.176-60.633,22.521-78.967
					c15.344-18.335,36.411-27.631,63.207-27.888c26.67-0.257,47.916,8.633,63.73,26.669c15.813,18.035,23.886,44.21,24.215,78.518
					L435.164,280.452z M390.326,213.533c-0.208-21.681-4-37.697-11.374-48.044c-7.375-10.348-18.034-15.455-31.976-15.321
					c-13.943,0.135-24.472,5.445-31.583,15.931c-7.115,10.486-10.567,26.573-10.359,48.253l0.707,73.583
					c0.209,21.806,4.03,37.91,11.468,48.316c7.434,10.409,18.123,15.544,32.066,15.41c13.941-0.133,24.438-5.443,31.492-15.929
					c7.053-10.486,10.476-26.692,10.266-48.617L390.326,213.533z"/>
			</g>
		</g>
		<path clip-path="url(#SVGID_14_)" fill="#E8505B" d="M460.623,280.208c0.331,34.435-7.179,60.756-22.521,78.968
			c-15.347,18.215-36.355,27.447-63.025,27.705c-26.795,0.257-48.097-8.571-63.91-26.487
			c-15.814-17.913-23.885-44.084-24.215-78.518l-0.583-60.559c-0.329-34.308,7.177-60.633,22.522-78.967
			c15.343-18.335,36.411-27.631,63.206-27.888c26.67-0.257,47.916,8.633,63.73,26.669c15.813,18.035,23.886,44.21,24.216,78.518
			L460.623,280.208z M415.785,213.289c-0.208-21.681-3.999-37.697-11.374-48.044c-7.373-10.348-18.034-15.455-31.976-15.32
			c-13.943,0.134-24.471,5.444-31.583,15.93c-7.114,10.486-10.567,26.573-10.359,48.253l0.708,73.584
			c0.208,21.806,4.029,37.91,11.467,48.317c7.434,10.407,18.123,15.543,32.067,15.408c13.94-0.134,24.438-5.442,31.492-15.929
			c7.052-10.485,10.476-26.69,10.265-48.616L415.785,213.289z"/>
		<path clip-path="url(#SVGID_14_)" fill="#E8505B" d="M286.55,224.917c0.05,0.134-5.862,2.481-13.205,5.24
			c-7.345,2.76-13.338,4.887-13.389,4.753c-0.051-0.135,5.861-2.48,13.206-5.241C280.505,226.91,286.5,224.782,286.55,224.917"/>
		<path clip-path="url(#SVGID_14_)" fill="#E8505B" d="M288.02,248.847c0.05,0.135-5.862,2.48-13.205,5.24
			c-7.345,2.76-13.338,4.887-13.389,4.754c-0.05-0.136,5.861-2.481,13.206-5.242C281.975,250.841,287.969,248.711,288.02,248.847"/>
		<path clip-path="url(#SVGID_14_)" fill="#E8505B" d="M289.489,272.776c0.05,0.135-5.862,2.48-13.205,5.239
			c-7.345,2.761-13.338,4.889-13.389,4.754c-0.051-0.135,5.861-2.479,13.206-5.241C283.444,274.77,289.438,272.642,289.489,272.776"
			/>
		<path clip-path="url(#SVGID_14_)" fill="#E8505B" d="M290.958,296.706c0.05,0.136-5.862,2.48-13.205,5.24
			c-7.345,2.76-13.338,4.888-13.389,4.753c-0.051-0.135,5.861-2.479,13.206-5.241C284.913,298.699,290.907,296.571,290.958,296.706"
			/>
		<path clip-path="url(#SVGID_14_)" fill="#E8505B" d="M292.427,320.636c0.013,0.033-0.314,0.193-0.916,0.452
			c-0.601,0.26-1.478,0.619-2.564,1.053c-2.174,0.867-5.189,2.031-8.531,3.287c-3.343,1.256-6.38,2.365-8.587,3.146
			c-1.103,0.389-1.999,0.695-2.622,0.896c-0.624,0.201-0.974,0.296-0.987,0.264c-0.013-0.034,0.314-0.194,0.915-0.452
			c0.602-0.26,1.478-0.62,2.565-1.054c2.174-0.866,5.189-2.03,8.532-3.287c3.342-1.256,6.378-2.366,8.585-3.145
			c1.104-0.389,2-0.696,2.623-0.896C292.064,320.698,292.415,320.602,292.427,320.636"/>
		<path clip-path="url(#SVGID_14_)" fill="#E8505B" d="M299.263,342.525c0.025,0.067-1.133,0.573-3.027,1.335
			c-1.894,0.763-4.522,1.78-7.437,2.876c-2.915,1.097-5.565,2.061-7.492,2.733c-1.927,0.674-3.131,1.057-3.156,0.99
			c-0.026-0.068,1.133-0.573,3.027-1.334c1.894-0.763,4.522-1.781,7.438-2.876c2.915-1.097,5.564-2.061,7.49-2.734
			C298.033,342.842,299.238,342.46,299.263,342.525"/>
		<path clip-path="url(#SVGID_14_)" fill="#E8505B" d="M313.886,362.609c0.025,0.067-1.004,0.524-2.689,1.208
			s-4.025,1.595-6.622,2.569c-2.597,0.976-4.958,1.832-6.676,2.427c-1.718,0.597-2.793,0.932-2.819,0.863
			c-0.025-0.067,1.005-0.524,2.69-1.208c1.685-0.682,4.025-1.593,6.622-2.569c2.597-0.976,4.957-1.832,6.675-2.427
			S313.861,362.543,313.886,362.609"/>
		<path clip-path="url(#SVGID_14_)" fill="#E8505B" d="M338.197,375.775c0.025,0.067-1.004,0.523-2.689,1.207
			c-1.686,0.685-4.026,1.595-6.622,2.569c-2.597,0.976-4.958,1.832-6.676,2.428c-1.718,0.595-2.793,0.931-2.819,0.862
			c-0.025-0.067,1.005-0.523,2.689-1.207c1.685-0.683,4.026-1.594,6.623-2.57c2.596-0.976,4.957-1.832,6.675-2.427
			C337.096,376.043,338.172,375.709,338.197,375.775"/>
		<path clip-path="url(#SVGID_14_)" fill="#E8505B" d="M411.522,324.713c0.06,0.131-7.531,3.671-16.952,7.906
			c-9.424,4.237-17.109,7.564-17.167,7.433c-0.061-0.132,7.529-3.671,16.954-7.906C403.777,327.909,411.463,324.581,411.522,324.713
			"/>
		<path clip-path="url(#SVGID_14_)" fill="#E8505B" d="M416.501,304.208c0.06,0.131-6.207,3.076-13.994,6.576
			c-7.79,3.503-14.152,6.235-14.21,6.104c-0.06-0.132,6.206-3.075,13.996-6.577C410.08,306.81,416.441,304.076,416.501,304.208"/>
		<path clip-path="url(#SVGID_14_)" fill="#E8505B" d="M418.793,281.176c0.059,0.131-6.208,3.076-13.995,6.577
			c-7.79,3.502-14.151,6.234-14.209,6.104c-0.061-0.133,6.206-3.076,13.996-6.578C412.371,283.777,418.732,281.044,418.793,281.176"
			/>
		<path clip-path="url(#SVGID_14_)" fill="#E8505B" d="M421.084,258.144c0.06,0.132-6.207,3.076-13.994,6.577
			c-7.79,3.502-14.152,6.234-14.21,6.104c-0.06-0.132,6.206-3.076,13.996-6.578C414.662,260.745,421.024,258.013,421.084,258.144"/>
		<path clip-path="url(#SVGID_14_)" fill="#E8505B" d="M423.376,235.112c0.059,0.131-6.208,3.076-13.995,6.577
			c-7.79,3.502-14.151,6.234-14.209,6.103c-0.061-0.132,6.206-3.076,13.996-6.578C416.955,237.712,423.315,234.98,423.376,235.112"
			/>
		<path clip-path="url(#SVGID_14_)" fill="#E8505B" d="M418.793,214.601c0.059,0.131-6.208,3.076-13.995,6.577
			c-7.79,3.502-14.151,6.234-14.209,6.103c-0.061-0.132,6.206-3.076,13.996-6.578C412.371,217.201,418.732,214.469,418.793,214.601"
			/>
		<path clip-path="url(#SVGID_14_)" fill="#E8505B" d="M418.793,192.521c0.059,0.131-6.208,3.076-13.995,6.577
			c-7.79,3.502-14.151,6.234-14.209,6.102c-0.061-0.131,6.206-3.075,13.996-6.577C412.371,195.121,418.732,192.389,418.793,192.521"
			/>
		<path clip-path="url(#SVGID_14_)" fill="#E8505B" d="M416.501,171.727c0.06,0.131-6.207,3.076-13.994,6.577
			c-7.79,3.502-14.152,6.234-14.21,6.103c-0.06-0.132,6.206-3.076,13.996-6.578C410.08,174.328,416.441,171.596,416.501,171.727"/>
		<path clip-path="url(#SVGID_14_)" fill="#E8505B" d="M396.747,157.243c0.06,0.131-3.733,1.964-8.472,4.094
			c-4.736,2.13-8.625,3.75-8.684,3.618c-0.06-0.131,3.732-1.963,8.471-4.093C392.8,158.732,396.688,157.112,396.747,157.243"/>
		<path clip-path="url(#SVGID_14_)" fill="#E8505B" d="M386.187,148.369c0.059,0.131-3.734,1.964-8.472,4.094
			c-4.738,2.13-8.625,3.749-8.685,3.618c-0.058-0.131,3.734-1.963,8.471-4.093C382.238,149.858,386.126,148.238,386.187,148.369"/>
		<path clip-path="url(#SVGID_14_)" fill="#E8505B" d="M287.684,195.91c0.051,0.135-5.862,2.481-13.204,5.24
			c-7.345,2.76-13.339,4.888-13.389,4.753c-0.051-0.135,5.861-2.48,13.205-5.241C281.639,197.904,287.634,195.775,287.684,195.91"/>
		<path clip-path="url(#SVGID_14_)" fill="#E8505B" d="M295.044,166.066c0.051,0.135-6.36,2.668-14.318,5.659
			c-7.96,2.991-14.452,5.306-14.503,5.171c-0.05-0.134,6.36-2.667,14.32-5.659C288.5,168.247,294.995,165.932,295.044,166.066"/>
		<path clip-path="url(#SVGID_14_)" fill="#E8505B" d="M314.267,136.531c0.051,0.135-8.079,3.314-18.156,7.101
			c-10.08,3.788-18.29,6.748-18.341,6.614c-0.05-0.135,8.078-3.314,18.158-7.102C306.005,139.357,314.216,136.396,314.267,136.531"
			/>
		<path clip-path="url(#SVGID_14_)" fill="#FFFFFF" d="M456.313,325.044c-0.005,0.009-0.146-0.041-0.419-0.144
			c-0.293-0.113-0.692-0.269-1.204-0.466c-0.532-0.197-1.224-0.341-2.02-0.569c-0.818-0.109-1.754-0.339-2.834-0.341
			c-4.269-0.276-10.668,1.279-16.855,5.915c-3.137,2.243-6.069,5.313-8.933,8.829c-2.87,3.513-5.674,7.48-8.867,11.485
			c-3.187,3.989-6.858,8.038-11.523,11.17c-4.635,3.137-10.1,5.411-15.943,6.461c-5.845,1.077-11.764,0.766-17.189-0.574
			c-5.446-1.306-10.418-3.45-15.059-5.588c-4.643-2.153-8.976-4.348-13.142-6.152c-4.147-1.837-8.172-3.165-11.919-4.057
			c-3.757-0.856-7.243-1.23-10.3-1.187c-3.061,0.034-5.672,0.497-7.751,1.055c-2.061,0.625-3.606,1.285-4.612,1.809
			c-0.486,0.256-0.865,0.457-1.143,0.604c-0.26,0.135-0.395,0.198-0.4,0.19c-0.005-0.007,0.121-0.087,0.372-0.236
			c0.273-0.159,0.645-0.375,1.122-0.65c0.995-0.557,2.536-1.25,4.605-1.91c2.086-0.592,4.716-1.089,7.802-1.151
			c3.082-0.072,6.599,0.279,10.387,1.118c3.777,0.875,7.835,2.192,12.009,4.021c4.187,1.793,8.533,3.976,13.171,6.11
			c4.636,2.122,9.585,4.243,14.978,5.528c5.372,1.32,11.201,1.621,16.978,0.558c5.771-1.036,11.168-3.279,15.748-6.371
			c4.606-3.083,8.25-7.081,11.437-11.047c3.189-3.98,6.01-7.942,8.906-11.461c2.887-3.514,5.869-6.605,9.048-8.851
			c6.274-4.643,12.771-6.163,17.085-5.82c1.091,0.018,2.034,0.265,2.858,0.393c0.799,0.244,1.49,0.406,2.019,0.62
			c0.507,0.221,0.901,0.392,1.192,0.518C456.184,324.972,456.317,325.036,456.313,325.044"/>
		<path clip-path="url(#SVGID_14_)" fill="#FFFFFF" d="M462.618,258.296c0.01,0.056-0.714,0.148-1.944,0.559
			c-1.229,0.421-2.939,1.229-4.828,2.585c-1.909,1.332-3.976,3.189-6.412,5.113c-2.449,1.912-5.354,3.746-8.593,5.287
			c-6.485,3.12-12.992,4.334-17.664,4.564c-1.17,0.097-2.234,0.062-3.164,0.083c-0.931-0.037-1.734-0.053-2.387-0.104
			c-0.604-0.062-1.1-0.111-1.501-0.152c-0.342-0.04-0.521-0.071-0.52-0.088c0.001-0.02,0.185-0.024,0.528-0.018
			c0.402,0.016,0.899,0.033,1.503,0.056c0.676,0.005,1.469,0.01,2.376,0.015c0.923-0.048,1.979-0.04,3.138-0.159
			c4.633-0.323,11.054-1.581,17.467-4.667c3.202-1.523,6.084-3.325,8.522-5.196c2.431-1.887,4.539-3.729,6.496-5.038
			c1.94-1.334,3.712-2.108,4.976-2.475c0.638-0.171,1.136-0.285,1.48-0.32C462.434,258.294,462.615,258.277,462.618,258.296"/>
		<path clip-path="url(#SVGID_14_)" fill="#FFFFFF" d="M331.994,281.465c-0.003,0.02-0.191-0.009-0.549-0.077
			c-0.354-0.076-0.888-0.155-1.554-0.345c-1.326-0.386-3.219-1.093-5.356-2.35c-2.144-1.246-4.498-3.032-7.001-5.115
			c-2.512-2.074-5.192-4.449-8.266-6.572c-3.077-2.11-6.338-3.617-9.49-4.351c-3.136-0.78-6.074-0.945-8.512-0.81
			c-2.445,0.124-4.397,0.533-5.723,0.874c-1.33,0.336-2.048,0.597-2.065,0.546c-0.006-0.017,0.168-0.094,0.507-0.225
			c0.34-0.129,0.838-0.331,1.504-0.516c1.318-0.404,3.28-0.873,5.754-1.046c2.467-0.187,5.453-0.058,8.649,0.711
			c3.207,0.717,6.554,2.246,9.671,4.385c3.111,2.151,5.79,4.547,8.278,6.635c2.481,2.099,4.789,3.897,6.882,5.167
			c2.088,1.282,3.932,2.03,5.228,2.472C331.261,281.239,332.003,281.421,331.994,281.465"/>
		<path clip-path="url(#SVGID_14_)" fill="#FFFFFF" d="M332.169,186.942c0.011,0.034-0.582,0.25-1.667,0.61
			c-0.541,0.188-1.208,0.4-1.997,0.593c-0.787,0.199-1.676,0.464-2.684,0.644c-1.002,0.209-2.102,0.428-3.298,0.577
			c-1.188,0.199-2.472,0.292-3.821,0.413c-2.702,0.167-5.687,0.173-8.803-0.106c-3.114-0.307-6.046-0.869-8.671-1.537
			c-1.303-0.37-2.547-0.701-3.678-1.118c-1.146-0.369-2.186-0.79-3.131-1.182c-0.957-0.365-1.781-0.791-2.517-1.134
			c-0.74-0.336-1.356-0.669-1.852-0.954c-0.998-0.556-1.541-0.879-1.524-0.91c0.018-0.031,0.594,0.23,1.617,0.73
			c0.508,0.256,1.134,0.561,1.881,0.87c0.744,0.316,1.574,0.715,2.533,1.056c0.947,0.368,1.987,0.765,3.13,1.114
			c1.128,0.396,2.366,0.709,3.661,1.063c2.608,0.637,5.515,1.18,8.6,1.484c3.087,0.276,6.043,0.285,8.723,0.146
			c1.339-0.108,2.613-0.184,3.795-0.362c1.188-0.13,2.284-0.327,3.283-0.512c1.006-0.155,1.895-0.393,2.685-0.565
			c0.792-0.165,1.464-0.347,2.011-0.504C331.543,187.058,332.159,186.908,332.169,186.942"/>
		<path clip-path="url(#SVGID_14_)" fill="#FFFFFF" d="M456.943,186.688c-0.011,0.015-0.156-0.056-0.426-0.205
			c-0.317-0.184-0.7-0.404-1.16-0.67c-0.495-0.305-1.107-0.663-1.856-1.014c-0.742-0.36-1.559-0.825-2.532-1.192
			c-0.479-0.2-0.98-0.408-1.502-0.624c-0.523-0.213-1.091-0.373-1.667-0.574c-1.144-0.423-2.415-0.712-3.74-1.056
			c-2.676-0.579-5.669-0.987-8.829-1.035c-3.164-0.007-6.164,0.347-8.85,0.879c-1.332,0.32-2.607,0.587-3.759,0.99
			c-0.578,0.19-1.15,0.34-1.677,0.544c-0.524,0.207-1.029,0.407-1.515,0.598c-0.978,0.349-1.803,0.801-2.551,1.147
			c-0.754,0.337-1.374,0.685-1.874,0.981c-0.464,0.257-0.851,0.471-1.172,0.649c-0.272,0.144-0.419,0.212-0.429,0.198
			c-0.011-0.015,0.118-0.113,0.372-0.286c0.309-0.202,0.681-0.444,1.126-0.736c0.486-0.324,1.097-0.7,1.844-1.065
			c0.741-0.374,1.562-0.853,2.542-1.228c0.485-0.203,0.99-0.415,1.516-0.634c0.53-0.216,1.104-0.378,1.686-0.579
			c1.159-0.425,2.444-0.712,3.79-1.048c2.713-0.565,5.751-0.939,8.954-0.931c3.201,0.049,6.232,0.476,8.935,1.089
			c1.337,0.36,2.619,0.669,3.771,1.115c0.577,0.211,1.149,0.382,1.675,0.607c0.521,0.23,1.022,0.451,1.505,0.662
			c0.971,0.393,1.785,0.885,2.519,1.272c0.742,0.378,1.344,0.765,1.825,1.098c0.441,0.299,0.808,0.548,1.113,0.756
			C456.827,186.573,456.954,186.673,456.943,186.688"/>
		<path clip-path="url(#SVGID_14_)" fill="#FFFFFF" d="M395.806,118.764c0.008,0.016-0.241,0.164-0.725,0.433
			c-0.525,0.284-1.232,0.667-2.122,1.149c-1.848,0.986-4.533,2.397-7.885,4.074c-6.702,3.315-16.119,7.839-27.256,10.66
			c-5.569,1.374-11.016,2.105-15.987,2.22c-4.971,0.114-9.455-0.339-13.13-1.126c-3.68-0.777-6.57-1.767-8.498-2.598
			c-0.98-0.376-1.694-0.777-2.197-1.004c-0.496-0.243-0.752-0.378-0.744-0.394c0.007-0.016,0.279,0.087,0.788,0.298
			c0.516,0.196,1.241,0.567,2.229,0.912c1.942,0.77,4.832,1.7,8.494,2.425c3.659,0.736,8.111,1.147,13.045,1.008
			c4.934-0.14,10.341-0.881,15.874-2.246c11.071-2.804,20.483-7.258,27.219-10.485c3.325-1.64,6.031-2.975,7.956-3.925
			c0.907-0.444,1.628-0.798,2.166-1.062C395.531,118.864,395.796,118.748,395.806,118.764"/>
		<path clip-path="url(#SVGID_14_)" fill="#E8505B" d="M195.058,292.998l33.431,1.459l-1.546,35.43l-33.432-1.46l-2.569,58.869
			l-43.97-1.92l2.57-58.868l-113.558-4.957l0.086-26.979L157.066,120.77l45.422,1.982L195.058,292.998z M80.046,287.977
			l71.041,3.103l4.688-107.38l-1.075-0.411l-3.974,7.654L80.046,287.977z"/>
		<g opacity="0.4" clip-path="url(#SVGID_14_)">
			<g>
				<defs>
					<rect id="SVGID_17_" x="35.983" y="120.77" width="192.505" height="266.526"/>
				</defs>
				<clipPath id="SVGID_18_">
					<use xlink:href="#SVGID_17_"  overflow="visible"/>
				</clipPath>
				<path clip-path="url(#SVGID_18_)" d="M195.058,292.998l33.431,1.459l-1.546,35.43l-33.432-1.46l-2.569,58.869l-43.97-1.92
					l2.57-58.868l-113.558-4.957l0.086-26.979L157.066,120.77l45.422,1.982L195.058,292.998z M80.046,287.977l71.041,3.103
					l4.688-107.38l-1.075-0.411l-3.974,7.654L80.046,287.977z"/>
			</g>
		</g>
		<path clip-path="url(#SVGID_14_)" fill="#E8505B" d="M223.016,294.219l33.432,1.459l-1.546,35.43l-33.433-1.46l-2.569,58.868
			l-43.969-1.919l2.57-58.868l-113.558-4.957l0.086-26.979L185.025,121.99l45.421,1.983L223.016,294.219z M108.004,289.197
			l71.042,3.103l4.687-107.381l-1.074-0.41l-3.974,7.654L108.004,289.197z"/>
		<path clip-path="url(#SVGID_14_)" fill="#E8505B" d="M64.594,300.921c0.015,0.032-0.371,0.246-1.082,0.605
			c-0.71,0.36-1.749,0.862-3.038,1.467c-2.578,1.209-6.167,2.822-10.17,4.514c-4.003,1.691-7.662,3.144-10.326,4.149
			c-1.332,0.503-2.414,0.898-3.168,1.157c-0.753,0.259-1.175,0.387-1.189,0.353c-0.012-0.033,0.385-0.224,1.116-0.542
			c0.832-0.35,1.871-0.79,3.106-1.31c2.729-1.142,6.304-2.634,10.259-4.287c3.939-1.685,7.502-3.208,10.221-4.371
			c1.234-0.521,2.273-0.962,3.105-1.313C64.165,301.04,64.58,300.889,64.594,300.921"/>
		<path clip-path="url(#SVGID_14_)" fill="#E8505B" d="M80.867,270.975c0.015,0.033-0.522,0.315-1.506,0.797
			c-0.986,0.48-2.42,1.154-4.203,1.967c-3.564,1.626-8.522,3.797-14.025,6.125c-5.508,2.325-10.52,4.368-14.17,5.792
			c-1.824,0.713-3.307,1.271-4.338,1.644c-1.031,0.37-1.608,0.559-1.621,0.526c-0.013-0.034,0.539-0.287,1.547-0.714
			c1.09-0.458,2.531-1.065,4.274-1.799c3.687-1.55,8.635-3.63,14.105-5.93c5.459-2.319,10.399-4.419,14.079-5.981
			c1.741-0.739,3.179-1.352,4.268-1.814C80.286,271.162,80.852,270.943,80.867,270.975"/>
		<path clip-path="url(#SVGID_14_)" fill="#E8505B" d="M100.735,244.273c0.015,0.033-0.547,0.315-1.577,0.798
			c-1.029,0.48-2.529,1.155-4.391,1.967c-3.723,1.627-8.899,3.798-14.642,6.127c-5.748,2.325-10.976,4.367-14.782,5.79
			c-1.902,0.713-3.449,1.272-4.523,1.645c-1.074,0.369-1.674,0.557-1.687,0.522c-0.012-0.033,0.564-0.286,1.616-0.714
			c1.133-0.456,2.638-1.062,4.461-1.797c3.841-1.546,9.008-3.628,14.719-5.928c5.701-2.322,10.859-4.422,14.694-5.984
			c1.821-0.741,3.323-1.353,4.455-1.814C100.131,244.46,100.721,244.24,100.735,244.273"/>
		<path clip-path="url(#SVGID_14_)" fill="#E8505B" d="M180.327,275.112c0.014,0.033-0.374,0.24-1.087,0.587
			c-0.713,0.349-1.754,0.831-3.046,1.414c-2.585,1.166-6.181,2.722-10.192,4.347c-4.012,1.624-7.677,3.01-10.345,3.971
			c-1.334,0.48-2.417,0.859-3.171,1.104c-0.754,0.248-1.177,0.368-1.189,0.336c-0.013-0.034,0.386-0.22,1.117-0.525
			c0.835-0.337,1.876-0.758,3.112-1.258c2.736-1.095,6.319-2.527,10.28-4.111c3.947-1.619,7.516-3.083,10.242-4.201
			c1.236-0.501,2.277-0.923,3.111-1.262C179.897,275.225,180.312,275.081,180.327,275.112"/>
		<path clip-path="url(#SVGID_14_)" fill="#E8505B" d="M177.093,330.051c0.015,0.033-0.36,0.24-1.05,0.586
			c-0.691,0.349-1.699,0.83-2.95,1.413c-2.503,1.165-5.988,2.721-9.875,4.345c-3.89,1.625-7.445,3.011-10.033,3.973
			c-1.294,0.481-2.346,0.86-3.078,1.105c-0.732,0.248-1.142,0.369-1.155,0.337c-0.013-0.034,0.373-0.22,1.082-0.525
			c0.813-0.339,1.822-0.76,3.017-1.259c2.657-1.097,6.127-2.528,9.966-4.112c3.822-1.617,7.279-3.08,9.927-4.199
			c1.194-0.5,2.203-0.922,3.015-1.262C176.675,330.163,177.079,330.02,177.093,330.051"/>
		<path clip-path="url(#SVGID_14_)" fill="#E8505B" d="M176.63,349.306c0.015,0.033-0.36,0.24-1.05,0.587
			c-0.691,0.348-1.699,0.83-2.95,1.413c-2.503,1.165-5.988,2.72-9.875,4.345c-3.89,1.624-7.445,3.011-10.033,3.973
			c-1.294,0.48-2.346,0.859-3.078,1.105c-0.732,0.248-1.142,0.369-1.155,0.336c-0.013-0.033,0.373-0.22,1.082-0.525
			c0.813-0.338,1.822-0.76,3.017-1.258c2.657-1.098,6.127-2.529,9.966-4.112c3.822-1.617,7.279-3.08,9.927-4.2
			c1.194-0.5,2.203-0.921,3.015-1.261C176.212,349.418,176.615,349.274,176.63,349.306"/>
		<path clip-path="url(#SVGID_14_)" fill="#E8505B" d="M176.167,368.562c0.015,0.032-0.36,0.239-1.05,0.586
			c-0.691,0.349-1.699,0.83-2.95,1.413c-2.503,1.165-5.988,2.72-9.875,4.345c-3.89,1.625-7.445,3.011-10.033,3.973
			c-1.294,0.481-2.346,0.858-3.078,1.105c-0.731,0.248-1.142,0.369-1.155,0.335c-0.013-0.032,0.373-0.218,1.082-0.524
			c0.813-0.338,1.822-0.759,3.017-1.258c2.657-1.097,6.127-2.528,9.966-4.112c3.822-1.617,7.279-3.08,9.927-4.2
			c1.194-0.499,2.203-0.921,3.015-1.261C175.75,368.674,176.152,368.529,176.167,368.562"/>
		<path clip-path="url(#SVGID_14_)" fill="#E8505B" d="M180.847,254.771c0.015,0.033-0.373,0.24-1.086,0.587
			c-0.714,0.349-1.754,0.831-3.047,1.414c-2.585,1.166-6.181,2.722-10.192,4.346c-4.012,1.625-7.677,3.01-10.344,3.972
			c-1.334,0.48-2.418,0.858-3.172,1.104c-0.754,0.247-1.176,0.368-1.189,0.336c-0.012-0.034,0.386-0.22,1.118-0.526
			c0.834-0.336,1.876-0.758,3.112-1.258c2.736-1.095,6.318-2.527,10.28-4.111c3.946-1.618,7.516-3.082,10.241-4.2
			c1.236-0.501,2.277-0.924,3.111-1.262C180.417,254.882,180.833,254.738,180.847,254.771"/>
		<path clip-path="url(#SVGID_14_)" fill="#E8505B" d="M181.367,234.429c0.015,0.033-0.373,0.24-1.086,0.587
			c-0.714,0.348-1.755,0.831-3.047,1.414c-2.585,1.166-6.181,2.721-10.192,4.345c-4.012,1.625-7.677,3.011-10.344,3.972
			c-1.334,0.481-2.418,0.858-3.172,1.105s-1.177,0.368-1.189,0.334c-0.012-0.033,0.386-0.218,1.118-0.524
			c0.834-0.337,1.876-0.759,3.112-1.259c2.736-1.094,6.318-2.526,10.28-4.11c3.946-1.619,7.516-3.083,10.241-4.201
			c1.236-0.501,2.277-0.923,3.111-1.262C180.938,234.541,181.354,234.396,181.367,234.429"/>
		<path clip-path="url(#SVGID_14_)" fill="#E8505B" d="M181.888,214.086c0.015,0.033-0.354,0.232-1.033,0.564
			c-0.679,0.332-1.67,0.795-2.9,1.353c-2.46,1.115-5.883,2.603-9.704,4.151c-3.823,1.547-7.318,2.861-9.861,3.772
			c-1.271,0.456-2.304,0.813-3.023,1.047c-0.719,0.234-1.122,0.347-1.134,0.314c-0.013-0.034,0.366-0.212,1.063-0.504
			c0.802-0.325,1.793-0.726,2.964-1.201c2.616-1.044,6.025-2.406,9.795-3.911c3.754-1.542,7.148-2.936,9.754-4.006
			c1.172-0.475,2.162-0.876,2.965-1.201C181.477,214.19,181.873,214.053,181.888,214.086"/>
		<path clip-path="url(#SVGID_14_)" fill="#E8505B" d="M184.186,195.078c0.05,0.135-2.195,1.091-5.013,2.135
			c-2.819,1.045-5.144,1.782-5.194,1.648c-0.05-0.135,2.194-1.091,5.013-2.136C181.811,195.681,184.136,194.942,184.186,195.078"/>
		<path clip-path="url(#SVGID_14_)" fill="#E8505B" d="M120.572,216.588c0.015,0.033-0.547,0.315-1.577,0.798
			c-1.029,0.48-2.529,1.155-4.391,1.967c-3.723,1.627-8.898,3.798-14.642,6.127c-5.748,2.325-10.976,4.367-14.782,5.79
			c-1.902,0.713-3.449,1.271-4.523,1.643c-1.074,0.369-1.674,0.558-1.687,0.524c-0.012-0.034,0.564-0.286,1.616-0.714
			c1.133-0.456,2.638-1.062,4.461-1.797c3.841-1.547,9.008-3.628,14.719-5.929c5.701-2.321,10.859-4.421,14.695-5.983
			c1.82-0.741,3.322-1.353,4.454-1.814C119.968,216.775,120.557,216.555,120.572,216.588"/>
		<path clip-path="url(#SVGID_14_)" fill="#E8505B" d="M140.408,188.902c0.015,0.033-0.547,0.315-1.577,0.798
			c-1.029,0.48-2.529,1.155-4.391,1.967c-3.723,1.627-8.898,3.798-14.642,6.127c-5.748,2.326-10.976,4.368-14.782,5.79
			c-1.902,0.713-3.448,1.272-4.523,1.643c-1.074,0.37-1.674,0.558-1.687,0.524c-0.012-0.034,0.564-0.286,1.616-0.713
			c1.133-0.457,2.638-1.063,4.461-1.797c3.841-1.548,9.008-3.629,14.719-5.929c5.701-2.322,10.859-4.422,14.695-5.984
			c1.82-0.741,3.322-1.353,4.454-1.814C139.804,189.09,140.393,188.87,140.408,188.902"/>
		<path clip-path="url(#SVGID_14_)" fill="#E8505B" d="M158.741,161.218c0.015,0.033-0.547,0.315-1.576,0.798
			c-1.03,0.48-2.53,1.155-4.392,1.967c-3.723,1.627-8.898,3.798-14.642,6.127c-5.748,2.325-10.976,4.367-14.782,5.79
			c-1.902,0.713-3.448,1.271-4.522,1.643c-1.075,0.37-1.675,0.558-1.688,0.524c-0.012-0.034,0.564-0.286,1.616-0.713
			c1.133-0.457,2.638-1.063,4.461-1.798c3.841-1.547,9.008-3.628,14.719-5.929c5.701-2.321,10.859-4.421,14.695-5.983
			c1.82-0.741,3.323-1.353,4.454-1.814C158.137,161.405,158.727,161.185,158.741,161.218"/>
		<path clip-path="url(#SVGID_14_)" fill="#E8505B" d="M177.816,134.599c0.015,0.033-0.547,0.315-1.577,0.798
			c-1.029,0.48-2.529,1.155-4.391,1.967c-3.723,1.627-8.898,3.798-14.642,6.127c-5.748,2.325-10.976,4.367-14.782,5.79
			c-1.902,0.713-3.448,1.271-4.523,1.643c-1.074,0.369-1.674,0.558-1.687,0.524c-0.012-0.034,0.564-0.286,1.616-0.714
			c1.133-0.456,2.638-1.062,4.461-1.797c3.841-1.547,9.008-3.628,14.719-5.929c5.701-2.321,10.859-4.421,14.695-5.983
			c1.82-0.741,3.322-1.353,4.454-1.814C177.212,134.785,177.801,134.565,177.816,134.599"/>
		<path clip-path="url(#SVGID_14_)" fill="#FFFFFF" d="M228.444,175.274c0.013,0.012-0.187,0.237-0.583,0.655
			c-0.394,0.421-0.975,1.042-1.811,1.751c-1.634,1.447-4.204,3.37-7.773,5.015c-3.556,1.638-8.152,2.928-13.358,3.047
			c-2.599,0.051-5.337-0.23-8.086-0.909c-2.757-0.653-5.482-1.767-8.177-3.051c-5.378-2.62-10.156-5.712-14.83-7.863
			c-4.64-2.2-9.222-3.287-13.094-3.417c-3.887-0.141-6.983,0.739-8.933,1.668c-0.968,0.484-1.705,0.901-2.166,1.242
			c-0.474,0.32-0.73,0.483-0.741,0.468c-0.011-0.013,0.222-0.203,0.68-0.554c0.444-0.37,1.171-0.82,2.138-1.338
			c1.946-0.998,5.086-1.95,9.032-1.855c3.931,0.085,8.584,1.151,13.286,3.351c4.723,2.146,9.518,5.23,14.854,7.829
			c2.673,1.274,5.363,2.377,8.074,3.025c2.7,0.674,5.395,0.962,7.955,0.924c5.132-0.091,9.678-1.325,13.214-2.903
			c3.55-1.585,6.129-3.442,7.793-4.833c0.851-0.68,1.451-1.275,1.868-1.67C228.205,175.462,228.431,175.262,228.444,175.274"/>
		<path clip-path="url(#SVGID_14_)" fill="#FFFFFF" d="M214.517,125.831c0.017,0.032-0.436,0.293-1.271,0.738
			c-0.829,0.455-2.067,1.042-3.625,1.7c-1.557,0.667-3.456,1.352-5.598,2.002c-2.15,0.626-4.548,1.205-7.098,1.63
			c-2.554,0.408-5.012,0.621-7.249,0.711c-2.24,0.064-4.258,0.018-5.945-0.119c-1.687-0.129-3.047-0.292-3.978-0.459
			c-0.933-0.158-1.444-0.261-1.439-0.297c0.006-0.035,0.528,0.001,1.465,0.095c0.936,0.105,2.295,0.212,3.974,0.293
			c1.68,0.09,3.683,0.097,5.903,0.007c2.219-0.115,4.653-0.342,7.185-0.745c2.529-0.422,4.908-0.981,7.048-1.577
			c2.132-0.62,4.03-1.263,5.594-1.882c1.566-0.611,2.821-1.144,3.675-1.541C214.017,125.999,214.5,125.798,214.517,125.831"/>
		<path clip-path="url(#SVGID_14_)" fill="#FFFFFF" d="M143.524,236.888c-0.03,0.022-0.344-0.343-0.9-1.011
			c-0.625-0.743-1.419-1.687-2.368-2.815c-2.024-2.352-4.914-5.528-8.374-8.754c-1.73-1.606-3.49-3.012-5.248-4.035
			c-1.753-1.031-3.494-1.651-5-1.942c-3.042-0.598-4.951,0.088-4.957-0.033c-0.005-0.017,0.108-0.062,0.327-0.132
			c0.22-0.074,0.551-0.154,0.984-0.229c0.863-0.147,2.154-0.232,3.711,0.032c1.555,0.251,3.365,0.855,5.174,1.888
			c1.814,1.025,3.617,2.448,5.362,4.069c3.484,3.248,6.345,6.478,8.304,8.9c0.981,1.211,1.737,2.219,2.245,2.927
			C143.292,236.461,143.552,236.867,143.524,236.888"/>
		<path clip-path="url(#SVGID_14_)" fill="#FFFFFF" d="M223.288,267.104c0.01,0.016-0.125,0.118-0.39,0.302
			c-0.27,0.176-0.652,0.463-1.187,0.762c-1.047,0.638-2.631,1.458-4.689,2.229c-4.074,1.561-10.295,2.692-16.926,1.338
			c-6.632-1.359-11.907-4.849-15.04-7.884c-1.588-1.519-2.723-2.895-3.435-3.893c-0.373-0.486-0.612-0.9-0.791-1.167
			c-0.173-0.273-0.256-0.42-0.241-0.431c0.037-0.025,0.433,0.523,1.193,1.475c0.756,0.954,1.923,2.28,3.525,3.746
			c3.162,2.933,8.379,6.307,14.894,7.644c6.513,1.33,12.636,0.278,16.697-1.175c2.049-0.719,3.643-1.48,4.714-2.059
			C222.684,267.416,223.264,267.065,223.288,267.104"/>
		<path clip-path="url(#SVGID_14_)" fill="#FFFFFF" d="M252.424,330.418c0,0-0.105-0.152-0.287-0.464
			c-0.189-0.329-0.453-0.789-0.795-1.383c-0.643-1.245-1.813-2.957-3.418-5.071c-0.43-0.508-0.884-1.043-1.361-1.604
			c-0.239-0.282-0.483-0.57-0.733-0.864c-0.276-0.271-0.557-0.549-0.845-0.833c-0.577-0.567-1.177-1.159-1.802-1.774
			c-0.675-0.561-1.375-1.143-2.1-1.744c-2.954-2.337-6.599-4.682-10.979-6.528c-4.372-1.831-9.471-3.199-15.046-3.494
			c-5.569-0.322-11.578,0.537-17.429,2.799c-5.848,2.306-11.497,5.777-17.475,9.138c-2.993,1.676-6.094,3.314-9.393,4.653
			c-3.292,1.338-6.799,2.365-10.449,2.744c-3.649,0.418-7.305,0.079-10.786-0.651c-3.492-0.735-6.798-1.975-9.931-3.394
			c-6.276-2.859-11.778-6.633-16.91-10.278c-5.136-3.65-9.98-7.174-14.813-9.99c-4.821-2.814-9.615-4.974-14.23-6.079
			c-4.617-1.101-8.969-1.284-12.709-0.837c-3.752,0.405-6.873,1.475-9.236,2.673c-2.398,1.165-3.954,2.56-5.028,3.445
			c-0.483,0.485-0.857,0.86-1.124,1.13c-0.256,0.253-0.397,0.374-0.397,0.374s0.114-0.146,0.358-0.41
			c0.259-0.279,0.622-0.667,1.091-1.169c1.056-0.915,2.604-2.348,5.008-3.552c2.369-1.234,5.51-2.344,9.294-2.78
			c3.771-0.479,8.162-0.32,12.828,0.767c4.672,1.096,9.506,3.253,14.363,6.065c4.867,2.814,9.733,6.335,14.872,9.972
			c5.136,3.632,10.615,7.376,16.845,10.206c3.108,1.405,6.382,2.627,9.828,3.351c3.437,0.721,7.035,1.053,10.622,0.642
			c3.59-0.373,7.049-1.383,10.31-2.707c3.267-1.324,6.351-2.951,9.338-4.62c5.968-3.344,11.643-6.824,17.549-9.137
			c1.486-0.547,2.954-1.089,4.461-1.44c0.748-0.19,1.483-0.417,2.227-0.573c0.751-0.123,1.497-0.245,2.238-0.367
			c2.964-0.486,5.892-0.515,8.703-0.402c5.63,0.315,10.767,1.718,15.164,3.585c4.405,1.883,8.063,4.266,11.018,6.64
			c0.725,0.612,1.426,1.203,2.1,1.773c0.623,0.624,1.223,1.224,1.797,1.8c0.287,0.289,0.568,0.57,0.843,0.845
			c0.248,0.299,0.491,0.591,0.729,0.876c0.472,0.571,0.922,1.114,1.349,1.629c1.59,2.145,2.735,3.88,3.351,5.146
			c0.323,0.605,0.572,1.075,0.751,1.411C252.351,330.249,252.424,330.418,252.424,330.418"/>
		<path clip-path="url(#SVGID_14_)" fill="#FFFFFF" d="M222.197,372.188c0.003,0.019-0.171,0.063-0.508,0.133
			c-0.396,0.076-0.883,0.17-1.476,0.283c-0.641,0.126-1.43,0.26-2.354,0.344c-0.924,0.093-1.972,0.247-3.142,0.27
			c-0.586,0.027-1.198,0.053-1.833,0.08c-0.638,0.023-1.302-0.011-1.99-0.016c-1.377,0.011-2.841-0.134-4.383-0.253
			c-3.074-0.338-6.433-0.937-9.869-1.918c-3.427-1.018-6.583-2.317-9.358-3.684c-1.365-0.728-2.677-1.393-3.833-2.142
			c-0.583-0.366-1.162-0.692-1.687-1.055c-0.522-0.364-1.024-0.716-1.504-1.053c-0.974-0.646-1.775-1.342-2.504-1.916
			c-0.735-0.566-1.329-1.101-1.802-1.553c-0.439-0.415-0.8-0.754-1.093-1.032c-0.246-0.239-0.369-0.371-0.356-0.385
			c0.012-0.012,0.159,0.094,0.427,0.308c0.31,0.257,0.691,0.572,1.155,0.956c0.492,0.426,1.101,0.938,1.85,1.479
			c0.742,0.549,1.553,1.218,2.534,1.841c0.483,0.326,0.988,0.666,1.512,1.018c0.527,0.352,1.108,0.666,1.691,1.021
			c1.155,0.727,2.464,1.373,3.824,2.083c2.763,1.331,5.894,2.604,9.289,3.612c3.405,0.974,6.729,1.579,9.775,1.94
			c1.528,0.131,2.978,0.29,4.343,0.298c0.683,0.015,1.341,0.061,1.975,0.047c0.631-0.016,1.239-0.03,1.821-0.046
			c1.163,0,2.207-0.129,3.128-0.192c0.922-0.056,1.71-0.158,2.354-0.255c0.597-0.073,1.089-0.136,1.488-0.186
			C222.012,372.181,222.194,372.169,222.197,372.188"/>
		<path clip-path="url(#SVGID_14_)" fill="#E8505B" d="M629.315,293.412l33.306-3.257l3.451,35.295l-33.305,3.257l5.736,58.645
			l-43.802,4.285l-5.735-58.646l-113.126,11.064l-3.71-26.726l95.349-189.091l45.25-4.426L629.315,293.412z M514.743,304.617
			l70.771-6.921l-10.461-106.973l-1.122-0.254l-2.858,8.136L514.743,304.617z"/>
		<g opacity="0.4" clip-path="url(#SVGID_14_)">
			<g>
				<defs>
					<rect id="SVGID_19_" x="472.13" y="123.814" width="193.943" height="267.822"/>
				</defs>
				<clipPath id="SVGID_20_">
					<use xlink:href="#SVGID_19_"  overflow="visible"/>
				</clipPath>
				<path clip-path="url(#SVGID_20_)" d="M629.315,293.412l33.306-3.257l3.451,35.295l-33.305,3.257l5.736,58.645l-43.802,4.285
					l-5.735-58.646l-113.126,11.064l-3.71-26.726l95.349-189.091l45.25-4.426L629.315,293.412z M514.743,304.617l70.771-6.921
					l-10.461-106.973l-1.122-0.254l-2.858,8.136L514.743,304.617z"/>
			</g>
		</g>
		<path clip-path="url(#SVGID_14_)" fill="#E8505B" d="M657.168,290.688l33.306-3.258l3.451,35.295l-33.305,3.259l5.736,58.644
			l-43.802,4.284l-5.735-58.646l-113.127,11.065l-3.709-26.726l95.349-189.091l45.25-4.425L657.168,290.688z M542.596,301.894
			l70.771-6.922L602.906,188l-1.123-0.255l-2.858,8.137L542.596,301.894z"/>
		<path clip-path="url(#SVGID_14_)" fill="#E8505B" d="M501.265,319.605c0.02,0.03-0.332,0.297-0.986,0.753
			c-0.653,0.456-1.61,1.1-2.801,1.878c-2.383,1.561-5.71,3.662-9.435,5.9c-3.726,2.238-7.144,4.189-9.64,5.561
			c-1.248,0.685-2.264,1.229-2.974,1.592c-0.709,0.361-1.109,0.547-1.127,0.516s0.35-0.275,1.026-0.693
			c0.775-0.465,1.743-1.045,2.892-1.734c2.542-1.512,5.871-3.495,9.555-5.688c3.663-2.221,6.976-4.229,9.506-5.764
			c1.147-0.691,2.114-1.271,2.888-1.738C500.856,319.785,501.244,319.576,501.265,319.605"/>
		<path clip-path="url(#SVGID_14_)" fill="#E8505B" d="M513.164,287.669c0.02,0.03-0.474,0.387-1.381,1.001
			c-0.906,0.613-2.232,1.483-3.885,2.537c-3.299,2.111-7.901,4.957-13.023,8.037c-5.125,3.077-9.801,5.805-13.214,7.728
			c-1.705,0.963-3.097,1.725-4.063,2.238c-0.97,0.512-1.514,0.779-1.532,0.747c-0.017-0.03,0.494-0.357,1.433-0.924
			c1.015-0.606,2.355-1.41,3.979-2.381c3.431-2.052,8.038-4.808,13.13-7.854c5.079-3.064,9.674-5.838,13.099-7.902
			c1.618-0.978,2.958-1.785,3.971-2.396C512.614,287.938,513.144,287.64,513.164,287.669"/>
		<path clip-path="url(#SVGID_14_)" fill="#E8505B" d="M529.079,258.438c0.02,0.03-0.498,0.39-1.448,1.013
			c-0.952,0.619-2.342,1.499-4.072,2.564c-3.457,2.134-8.276,5.012-13.634,8.125c-5.365,3.111-10.253,5.868-13.821,7.813
			c-1.783,0.972-3.236,1.742-4.247,2.262c-1.011,0.517-1.579,0.788-1.596,0.756c-0.017-0.031,0.517-0.362,1.499-0.933
			c1.057-0.612,2.463-1.423,4.164-2.407c3.586-2.072,8.408-4.859,13.739-7.94c5.316-3.101,10.129-5.904,13.706-7.99
			c1.697-0.99,3.101-1.808,4.154-2.423C528.508,258.709,529.06,258.409,529.079,258.438"/>
		<path clip-path="url(#SVGID_14_)" fill="#E8505B" d="M612.217,277.777c0.019,0.03-0.337,0.29-0.993,0.733
			c-0.657,0.446-1.62,1.07-2.818,1.83c-2.395,1.517-5.737,3.562-9.479,5.734c-3.744,2.173-7.179,4.061-9.685,5.389
			c-1.253,0.663-2.271,1.188-2.983,1.539c-0.713,0.351-1.112,0.529-1.131,0.499c-0.017-0.033,0.353-0.272,1.033-0.678
			c0.779-0.45,1.75-1.015,2.904-1.685c2.554-1.466,5.899-3.389,9.599-5.514c3.681-2.159,7.008-4.11,9.549-5.601
			c1.153-0.67,2.125-1.233,2.903-1.686C611.807,277.948,612.196,277.748,612.217,277.777"/>
		<path clip-path="url(#SVGID_14_)" fill="#E8505B" d="M616.742,332.624c0.02,0.03-0.322,0.288-0.957,0.729
			c-0.636,0.439-1.564,1.06-2.723,1.813c-2.313,1.506-5.546,3.534-9.167,5.689c-3.622,2.156-6.945,4.029-9.373,5.346
			c-1.214,0.658-2.202,1.18-2.891,1.527c-0.691,0.348-1.079,0.525-1.097,0.495c-0.019-0.032,0.339-0.271,0.997-0.672
			c0.757-0.45,1.696-1.01,2.81-1.672c2.476-1.459,5.712-3.363,9.289-5.472c3.556-2.138,6.773-4.073,9.237-5.555
			c1.111-0.662,2.052-1.222,2.809-1.672C616.345,332.794,616.723,332.595,616.742,332.624"/>
		<path clip-path="url(#SVGID_14_)" fill="#E8505B" d="M618.992,351.753c0.02,0.03-0.322,0.288-0.957,0.729
			c-0.636,0.439-1.564,1.06-2.723,1.813c-2.313,1.506-5.546,3.534-9.167,5.689c-3.622,2.156-6.945,4.029-9.373,5.346
			c-1.214,0.658-2.202,1.18-2.892,1.527c-0.69,0.348-1.079,0.525-1.096,0.495c-0.019-0.032,0.339-0.27,0.997-0.672
			c0.757-0.45,1.695-1.01,2.81-1.672c2.476-1.459,5.711-3.363,9.289-5.472c3.556-2.138,6.773-4.073,9.237-5.555
			c1.111-0.662,2.052-1.222,2.809-1.672C618.595,351.923,618.972,351.724,618.992,351.753"/>
		<path clip-path="url(#SVGID_14_)" fill="#E8505B" d="M621.242,370.882c0.02,0.03-0.322,0.288-0.957,0.729
			c-0.636,0.439-1.564,1.06-2.723,1.813c-2.313,1.506-5.546,3.534-9.167,5.689c-3.622,2.156-6.945,4.029-9.374,5.346
			c-1.213,0.658-2.201,1.18-2.891,1.527c-0.69,0.348-1.079,0.525-1.096,0.495c-0.019-0.032,0.339-0.27,0.997-0.672
			c0.757-0.45,1.695-1.01,2.81-1.672c2.476-1.459,5.711-3.363,9.289-5.472c3.556-2.138,6.773-4.073,9.237-5.555
			c1.111-0.662,2.052-1.222,2.809-1.671C620.845,371.052,621.222,370.853,621.242,370.882"/>
		<path clip-path="url(#SVGID_14_)" fill="#E8505B" d="M609.871,257.563c0.019,0.031-0.336,0.291-0.993,0.734
			c-0.657,0.445-1.62,1.07-2.818,1.829c-2.395,1.518-5.737,3.563-9.479,5.734c-3.744,2.174-7.179,4.061-9.685,5.389
			c-1.253,0.664-2.271,1.188-2.983,1.54c-0.712,0.35-1.113,0.529-1.13,0.498c-0.018-0.032,0.352-0.271,1.032-0.677
			c0.779-0.451,1.75-1.016,2.904-1.685c2.554-1.467,5.9-3.389,9.599-5.515c3.681-2.158,7.009-4.109,9.549-5.601
			c1.153-0.67,2.125-1.232,2.902-1.686C609.461,257.735,609.851,257.534,609.871,257.563"/>
		<path clip-path="url(#SVGID_14_)" fill="#E8505B" d="M607.525,237.351c0.019,0.031-0.336,0.291-0.993,0.734
			c-0.657,0.445-1.62,1.069-2.818,1.829c-2.395,1.518-5.737,3.562-9.479,5.735c-3.744,2.173-7.179,4.06-9.685,5.388
			c-1.253,0.663-2.271,1.188-2.983,1.54c-0.712,0.35-1.113,0.528-1.13,0.498c-0.018-0.032,0.352-0.271,1.032-0.678
			c0.779-0.45,1.75-1.015,2.904-1.684c2.554-1.467,5.9-3.39,9.599-5.515c3.681-2.158,7.009-4.11,9.549-5.6
			c1.153-0.67,2.125-1.234,2.902-1.686C607.115,237.522,607.505,237.321,607.525,237.351"/>
		<path clip-path="url(#SVGID_14_)" fill="#E8505B" d="M605.18,217.138c0.019,0.03-0.318,0.279-0.944,0.704
			c-0.625,0.424-1.541,1.021-2.68,1.747c-2.279,1.449-5.46,3.404-9.024,5.474c-3.568,2.07-6.843,3.862-9.232,5.122
			c-1.194,0.63-2.168,1.129-2.847,1.461c-0.678,0.333-1.061,0.502-1.079,0.471c-0.016-0.032,0.334-0.261,0.983-0.649
			c0.748-0.434,1.673-0.971,2.765-1.605c2.444-1.403,5.627-3.229,9.148-5.25c3.499-2.055,6.664-3.912,9.094-5.339
			c1.092-0.634,2.017-1.171,2.765-1.605C604.786,217.298,605.159,217.107,605.18,217.138"/>
		<path clip-path="url(#SVGID_14_)" fill="#E8505B" d="M604.781,197.995c0.067,0.126-2.021,1.389-4.663,2.819
			c-2.645,1.431-4.843,2.488-4.91,2.361c-0.069-0.126,2.018-1.388,4.663-2.819C602.513,198.926,604.713,197.869,604.781,197.995"/>
		<path clip-path="url(#SVGID_14_)" fill="#E8505B" d="M544.825,228.239c0.019,0.031-0.498,0.389-1.449,1.012
			c-0.952,0.62-2.342,1.499-4.072,2.565c-3.457,2.134-8.274,5.012-13.634,8.126c-5.364,3.11-10.252,5.867-13.821,7.811
			c-1.783,0.973-3.234,1.743-4.246,2.263c-1.012,0.516-1.58,0.787-1.596,0.756c-0.018-0.032,0.517-0.363,1.499-0.934
			c1.057-0.611,2.462-1.423,4.164-2.407c3.585-2.072,8.407-4.859,13.738-7.94c5.316-3.1,10.129-5.905,13.707-7.991
			c1.697-0.99,3.1-1.807,4.154-2.422C544.253,228.509,544.805,228.208,544.825,228.239"/>
		<path clip-path="url(#SVGID_14_)" fill="#E8505B" d="M560.57,198.039c0.019,0.03-0.498,0.389-1.449,1.012
			c-0.952,0.62-2.342,1.499-4.072,2.565c-3.457,2.134-8.275,5.011-13.634,8.125c-5.364,3.111-10.252,5.868-13.821,7.811
			c-1.783,0.974-3.234,1.744-4.246,2.263c-1.011,0.517-1.58,0.788-1.596,0.756c-0.018-0.031,0.517-0.362,1.499-0.933
			c1.057-0.612,2.462-1.423,4.164-2.407c3.586-2.072,8.408-4.859,13.739-7.94c5.316-3.1,10.129-5.905,13.705-7.991
			c1.698-0.99,3.101-1.807,4.155-2.422C559.998,198.309,560.55,198.008,560.57,198.039"/>
		<path clip-path="url(#SVGID_14_)" fill="#E8505B" d="M574.827,168.05c0.019,0.031-0.498,0.389-1.449,1.012
			c-0.952,0.62-2.342,1.499-4.072,2.565c-3.457,2.134-8.274,5.012-13.634,8.125c-5.364,3.111-10.252,5.868-13.821,7.812
			c-1.783,0.973-3.234,1.743-4.246,2.263c-1.012,0.516-1.58,0.787-1.596,0.756c-0.018-0.032,0.517-0.363,1.499-0.934
			c1.057-0.611,2.462-1.423,4.164-2.407c3.585-2.072,8.408-4.859,13.738-7.94c5.317-3.1,10.129-5.905,13.707-7.991
			c1.697-0.99,3.1-1.807,4.154-2.422C574.255,168.32,574.807,168.02,574.827,168.05"/>
		<path clip-path="url(#SVGID_14_)" fill="#E8505B" d="M589.969,139.013c0.019,0.03-0.498,0.389-1.449,1.012
			c-0.952,0.62-2.342,1.499-4.072,2.565c-3.457,2.134-8.275,5.011-13.634,8.125c-5.364,3.111-10.252,5.868-13.821,7.811
			c-1.783,0.973-3.234,1.744-4.246,2.263c-1.012,0.517-1.58,0.788-1.596,0.756c-0.018-0.031,0.517-0.362,1.499-0.933
			c1.057-0.612,2.462-1.423,4.164-2.407c3.585-2.072,8.407-4.859,13.738-7.941c5.316-3.099,10.129-5.904,13.707-7.99
			c1.697-0.99,3.1-1.807,4.154-2.422C589.396,139.283,589.948,138.982,589.969,139.013"/>
		<path clip-path="url(#SVGID_14_)" fill="#FFFFFF" d="M645.814,172.164c0.015,0.01-0.153,0.261-0.486,0.731
			c-0.33,0.472-0.819,1.169-1.546,1.988c-1.415,1.663-3.689,3.927-6.991,6.058c-3.29,2.122-7.659,4.046-12.796,4.895
			c-2.566,0.417-5.317,0.524-8.134,0.238c-2.821-0.259-5.676-0.978-8.525-1.87c-5.693-1.838-10.857-4.227-15.788-5.699
			c-4.902-1.526-9.592-1.958-13.444-1.543c-3.868,0.409-6.811,1.715-8.609,2.91c-0.891,0.614-1.563,1.131-1.97,1.533
			c-0.426,0.384-0.654,0.581-0.668,0.569c-0.014-0.013,0.19-0.234,0.596-0.645c0.387-0.43,1.043-0.977,1.928-1.625
			c1.787-1.262,4.76-2.647,8.681-3.107c3.904-0.469,8.661-0.069,13.627,1.448c4.978,1.461,10.158,3.841,15.808,5.662
			c2.825,0.886,5.643,1.599,8.419,1.86c2.768,0.287,5.476,0.193,8.005-0.205c5.068-0.811,9.396-2.672,12.674-4.732
			c3.292-2.068,5.584-4.27,7.036-5.881c0.748-0.793,1.258-1.467,1.615-1.917C645.604,172.384,645.799,172.153,645.814,172.164"/>
		<path clip-path="url(#SVGID_14_)" fill="#FFFFFF" d="M625.071,125.17c0.021,0.029-0.392,0.351-1.153,0.91
			c-0.758,0.566-1.902,1.321-3.352,2.193c-1.446,0.878-3.23,1.823-5.262,2.769c-2.04,0.922-4.332,1.832-6.797,2.611
			c-2.472,0.763-4.874,1.321-7.078,1.724c-2.208,0.378-4.212,0.617-5.9,0.718c-1.688,0.11-3.06,0.139-4.004,0.105
			c-0.945-0.025-1.468-0.055-1.467-0.091c0-0.036,0.523-0.074,1.463-0.112c0.942-0.027,2.304-0.113,3.978-0.268
			c1.675-0.148,3.66-0.423,5.844-0.824c2.181-0.426,4.56-0.992,7.009-1.749c2.445-0.773,4.723-1.661,6.756-2.551
			c2.025-0.914,3.813-1.818,5.274-2.651c1.464-0.825,2.632-1.53,3.422-2.043C624.599,125.406,625.05,125.141,625.071,125.17"/>
		<path clip-path="url(#SVGID_14_)" fill="#FFFFFF" d="M570.404,245.109c-0.026,0.026-0.39-0.291-1.033-0.875
			c-0.725-0.647-1.644-1.47-2.74-2.453c-2.334-2.045-5.643-4.783-9.523-7.489c-1.938-1.348-3.879-2.492-5.763-3.257
			c-1.879-0.774-3.692-1.144-5.223-1.219c-3.097-0.165-4.891,0.782-4.912,0.663c-0.008-0.016,0.097-0.077,0.305-0.177
			c0.206-0.103,0.524-0.229,0.941-0.364c0.834-0.267,2.1-0.532,3.679-0.491c1.575,0.03,3.452,0.373,5.388,1.142
			c1.941,0.76,3.927,1.915,5.883,3.275c3.904,2.724,7.191,5.521,9.472,7.643c1.141,1.061,2.033,1.953,2.634,2.582
			C570.114,244.718,570.428,245.085,570.404,245.109"/>
		<path clip-path="url(#SVGID_14_)" fill="#FFFFFF" d="M653.625,263.806c0.012,0.014-0.106,0.135-0.345,0.354
			c-0.243,0.211-0.581,0.549-1.067,0.921c-0.946,0.779-2.4,1.813-4.328,2.867c-3.815,2.117-9.815,4.113-16.57,3.706
			c-6.757-0.415-12.47-3.126-16-5.692c-1.786-1.279-3.103-2.482-3.948-3.37c-0.438-0.429-0.732-0.805-0.947-1.045
			c-0.209-0.245-0.313-0.38-0.299-0.391c0.032-0.031,0.503,0.457,1.389,1.292c0.883,0.837,2.224,1.985,4.016,3.213
			c3.544,2.458,9.185,5.064,15.822,5.473c6.635,0.401,12.549-1.502,16.366-3.512c1.928-1.001,3.398-1.978,4.377-2.702
			C653.069,264.199,653.596,263.772,653.625,263.806"/>
		<path clip-path="url(#SVGID_14_)" fill="#FFFFFF" d="M691.376,322.393c0,0-0.125-0.137-0.35-0.419
			c-0.233-0.299-0.56-0.717-0.98-1.258c-0.813-1.142-2.211-2.673-4.1-4.54c-0.497-0.44-1.021-0.907-1.571-1.396
			c-0.276-0.245-0.56-0.495-0.849-0.752c-0.311-0.23-0.629-0.466-0.954-0.705c-0.649-0.482-1.328-0.983-2.033-1.504
			c-0.746-0.461-1.521-0.938-2.324-1.434c-3.253-1.896-7.192-3.706-11.787-4.919c-4.587-1.197-9.827-1.835-15.389-1.342
			c-5.559,0.464-11.388,2.16-16.861,5.222c-5.466,3.105-10.571,7.337-16.018,11.504c-2.727,2.08-5.565,4.141-8.644,5.93
			c-3.072,1.788-6.4,3.299-9.96,4.187c-3.554,0.926-7.221,1.106-10.771,0.871c-3.56-0.237-7.008-0.998-10.308-1.963
			c-6.618-1.947-12.595-4.911-18.188-7.797c-5.599-2.894-10.891-5.7-16.07-7.81c-5.169-2.106-10.219-3.57-14.945-4.017
			c-4.725-0.439-9.059-0.01-12.699,0.959c-3.657,0.93-6.597,2.427-8.768,3.945c-2.21,1.49-3.555,3.092-4.494,4.12
			c-0.41,0.548-0.727,0.972-0.955,1.274c-0.217,0.286-0.339,0.426-0.339,0.426s0.092-0.158,0.295-0.456
			c0.219-0.312,0.524-0.748,0.916-1.312c0.917-1.053,2.249-2.689,4.459-4.219c2.172-1.557,5.126-3.096,8.812-4.061
			c3.666-1.005,8.035-1.465,12.809-1.045c4.779,0.428,9.869,1.883,15.073,3.985c5.214,2.102,10.526,4.901,16.127,7.781
			c5.596,2.872,11.547,5.81,18.112,7.734c3.275,0.953,6.688,1.703,10.201,1.937c3.504,0.228,7.113,0.051,10.607-0.861
			c3.502-0.874,6.784-2.36,9.826-4.129c3.049-1.771,5.873-3.815,8.597-5.887c5.438-4.151,10.567-8.395,16.088-11.517
			c1.396-0.748,2.772-1.492,4.214-2.052c0.714-0.294,1.409-0.621,2.125-0.88c0.728-0.229,1.448-0.455,2.163-0.678
			c2.868-0.901,5.763-1.34,8.561-1.624c5.618-0.479,10.901,0.187,15.519,1.417c4.625,1.244,8.582,3.09,11.841,5.023
			c0.806,0.504,1.581,0.991,2.329,1.46c0.705,0.53,1.383,1.041,2.033,1.53c0.325,0.245,0.642,0.484,0.953,0.718
			c0.288,0.261,0.568,0.517,0.844,0.765c0.549,0.498,1.071,0.974,1.566,1.424c1.875,1.897,3.253,3.456,4.041,4.622
			c0.403,0.554,0.718,0.983,0.94,1.291C691.279,322.236,691.376,322.393,691.376,322.393"/>
		<path clip-path="url(#SVGID_14_)" fill="#FFFFFF" d="M667.324,367.998c0.006,0.018-0.16,0.086-0.483,0.203
			c-0.382,0.131-0.852,0.292-1.422,0.487c-0.617,0.216-1.379,0.458-2.283,0.671c-0.901,0.222-1.917,0.523-3.073,0.71
			c-0.575,0.109-1.177,0.221-1.803,0.338c-0.628,0.112-1.291,0.17-1.972,0.263c-1.362,0.204-2.831,0.268-4.375,0.366
			c-3.092,0.1-6.501-0.021-10.041-0.51c-3.536-0.526-6.844-1.369-9.783-2.332c-1.454-0.528-2.847-1.002-4.096-1.581
			c-0.629-0.279-1.248-0.521-1.819-0.806c-0.568-0.288-1.114-0.565-1.637-0.83c-1.057-0.504-1.946-1.08-2.749-1.545
			c-0.809-0.458-1.47-0.905-2.002-1.285c-0.492-0.348-0.899-0.634-1.229-0.868c-0.276-0.202-0.417-0.314-0.407-0.331
			c0.012-0.014,0.172,0.071,0.468,0.245c0.343,0.21,0.766,0.469,1.277,0.784c0.548,0.352,1.223,0.771,2.039,1.204
			c0.813,0.438,1.709,0.987,2.77,1.467c0.523,0.254,1.071,0.519,1.64,0.794c0.571,0.274,1.19,0.504,1.817,0.774
			c1.247,0.557,2.634,1.011,4.079,1.522c2.923,0.93,6.201,1.75,9.705,2.272c3.508,0.482,6.885,0.616,9.949,0.546
			c1.532-0.085,2.99-0.131,4.344-0.317c0.677-0.082,1.336-0.129,1.961-0.229c0.623-0.105,1.223-0.206,1.797-0.304
			c1.15-0.162,2.167-0.437,3.068-0.63c0.906-0.184,1.673-0.396,2.295-0.583c0.581-0.156,1.061-0.287,1.447-0.392
			C667.14,368.018,667.318,367.98,667.324,367.998"/>
		<path clip-path="url(#SVGID_14_)" fill="#455A64" d="M459.078,221.536l-7.004-1.094l-43.373-13.989l-25.365-7.33
			c-5.928-2.047-13.612-2.755-21.948,1.494c-11.982,6.107-45.055,36.884-45.055,36.884l23.811,24.549l-11.216,49.679
			c12.552,35.685,37.124,39.773,37.124,39.773s16.144,1.447,35.2-5.82c22.817-8.703,46.771-29.093,49.771-37.862
			c1.802-5.264,3.285-16.316,4.469-28.808l36.124-14.726l9.787-49.969L459.078,221.536z"/>
		<path clip-path="url(#SVGID_14_)" fill="#263238" d="M406.321,309.973c0.011,0.016-0.11,0.12-0.352,0.311
			c-0.246,0.182-0.589,0.479-1.08,0.793c-0.957,0.663-2.42,1.519-4.342,2.333c-3.8,1.641-9.727,2.873-16.023,1.505
			c-6.294-1.381-11.167-4.973-13.938-8.048c-1.409-1.541-2.381-2.932-2.974-3.933c-0.315-0.488-0.504-0.901-0.651-1.17
			c-0.14-0.271-0.205-0.42-0.19-0.428c0.04-0.021,0.368,0.53,1.012,1.489c0.64,0.96,1.648,2.299,3.071,3.788
			c2.802,2.971,7.617,6.439,13.781,7.793c6.165,1.338,11.988,0.193,15.773-1.338c1.915-0.761,3.39-1.559,4.372-2.163
			C405.765,310.302,406.295,309.938,406.321,309.973"/>
		<path clip-path="url(#SVGID_14_)" fill="#263238" d="M392.603,208.513c0.009-0.001,0.034,0.079,0.077,0.238
			c0.048,0.189,0.106,0.422,0.178,0.708c0.151,0.623,0.359,1.547,0.613,2.739c0.481,2.387,1.202,5.858,1.43,10.232
			c0.09,2.183,0.049,4.599-0.41,7.144c-0.456,2.538-1.357,5.2-2.85,7.704c-1.505,2.499-3.583,4.776-5.932,6.869
			c-2.351,2.098-4.953,4.048-7.6,6.059c-5.634,4.236-11.123,8.065-16.028,11.541c-4.913,3.467-9.234,6.597-12.694,9.215
			l-0.111,0.084l-0.105-0.085c-3.091-2.504-5.434-4.663-6.945-6.25c-0.753-0.796-1.291-1.453-1.626-1.919
			c-0.173-0.228-0.275-0.425-0.354-0.547c-0.075-0.126-0.11-0.192-0.102-0.196c0.019-0.012,0.185,0.236,0.535,0.685
			c0.357,0.441,0.914,1.072,1.684,1.844c1.544,1.537,3.918,3.651,7.026,6.107l-0.216-0.001c3.433-2.662,7.735-5.832,12.632-9.323
			c4.89-3.501,10.366-7.342,15.99-11.57c2.645-2.008,5.244-3.953,7.576-6.024c2.328-2.067,4.377-4.299,5.859-6.737
			c1.471-2.441,2.367-5.039,2.835-7.533c0.47-2.499,0.533-4.886,0.467-7.051c-0.178-4.339-0.841-7.814-1.26-10.208
			c-0.22-1.164-0.393-2.084-0.519-2.756c-0.05-0.291-0.092-0.527-0.126-0.719C392.603,208.599,392.593,208.515,392.603,208.513"/>
		<path clip-path="url(#SVGID_14_)" fill="#263238" d="M580.926,231.027c10.157-8.705,13.593-24.372,8.008-36.527
			c-4.77-0.493-9.537-0.984-14.306-1.476c7.262-3.815,11.639-12.477,10.401-20.585c-7.713,8.321-21.059,10.779-31.229,5.75
			c-6.684-3.304-12.099-9.452-19.439-10.742c-6.663-1.17-13.213,1.954-19.586,4.221c-6.372,2.267-14.105,3.515-19.384-0.713
			c-4.187-3.352-5.483-9.225-5.211-14.581c0.271-5.355,1.819-10.579,2.15-15.931c0.651-10.505-3.9-21.081-11.586-28.218
			c-2.406-7.624-8.184-14.19-15.567-17.307c-8.942-3.776-19.87-2.349-27.544,3.594c-3.129,2.423-5.771,5.545-9.318,7.299
			c-4.006,1.981-8.669,1.979-13.008,3.048c-4.339,1.07-8.894,3.942-9.359,8.387l-1.746,9.111c-0.294,0.652-0.603,1.297-0.958,1.92
			c-3.687,6.466-11.227,10.718-12.874,17.978c-0.923,4.07,0.224,8.476-1.148,12.418c-1.808,5.187-7.408,8.106-10.018,12.939
			c-3.583,6.638-1.15,18.264,4.576,23.171c5.728,4.909,17.544,10.101,24.921,11.669c2-7.669,3.768-15.867,5.484-24.26
			c3.009,2.887,6.162,5.643,9.301,8.368c8.218,7.136,16.605,14.391,22.305,23.664c10.831,17.623,11.015,40.979,24.649,56.534
			c2.673,3.051,5.918,5.766,9.799,6.941c3.882,1.177,8.482,0.555,11.354-2.31c3.388-3.379,3.824-9.077,7.573-12.05
			c4.983-3.95,12.263-0.798,17.618,2.628c3.877,2.48,7.753,5.104,12.151,6.463c4.396,1.359,9.505,1.271,13.245-1.412
			c3.738-2.683,5.382-8.397,2.684-12.128c-1.079-1.491-2.691-2.532-3.761-4.03s-1.38-3.868,0.085-4.983
			c1.617-1.232,3.883-0.043,5.634,0.987c8.549,5.031,19.381,5.986,28.678,2.529c9.298-3.458,16.872-11.259,20.057-20.653
			C590.644,233.497,585.529,232.897,580.926,231.027"/>
		<path clip-path="url(#SVGID_14_)" fill="#263238" d="M572.021,152.547c0,0,0.484,0.334,1.294,1.106
			c0.791,0.78,1.955,1.992,2.944,3.891c0.484,0.949,0.903,2.078,1.101,3.369c0.183,1.285,0.112,2.763-0.485,4.181
			c-0.578,1.411-1.592,2.794-3.076,3.73c-0.735,0.464-1.595,0.805-2.521,0.908c-0.926,0.109-1.898-0.043-2.798-0.407
			c-3.712-1.512-5.574-5.801-9.59-7.713c-3.91-2.069-8.91-2.211-13.715-1.111c-4.857,1.112-9.483,3.712-14.216,6.368
			c-4.722,2.644-9.761,5.507-15.551,6.501c-2.864,0.525-5.81,0.557-8.602-0.059c-1.39-0.326-2.73-0.82-3.977-1.478
			c-1.245-0.668-2.36-1.53-3.358-2.487c-1.979-1.947-3.364-4.35-4.305-6.816c-0.949-2.475-1.475-5.025-1.765-7.524
			c-0.53-5.022-0.11-9.792-0.063-14.23c0.092-4.435-0.172-8.595-1.213-12.218c-0.494-1.814-1.159-3.487-1.907-5.008
			c-0.735-1.527-1.561-2.904-2.425-4.126c-1.711-2.458-3.52-4.326-5.115-5.703c-1.591-1.391-2.98-2.271-3.906-2.884
			c-0.463-0.274-0.823-0.488-1.091-0.645c-0.243-0.148-0.366-0.228-0.362-0.235c0.004-0.008,0.136,0.055,0.389,0.188
			c0.273,0.147,0.644,0.346,1.118,0.601c0.947,0.587,2.363,1.445,3.985,2.821c1.626,1.363,3.472,3.225,5.222,5.69
			c0.883,1.225,1.727,2.609,2.482,4.147c0.769,1.532,1.452,3.22,1.966,5.054c1.078,3.666,1.363,7.874,1.29,12.324
			c-0.031,4.453-0.431,9.219,0.107,14.169c0.292,2.467,0.818,4.978,1.751,7.4c0.927,2.415,2.284,4.751,4.2,6.63
			c0.965,0.924,2.043,1.755,3.244,2.399c1.204,0.633,2.5,1.111,3.848,1.425c2.707,0.596,5.584,0.568,8.396,0.052
			c5.681-0.973,10.663-3.791,15.393-6.433c4.736-2.649,9.402-5.268,14.357-6.391c2.46-0.543,4.936-0.812,7.328-0.619
			c1.198,0.059,2.362,0.298,3.494,0.565c1.114,0.336,2.213,0.696,3.2,1.25c4.146,2.033,6.015,6.339,9.527,7.755
			c1.708,0.743,3.613,0.46,5.008-0.441c1.418-0.88,2.413-2.205,2.98-3.56c0.591-1.364,0.672-2.778,0.509-4.036
			c-0.178-1.26-0.573-2.371-1.035-3.312c-0.947-1.883-2.076-3.109-2.838-3.907c-0.389-0.397-0.698-0.689-0.909-0.879
			C572.121,152.656,572.015,152.554,572.021,152.547"/>
		<path clip-path="url(#SVGID_14_)" fill="#263238" d="M408.554,210.271c0,0-0.037-0.153-0.084-0.452
			c-0.048-0.299-0.092-0.748-0.267-1.312c-0.296-1.131-0.984-2.773-2.457-4.461c-1.488-1.658-3.712-3.348-6.631-4.608
			c-2.9-1.325-6.493-1.975-10.438-2.716c-3.91-0.769-8.403-1.582-12.424-4.265c-3.954-2.667-7.113-7.211-7.925-12.564
			c-0.815-5.319,0.9-11.3,4.985-15.548c4.137-4.248,9.99-6.352,14.772-10.088c1.176-0.958,2.251-2.015,3.147-3.204
			c0.84-1.221,1.529-2.541,1.919-3.956c0.795-2.839,0.728-5.811,1-8.701c0.133-1.447,0.348-2.893,0.8-4.271
			c0.44-1.381,1.171-2.656,2.106-3.735c1.942-2.132,4.604-3.255,7.153-3.983c2.57-0.746,5.123-1.212,7.539-1.878
			c2.409-0.669,4.682-1.571,6.583-2.945c1.932-1.325,3.532-2.956,4.939-4.619c1.409-1.667,2.607-3.395,3.722-5.062
			c2.209-3.346,4.101-6.473,6.114-8.971c1.976-2.52,3.989-4.453,5.834-5.757c1.835-1.323,3.473-2.017,4.603-2.369
			c1.132-0.361,1.752-0.441,1.752-0.441c0.011,0.036-0.605,0.15-1.718,0.541c-1.111,0.381-2.719,1.098-4.519,2.433
			c-1.81,1.316-3.78,3.251-5.725,5.772c-1.978,2.499-3.837,5.622-6.033,8.995c-1.108,1.68-2.307,3.425-3.723,5.117
			c-1.414,1.688-3.033,3.353-5,4.716c-1.938,1.411-4.275,2.35-6.707,3.031c-2.438,0.68-4.993,1.154-7.525,1.897
			c-2.52,0.725-5.079,1.828-6.919,3.854c-0.886,1.029-1.577,2.234-1.997,3.562c-0.434,1.322-0.643,2.732-0.772,4.16
			c-0.268,2.854-0.19,5.85-1.009,8.795c-0.405,1.47-1.122,2.853-1.997,4.122c-0.93,1.235-2.04,2.324-3.244,3.304
			c-2.442,1.915-5.125,3.373-7.688,4.886c-2.564,1.507-5.043,3.107-7.042,5.15c-3.973,4.117-5.659,9.95-4.877,15.122
			c0.775,5.209,3.845,9.662,7.692,12.278c3.908,2.634,8.348,3.471,12.25,4.26c3.935,0.763,7.561,1.445,10.488,2.811
			c2.941,1.301,5.178,3.037,6.666,4.742c1.47,1.734,2.139,3.417,2.405,4.568c0.158,0.575,0.187,1.029,0.217,1.332
			C408.552,210.116,408.554,210.271,408.554,210.271"/>
		<path clip-path="url(#SVGID_14_)" fill="#455A64" d="M488.396,120.5c-0.014,0.034-0.285-0.037-0.771-0.195
			c-0.486-0.153-1.171-0.426-1.999-0.808c-1.655-0.759-3.849-2.049-5.968-3.867c-2.115-1.825-3.718-3.802-4.716-5.325
			c-0.501-0.762-0.873-1.399-1.097-1.856c-0.229-0.455-0.34-0.714-0.308-0.732c0.075-0.042,0.64,0.927,1.706,2.376
			c1.062,1.451,2.678,3.351,4.754,5.142c2.081,1.785,4.2,3.098,5.793,3.932C487.382,120.005,488.425,120.419,488.396,120.5"/>
		<path clip-path="url(#SVGID_14_)" fill="#455A64" d="M521.636,188.706c-0.016,0.046-0.627-0.154-1.759-0.399
			c-1.13-0.248-2.787-0.504-4.852-0.595c-2.067-0.091-4.532,0.005-7.268,0.206c-2.735,0.194-5.757,0.473-8.947,0.403
			c-3.187-0.078-6.252-0.565-8.826-1.659c-2.569-1.092-4.584-2.699-5.92-4.324c-1.34-1.633-2.012-3.248-2.277-4.387
			c-0.126-0.575-0.201-1.022-0.209-1.332c-0.022-0.307-0.026-0.468-0.008-0.47c0.061-0.007,0.089,0.642,0.414,1.748
			c0.318,1.101,1.024,2.645,2.361,4.204c1.335,1.55,3.317,3.082,5.823,4.118c2.507,1.038,5.511,1.505,8.654,1.581
			c3.151,0.07,6.159-0.193,8.903-0.361c2.744-0.175,5.232-0.234,7.317-0.095c2.085,0.139,3.757,0.454,4.882,0.766
			c0.563,0.159,0.993,0.294,1.279,0.408C521.493,188.625,521.642,188.689,521.636,188.706"/>
		<path clip-path="url(#SVGID_14_)" fill="#455A64" d="M580.573,234.18c0.003,0.008-0.096,0.053-0.29,0.132
			c-0.196,0.08-0.486,0.205-0.895,0.285c-0.795,0.189-2.061,0.288-3.58-0.161c-1.503-0.458-3.238-1.423-4.799-3.034
			c-1.599-1.591-2.785-3.901-3.854-6.468c-1.095-2.561-2.007-5.507-3.791-8.223c-0.835-1.392-1.97-2.644-3.176-3.874
			c-1.279-1.156-2.661-2.288-4.241-3.208c-6.28-3.785-14.528-5.336-22.951-4.843c-8.467,0.444-16.436,2.104-23.806,2.619
			c-7.356,0.661-14.12-0.153-19.404-2.005c-5.317-1.819-9.038-4.658-11.123-6.969c-0.555-0.554-0.964-1.116-1.331-1.593
			c-0.381-0.467-0.657-0.894-0.865-1.25c-0.202-0.331-0.362-0.594-0.486-0.798c-0.105-0.182-0.156-0.277-0.148-0.281
			c0.008-0.004,0.074,0.082,0.195,0.253c0.135,0.196,0.309,0.45,0.526,0.768c0.221,0.345,0.508,0.76,0.901,1.213
			c0.376,0.464,0.795,1.011,1.354,1.549c2.113,2.247,5.818,5.003,11.096,6.76c5.253,1.787,11.932,2.557,19.25,1.875
			c7.328-0.537,15.288-2.212,23.814-2.662c8.495-0.495,16.851,1.08,23.228,4.954c1.604,0.942,3.01,2.102,4.31,3.287
			c1.226,1.261,2.376,2.547,3.221,3.973c1.809,2.791,2.7,5.761,3.768,8.315c1.045,2.563,2.184,4.836,3.725,6.407
			c1.507,1.594,3.19,2.564,4.649,3.041c1.474,0.468,2.709,0.406,3.499,0.252C580.169,234.346,580.558,234.139,580.573,234.18"/>
		<path clip-path="url(#SVGID_14_)" fill="#FFBE9D" d="M423.287,120.494c-3.881-0.099-7.19,2.787-7.621,6.644l-8.088,84.213
			c-1.398,11.842,14.09,37.229,26.779,38.629c12.817,1.414,14.069-4.796,15.734-16.016c2.783-18.747,3.705-25.801,3.698-25.693
			c0,0,16.503-0.554,22.624-21.183c3.044-10.26,4.779-27.51,5.744-41.67c0.869-12.745-5.464-29.357-18.233-29.684L423.287,120.494z"
			/>
		<path clip-path="url(#SVGID_14_)" fill="#263238" d="M476.583,156.59c-0.139,1.434-1.466,2.5-2.966,2.383
			c-1.496-0.116-2.601-1.369-2.465-2.803c0.139-1.434,1.466-2.5,2.962-2.385C475.614,153.901,476.721,155.156,476.583,156.59"/>
		<path clip-path="url(#SVGID_14_)" fill="#263238" d="M477.727,151.142c-0.313,0.378-2.479-1.003-5.404-0.792
			c-2.925,0.169-4.967,1.823-5.311,1.487c-0.167-0.148,0.133-0.812,1.021-1.557c0.873-0.742,2.396-1.511,4.22-1.629
			c1.823-0.117,3.403,0.447,4.331,1.073C477.532,150.351,477.881,150.972,477.727,151.142"/>
		<path clip-path="url(#SVGID_14_)" fill="#263238" d="M450.853,158.112c-0.35,0.345-2.372-1.241-5.303-1.315
			c-2.927-0.118-5.122,1.33-5.429,0.962c-0.152-0.164,0.207-0.795,1.167-1.451c0.941-0.653,2.532-1.269,4.358-1.21
			c1.826,0.062,3.343,0.778,4.207,1.491C450.733,157.306,451.022,157.957,450.853,158.112"/>
		<path clip-path="url(#SVGID_14_)" fill="#263238" d="M456.313,173.597c0.008-0.167,1.855-0.241,4.835-0.23
			c0.753,0.021,1.476-0.034,1.667-0.524c0.246-0.514,0.041-1.355-0.206-2.267c-0.461-1.888-0.943-3.868-1.451-5.942
			c-1.989-8.452-3.324-15.362-2.984-15.439c0.341-0.077,2.231,6.711,4.22,15.162c0.473,2.082,0.926,4.067,1.354,5.965
			c0.17,0.88,0.527,1.902,0.002,2.965c-0.273,0.528-0.872,0.859-1.365,0.925c-0.495,0.082-0.914,0.035-1.283,0.009
			C458.133,173.992,456.302,173.764,456.313,173.597"/>
		<path clip-path="url(#SVGID_14_)" fill="#EB996E" d="M453.79,208.271c0,0-14.295-0.953-27.228-11.244
			c0,0,5.21,15.425,26.56,16.231L453.79,208.271z"/>
		<path clip-path="url(#SVGID_14_)" fill="#263238" d="M451.262,153.1c-0.463,0.71-3.229-0.325-6.674-0.706
			c-3.438-0.449-6.368-0.1-6.65-0.9c-0.12-0.38,0.521-1,1.79-1.497c1.259-0.497,3.153-0.806,5.217-0.559
			c2.063,0.25,3.83,1.001,4.934,1.783C450.991,152.003,451.469,152.759,451.262,153.1"/>
		<path clip-path="url(#SVGID_14_)" fill="#263238" d="M477.293,147.212c-0.48,0.691-2.534,0.104-4.962,0.196
			c-2.433,0.006-4.46,0.676-4.968,0.004c-0.224-0.327,0.065-1.01,0.932-1.685c0.852-0.673,2.306-1.262,3.976-1.297
			c1.669-0.032,3.146,0.497,4.024,1.135C477.188,146.205,477.504,146.875,477.293,147.212"/>
		<path clip-path="url(#SVGID_14_)" fill="#EB996E" d="M449.233,178.906c1.325-0.896,3.009-1.248,4.583-0.957
			c0.805,0.148,1.609,0.481,2.135,1.108c0.688,0.824,0.771,1.985,0.745,3.057c-0.018,0.644-0.065,1.297-0.285,1.901
			c-0.221,0.605-0.636,1.163-1.222,1.431c-0.604,0.274-1.303,0.213-1.956,0.104c-1.09-0.183-2.181-0.493-3.091-1.118
			c-0.909-0.625-1.623-1.603-1.725-2.702c-0.103-1.1,0.509-2.284,1.547-2.661"/>
		<path clip-path="url(#SVGID_14_)" fill="#263238" d="M457.124,185.333c-0.216,0.075-0.6-0.561-1.304-1.437
			c-0.695-0.878-1.769-1.987-3.208-2.808c-1.439-0.82-2.941-1.178-4.052-1.33c-1.113-0.158-1.854-0.164-1.899-0.388
			c-0.046-0.196,0.652-0.591,1.92-0.716c1.249-0.132,3.082,0.094,4.806,1.076c1.723,0.982,2.851,2.444,3.375,3.586
			C457.299,184.469,457.314,185.272,457.124,185.333"/>
		<path clip-path="url(#SVGID_14_)" fill="#263238" d="M406.454,205.556c6.942-1.381,12.303-7.353,14.692-14.017
			c2.393-6.663,2.268-13.952,1.631-21.003c-0.082-0.909-0.227-1.923-0.95-2.48c-1.053-0.81-2.561-0.15-3.693,0.541
			c-4.379,2.668-8.583,5.625-12.576,8.843c-3.716,2.996-7.402,6.449-8.829,11.005c-2.188,6.991,2.444,15.341,9.534,17.186"/>
		<path clip-path="url(#SVGID_14_)" fill="#FFBE9D" d="M566.205,203.929l-32.779-52.684l-9.054-18.537c0,0-2.888-3.828-5.89-7.1
			c-4.926-5.37-9.79-1.196-9.79-1.196s-0.705-2.054-3.289-2.029c-3.081,0.029-4.532,2.31-4.532,2.31s-1.341-1.492-5.061-1.722
			c-0.804-0.049-1.599,0.262-2.355,0.761c-1.216-1.071-3.454-2.616-5.605-1.832c-1.682,0.613-11.872,8.36-14.38,12.261
			c-1.24,1.927,1.063,4.432,4.161,3.259c1.359-0.515,2.729-0.935,3.717-1.513c1.66-0.974,2.521-2.026,2.521-2.026
			s-2.569,4.502-0.009,5.292c1.067,0.328,3.342,0.087,4.824-1.171c0.977-0.826,2.109-1.895,3.177-2.942
			c-0.042,0.06-0.086,0.119-0.126,0.179c-1.42,2.099,2.283,5.211,4.077,3.947c0.898-0.632,1.688-1.266,2.393-1.893
			c4.159,3.019-1.618,6.887-4.058,6.689c-3.776-0.308-8.196-0.294-11.279-0.036c-2.122,0.177-4.016,0.679-5.157,1.855
			c-1.376,1.417,0.065,4.401,2.019,4.702c3.589,0.554,8.167,1.352,12.929,2.577c5.606,1.442,20.271,6.208,20.271,6.208l1.429,1.164
			l19.938,48.611l-34.129,7.227l-7.618,43.237l61.603-16.712C568.033,235.599,574.605,217.128,566.205,203.929"/>
		<path clip-path="url(#SVGID_14_)" fill="#EB996E" d="M512.929,159.288c-0.006,0.017-0.274-0.047-0.781-0.186
			c-0.553-0.157-1.289-0.367-2.212-0.63c-1.966-0.585-4.722-1.404-8.105-2.411c-1.713-0.517-3.583-1.083-5.588-1.688
			c-2.005-0.619-4.154-1.261-6.436-1.841c-2.28-0.58-4.69-1.163-7.218-1.492c-1.232-0.191-2.614-0.073-3.916-0.706
			c-0.318-0.157-0.629-0.364-0.881-0.656c-0.122-0.154-0.23-0.307-0.298-0.535l-0.076-0.534c-0.076-0.686-0.093-1.409,0.13-2.122
			c0.229-0.72,0.791-1.308,1.418-1.642c0.625-0.346,1.277-0.548,1.908-0.757c1.314-0.418,2.66-0.488,3.954-0.485
			c2.597,0.035,5.049,0.394,7.391,0.299c1.166-0.037,2.313-0.14,3.395-0.333c1.087-0.197,2.131-0.482,3.149-0.743
			c2.023-0.538,4.011-0.929,5.826-0.743c1.811,0.151,3.382,0.659,4.699,1.196c1.323,0.539,2.404,1.124,3.278,1.609
			c0.873,0.489,1.532,0.898,1.979,1.174c0.445,0.281,0.674,0.436,0.665,0.452c-0.01,0.015-0.256-0.109-0.718-0.361
			c-0.504-0.271-1.178-0.633-2.023-1.087c-0.885-0.455-1.973-1.01-3.287-1.516c-1.313-0.506-2.861-0.977-4.619-1.099
			c-1.763-0.157-3.673,0.237-5.69,0.792c-1.012,0.27-2.063,0.566-3.175,0.776c-1.119,0.207-2.271,0.318-3.463,0.363
			c-2.386,0.108-4.868-0.243-7.409-0.269c-1.266-0.001-2.568,0.076-3.791,0.468c-1.223,0.399-2.619,0.833-2.992,2.069
			c-0.186,0.594-0.179,1.255-0.106,1.899l0.062,0.464c0.027,0.096,0.107,0.227,0.194,0.332c0.185,0.215,0.437,0.389,0.712,0.525
			c1.123,0.562,2.463,0.471,3.751,0.664c2.569,0.342,4.985,0.939,7.273,1.534c2.289,0.595,4.436,1.254,6.437,1.89
			c1.999,0.628,3.864,1.214,5.572,1.751c3.363,1.072,6.104,1.946,8.058,2.569c0.913,0.302,1.639,0.543,2.185,0.724
			C512.675,159.173,512.935,159.271,512.929,159.288"/>
		<path clip-path="url(#SVGID_14_)" fill="#EB996E" d="M487.665,121.979c0.052,0.083-1.545,1.008-3.904,2.795
			c-1.18,0.893-2.528,2.024-3.922,3.396c-1.399,1.364-2.873,2.96-4.607,4.449c-0.849,0.722-1.651,1.495-1.845,2.468
			c-0.1,0.474-0.057,0.965,0.174,1.345c0.221,0.39,0.609,0.651,1.034,0.799c0.869,0.293,1.8,0.209,2.637,0.051
			c0.843-0.159,1.615-0.388,2.295-0.657c2.735-1.109,3.992-2.562,4.059-2.465c0.021,0.021-0.27,0.384-0.902,0.935
			c-0.631,0.548-1.63,1.268-3.016,1.87c-0.691,0.3-1.481,0.557-2.353,0.741c-0.859,0.178-1.86,0.303-2.877-0.021
			c-0.497-0.164-1.008-0.489-1.305-1c-0.312-0.505-0.363-1.135-0.246-1.701c0.235-1.181,1.159-2.035,2.005-2.759
			c1.71-1.467,3.182-3.041,4.614-4.401c1.426-1.366,2.817-2.485,4.036-3.346c1.215-0.87,2.248-1.493,2.969-1.911
			C487.236,122.159,487.646,121.948,487.665,121.979"/>
		<path clip-path="url(#SVGID_14_)" fill="#EB996E" d="M500.166,126.118c0.025,0.024-0.388,0.513-1.155,1.376
			c-0.834,0.917-1.945,2.139-3.291,3.62c-1.422,1.535-3.089,3.335-4.93,5.323c-0.948,1.018-2.081,1.965-3.464,2.642
			c-0.69,0.326-1.465,0.578-2.292,0.572c-0.816-0.018-1.683-0.261-2.304-0.921c-0.326-0.343-0.486-0.804-0.545-1.248
			c-0.036-0.447,0.026-0.879,0.133-1.285c0.234-0.809,0.606-1.522,1.061-2.185l0.008-0.011l0.017-0.019
			c1.764-1.875,3.404-3.634,4.88-5.251c1.499-1.593,2.941-2.893,4.111-3.996c0.584-0.547,1.121-1.073,1.71-1.378
			c0.615-0.313,1.18-0.298,1.621-0.352c0.881-0.061,1.404,0.018,1.359,0.113c0.016-0.036-0.469-0.049-1.343,0.064
			c-0.425,0.076-0.999,0.104-1.513,0.4c-0.533,0.304-1.032,0.82-1.604,1.39c-1.145,1.139-2.554,2.462-4.018,4.062
			c-1.435,1.618-3.078,3.413-4.841,5.306l0.024-0.03c-0.408,0.603-0.77,1.3-0.973,2.023c-0.095,0.364-0.144,0.736-0.116,1.097
			c0.054,0.352,0.167,0.692,0.414,0.95c0.461,0.505,1.226,0.743,1.923,0.753c0.717,0.008,1.424-0.214,2.07-0.516
			c1.294-0.624,2.411-1.538,3.327-2.506c1.873-1.96,3.568-3.734,5.013-5.248c1.397-1.435,2.549-2.619,3.413-3.508
			c0.375-0.37,0.688-0.678,0.948-0.935C500.03,126.209,500.152,126.105,500.166,126.118"/>
		<path clip-path="url(#SVGID_14_)" fill="#EB996E" d="M515.486,130.943c0.053,0.038-0.047,0.305-0.396,0.583
			c-0.337,0.275-0.959,0.529-1.658,0.409c-0.696-0.124-1.195-0.574-1.421-0.947c-0.232-0.379-0.235-0.664-0.174-0.682
			c0.073-0.026,0.199,0.192,0.464,0.455c0.259,0.264,0.689,0.567,1.222,0.661c0.531,0.092,1.039-0.048,1.371-0.208
			C515.234,131.056,515.426,130.894,515.486,130.943"/>
		<path clip-path="url(#SVGID_14_)" fill="#EB996E" d="M516.688,135.53c-0.109,0.088-0.86-0.665-1.521-1.785
			c-0.664-1.119-0.96-2.139-0.831-2.192c0.136-0.057,0.636,0.844,1.28,1.927C516.253,134.565,516.802,135.438,516.688,135.53"/>
		<path clip-path="url(#SVGID_14_)" fill="#EB996E" d="M518.896,153.411c-0.054,0.025-0.498-0.736-0.947-2.083
			c-0.451-1.342-0.848-3.292-0.823-5.467c0.034-2.176,0.481-4.115,0.968-5.445c0.485-1.335,0.95-2.083,1.002-2.057
			c0.167,0.053-1.421,3.24-1.447,7.509C517.563,150.133,519.064,153.362,518.896,153.411"/>
		<path clip-path="url(#SVGID_14_)" fill="#EB996E" d="M545.817,222.698c-0.098,0.011-0.195-1.061-0.719-2.688
			c-0.253-0.816-0.653-1.752-1.182-2.746c-0.551-0.981-1.242-2.012-2.092-2.994c-0.864-0.971-1.798-1.789-2.7-2.462
			c-0.917-0.652-1.794-1.171-2.571-1.527c-1.546-0.729-2.595-0.965-2.571-1.06c0.008-0.035,0.272,0.002,0.752,0.099
			c0.48,0.086,1.159,0.295,1.971,0.625c0.813,0.321,1.737,0.821,2.698,1.472c0.945,0.671,1.921,1.507,2.813,2.509
			c0.878,1.014,1.58,2.088,2.124,3.113c0.522,1.036,0.898,2.016,1.112,2.866c0.222,0.846,0.342,1.546,0.365,2.034
			C545.851,222.428,545.853,222.695,545.817,222.698"/>
		<path clip-path="url(#SVGID_14_)" fill="#FFBE9D" d="M431.438,319.01c-4.372-0.908-8.324,1.063-8.324,1.063
			c-4.453-1.972-9.94,1.427-9.94,1.427c-1.611-0.769-11.312,5.568-11.312,5.568l-12.085,5.702l-64.53-47.946l18.292-19.027
			l-25.629-26.669l-30.045,30.905c-3.743,3.855-5.634,9.068-5.989,14.545c-0.761,11.746,5.938,22.723,16.437,28.043l76.035,38.998
			c0,0,8.063-0.279,17.287-2.688c6.562-1.713,17.773-6.689,17.773-6.689s-0.032,0.34,1.972,4.225
			c3.608,6.993,8.905-0.552,8.905-0.552s1.083,2.477,2.052,3.416c4.569,4.431,7.738-1.52,7.738-1.52s1.372,2.387,5.457,0.612
			c4.073-1.769-0.589-14.061-0.589-14.061s1.368,2.671,4.02-0.71C441.617,330.27,435.812,319.919,431.438,319.01"/>
		<path clip-path="url(#SVGID_14_)" fill="#EB996E" d="M422.311,320.685c-0.011-0.021,0.271-0.184,0.837-0.32
			c0.559-0.149,1.436-0.195,2.448,0.072c1.014,0.265,2.144,0.824,3.234,1.652c0.546,0.419,1.085,0.872,1.607,1.437
			c0.508,0.573,0.904,1.253,1.258,1.952c1.391,2.799,2.363,5.455,2.955,7.408c0.296,0.978,0.504,1.777,0.627,2.333
			c0.124,0.559,0.17,0.87,0.137,0.88c-0.077,0.021-0.437-1.185-1.114-3.098c-0.677-1.91-1.694-4.524-3.068-7.289
			c-0.346-0.682-0.72-1.323-1.179-1.851c-0.468-0.517-1.004-0.986-1.516-1.393c-1.038-0.817-2.096-1.384-3.041-1.679
			C423.568,320.186,422.324,320.817,422.311,320.685"/>
		<path clip-path="url(#SVGID_14_)" fill="#EB996E" d="M430.075,347.81c-0.034,0.015-0.229-0.383-0.563-1.106
			c-0.378-0.822-0.851-1.848-1.413-3.065c-1.188-2.59-2.93-6.124-4.593-10.159c-0.814-2.021-1.551-3.953-2.626-5.465
			c-1.046-1.524-2.444-2.52-3.711-3.095c-1.274-0.585-2.437-0.673-3.204-0.572c-0.775,0.104-1.175,0.313-1.196,0.264
			c-0.007-0.018,0.087-0.074,0.278-0.171c0.187-0.102,0.487-0.211,0.885-0.293c0.793-0.17,2.033-0.134,3.382,0.435
			c1.337,0.55,2.837,1.571,3.956,3.155c1.144,1.561,1.909,3.54,2.718,5.546c1.653,4.011,3.345,7.573,4.447,10.207
			c0.56,1.313,0.989,2.386,1.266,3.135C429.976,347.374,430.107,347.797,430.075,347.81"/>
		<path clip-path="url(#SVGID_14_)" fill="#EB996E" d="M400.46,332.382c-0.016-0.032,0.353-0.234,1.028-0.573
			c0.781-0.377,1.745-0.841,2.886-1.39c0.617-0.285,1.267-0.606,2.019-0.931c0.764-0.309,1.661-0.458,2.591-0.377
			c0.926,0.092,1.893,0.418,2.711,1.037c0.823,0.631,1.435,1.475,1.986,2.365c0.548,0.895,0.977,1.821,1.403,2.688
			c0.427,0.868,0.867,1.689,1.302,2.468c0.87,1.555,1.689,2.945,2.297,4.162c0.614,1.211,1.032,2.232,1.281,2.948
			c0.252,0.716,0.35,1.125,0.32,1.135c-0.088,0.032-0.626-1.555-1.929-3.912c-0.641-1.182-1.489-2.545-2.387-4.097
			c-0.448-0.776-0.904-1.603-1.342-2.477c-0.438-0.876-0.86-1.776-1.392-2.644c-0.526-0.856-1.125-1.671-1.848-2.23
			c-0.735-0.563-1.606-0.868-2.451-0.966c-0.85-0.086-1.676,0.034-2.389,0.304c-0.716,0.286-1.404,0.603-2.023,0.862
			c-1.167,0.489-2.154,0.903-2.953,1.238C400.869,332.275,400.476,332.415,400.46,332.382"/>
		<path clip-path="url(#SVGID_14_)" fill="#EB996E" d="M401.862,327.066c0.016,0.032-0.3,0.229-0.883,0.559s-1.433,0.79-2.49,1.349
			c-2.113,1.119-5.051,2.632-8.309,4.275c-3.257,1.643-6.221,3.104-8.378,4.137c-1.078,0.518-1.955,0.928-2.565,1.201
			c-0.611,0.271-0.957,0.407-0.975,0.374c-0.015-0.032,0.299-0.229,0.883-0.557c0.583-0.327,1.436-0.787,2.491-1.347
			c2.115-1.118,5.051-2.631,8.311-4.273c3.258-1.644,6.221-3.104,8.377-4.14c1.076-0.516,1.954-0.928,2.564-1.201
			C401.5,327.171,401.845,327.035,401.862,327.066"/>
		<path clip-path="url(#SVGID_14_)" fill="#EB996E" d="M326.105,284.926c-0.027,0.171-3.414-0.771-7.62-0.249
			c-4.213,0.474-7.285,2.182-7.351,2.021c-0.029-0.052,0.692-0.546,1.982-1.115c1.286-0.57,3.164-1.166,5.308-1.423
			c2.144-0.251,4.109-0.109,5.493,0.145C325.306,284.556,326.123,284.868,326.105,284.926"/>
		<path clip-path="url(#SVGID_14_)" fill="#263238" d="M468.624,111.706c-15.967-0.222-31.958,1.466-47.526,5.017
			c-3.61,0.823-7.428,1.883-9.87,4.666c-2.583,2.945-3.04,7.136-3.378,11.039l-1.237,14.25c-0.689,1.187-1.457,2.327-2.275,3.397
			c-3.761,4.91-8.55,9.005-11.97,14.158c-3.42,5.155-5.308,11.996-2.522,17.519c1.684,3.341,4.805,5.695,7.086,8.661
			c3.868,5.027,5.13,11.512,7.392,17.438c2.263,5.926,6.339,11.971,12.569,13.162c2.969,0.567,6.056-0.062,9.047,0.375
			c4.473,0.654,8.228,3.583,11.786,6.369c3.559,2.785,7.407,5.636,11.904,6.082c4.497,0.447,9.647-2.597,9.742-7.115
			c-3.303,1.916-7.684,1.793-10.872-0.305c-2.621-1.724-4.312-4.525-6.563-6.709c-5.524-5.359-14.431-7.059-18.274-13.727
			c-3.04-5.275-1.834-11.878-0.454-17.808c1.195-5.143,2.407-10.717,0.926-15.655c0.112-0.794,0.177-1.595,0.183-2.399
			c0.038-5.261-2.046-10.898,0.404-15.554c3.238-6.156,12.58-6.932,15.854-13.07c1.903-3.567,1.235-8.127,3.314-11.595
			c1.955-3.259,5.862-4.764,9.578-5.571c3.715-0.807,7.633-1.182,10.917-3.096C467.669,119.32,470.107,115.206,468.624,111.706"/>
		<path clip-path="url(#SVGID_14_)" fill="#263238" d="M480.74,218.999c0.007,0.005-0.044,0.088-0.152,0.247
			c-0.127,0.18-0.288,0.41-0.491,0.696c-0.449,0.597-1.194,1.423-2.3,2.327c-1.119,0.881-2.641,1.789-4.563,2.449
			c-1.914,0.658-4.25,1.061-6.807,0.79c-2.547-0.214-5.307-1.245-7.656-3.138c-2.384-1.832-4.505-4.256-7.191-6.194
			c-1.346-0.947-2.892-1.711-4.582-1.924c-1.699-0.239-3.428,0.249-5.098,0.925c-1.677,0.661-3.372,1.514-5.295,1.827
			c-1.929,0.337-3.946-0.135-5.694-1.013c-1.77-0.869-3.317-2.038-4.807-3.189c-1.485-1.16-2.946-2.331-4.221-3.668
			c-1.277-1.324-2.381-2.828-3.001-4.525c-0.657-1.687-0.686-3.534-0.341-5.195c0.331-1.677,0.94-3.214,1.51-4.693
			c0.579-1.475,1.077-2.924,1.521-4.34c0.863-2.84,1.457-5.547,1.85-8.041c0.779-4.994,0.777-9.11,0.646-11.929
			c-0.063-1.413-0.153-2.509-0.229-3.25c-0.031-0.347-0.055-0.625-0.075-0.845c-0.013-0.191-0.016-0.289-0.007-0.29
			c0.008-0.002,0.029,0.095,0.061,0.283c0.032,0.218,0.073,0.495,0.126,0.84c0.107,0.739,0.231,1.834,0.325,3.25
			c0.194,2.827,0.253,6.963-0.483,11.996c-0.371,2.514-0.948,5.245-1.8,8.111c-0.438,1.428-0.936,2.897-1.509,4.379
			c-0.561,1.482-1.153,3.002-1.467,4.62c-0.323,1.608-0.288,3.333,0.337,4.931c0.592,1.607,1.653,3.054,2.902,4.344
			c1.246,1.303,2.689,2.459,4.172,3.612c1.484,1.147,3.009,2.293,4.716,3.131c1.693,0.847,3.579,1.283,5.386,0.969
			c1.815-0.291,3.486-1.119,5.189-1.789c1.685-0.681,3.532-1.205,5.343-0.944c1.804,0.231,3.422,1.048,4.8,2.025
			c2.747,2.001,4.848,4.432,7.182,6.245c2.291,1.867,4.935,2.876,7.43,3.113c2.492,0.289,4.786-0.08,6.674-0.7
			c1.897-0.622,3.409-1.489,4.532-2.334C479.905,220.373,480.668,218.934,480.74,218.999"/>
		<path clip-path="url(#SVGID_14_)" fill="#455A64" d="M380.832,187.196c0,0-0.314-0.352-0.804-1.102
			c-0.47-0.76-1.063-1.969-1.415-3.644c-0.363-1.669-0.405-3.802,0.1-6.18c0.528-2.359,1.583-4.992,3.461-7.415
			c1.841-2.443,4.338-4.715,7.217-6.827c2.87-2.135,6.129-4.123,9.378-6.442c3.217-2.334,6.522-5.029,8.9-8.647
			c1.201-1.792,2.054-3.83,2.697-5.968c0.646-2.141,1.086-4.38,1.604-6.637c0.508-2.258,1.094-4.497,2.021-6.585
			c0.903-2.093,2.236-3.991,3.931-5.433c1.686-1.445,3.658-2.464,5.672-3.121c2.013-0.677,4.069-1.03,6.079-1.203
			c4.033-0.347,7.851,0.098,11.395,0.362c3.546,0.29,6.863,0.453,9.862,0.128c3-0.292,5.616-1.192,7.727-2.303
			c2.1-1.142,3.694-2.501,4.736-3.819c1.053-1.312,1.617-2.515,1.915-3.348c0.284-0.839,0.388-1.298,0.416-1.292
			c0,0-0.063,0.468-0.318,1.326c-0.268,0.853-0.808,2.087-1.854,3.44c-1.034,1.359-2.637,2.765-4.755,3.949
			c-2.129,1.153-4.784,2.093-7.826,2.412c-3.035,0.354-6.382,0.209-9.935-0.063c-3.553-0.246-7.353-0.67-11.32-0.314
			c-1.98,0.177-3.998,0.53-5.963,1.196c-1.966,0.646-3.873,1.642-5.498,3.036c-1.629,1.393-2.909,3.217-3.789,5.258
			c-0.903,2.034-1.482,4.24-1.987,6.489c-0.516,2.248-0.959,4.498-1.615,6.671c-0.653,2.167-1.534,4.266-2.767,6.099
			c-2.444,3.702-5.803,6.418-9.047,8.757c-3.28,2.324-6.541,4.293-9.403,6.4c-2.871,2.084-5.348,4.311-7.179,6.702
			c-1.864,2.367-2.922,4.939-3.47,7.256c-0.522,2.332-0.513,4.429-0.185,6.077C379.476,185.746,380.949,187.151,380.832,187.196"/>
		<path clip-path="url(#SVGID_14_)" fill="#455A64" d="M383.761,192.448c0,0-1.238-0.896-3.074-2.945
			c-0.896-1.034-1.962-2.383-2.67-4.235c-0.345-0.922-0.569-1.991-0.456-3.125c0.102-1.132,0.564-2.29,1.349-3.278
			c1.617-1.982,4.298-3.05,7.11-3.642c1.415-0.297,2.886-0.526,4.362-0.889c1.47-0.363,2.966-0.868,4.262-1.772
			c1.283-0.917,2.328-2.197,3.099-3.675c0.787-1.473,1.339-3.109,1.917-4.77c0.579-1.661,1.163-3.376,2.039-5.007
			c0.85-1.636,2.121-3.139,3.754-4.151c1.632-1.014,3.444-1.573,5.207-2.032c1.77-0.456,3.521-0.828,5.17-1.388
			c3.341-1.048,5.963-3.342,7.943-5.849c2.008-2.512,3.478-5.219,4.927-7.705c1.44-2.493,2.874-4.791,4.49-6.66
			c1.592-1.885,3.39-3.29,5.134-4.188c1.747-0.905,3.417-1.324,4.791-1.445c1.38-0.107,2.458,0.059,3.153,0.258
			c0.699,0.192,1.04,0.364,1.04,0.364c-0.009,0.028-0.366-0.105-1.065-0.262c-0.693-0.164-1.758-0.294-3.107-0.158
			c-1.347,0.15-2.976,0.588-4.676,1.501c-1.699,0.908-3.437,2.296-4.989,4.169c-1.574,1.855-2.976,4.139-4.396,6.636
			c-1.429,2.49-2.895,5.226-4.926,7.789c-1.01,1.279-2.169,2.512-3.528,3.567c-1.346,1.068-2.935,1.907-4.626,2.466
			c-1.688,0.576-3.451,0.952-5.203,1.406c-1.747,0.457-3.509,1.006-5.061,1.972c-1.551,0.964-2.748,2.371-3.575,3.957
			c-0.849,1.577-1.432,3.268-2.012,4.928c-0.583,1.66-1.146,3.316-1.96,4.835c-0.799,1.523-1.904,2.874-3.267,3.836
			c-1.374,0.949-2.928,1.461-4.427,1.823c-1.504,0.36-2.979,0.581-4.382,0.867c-2.771,0.561-5.372,1.593-6.912,3.451
			c-0.747,0.924-1.197,2.011-1.306,3.08c-0.119,1.07,0.08,2.095,0.399,2.992c0.659,1.804,1.688,3.159,2.551,4.202
			c0.878,1.043,1.632,1.793,2.145,2.297c0.24,0.235,0.433,0.423,0.587,0.573C383.701,192.371,383.767,192.442,383.761,192.448"/>
		<path clip-path="url(#SVGID_14_)" fill="#EB996E" d="M506.857,127.85c0.026,0.023-0.156,0.298-0.516,0.774s-0.896,1.152-1.58,1.97
			c-1.363,1.637-3.323,3.841-5.619,6.148c-1.144,1.114-2.214,2.376-3.684,2.838c-0.712,0.222-1.471,0.23-2.111-0.023
			c-0.646-0.25-1.093-0.754-1.356-1.244c-0.535-1.012-0.447-1.96-0.375-2.543c0.092-0.597,0.206-0.91,0.237-0.904
			c0.039,0.007-0.009,0.336-0.035,0.923c-0.015,0.574-0.025,1.467,0.493,2.341c0.256,0.427,0.651,0.835,1.19,1.024
			c0.535,0.194,1.187,0.176,1.812-0.031c1.272-0.413,2.309-1.616,3.46-2.748c2.285-2.297,4.279-4.452,5.712-6.023
			C505.918,128.78,506.799,127.801,506.857,127.85"/>
		<path clip-path="url(#SVGID_14_)" fill="#EB996E" d="M514.496,127.854c0.025,0.025-0.189,0.301-0.603,0.78
			c-0.412,0.478-1.02,1.159-1.78,1.992c-0.797,0.863-1.701,1.842-2.688,2.911c-0.514,0.547-1.048,1.117-1.602,1.706
			c-0.558,0.589-1.151,1.211-1.877,1.734c-0.721,0.519-1.556,0.911-2.437,0.965c-0.869,0.077-1.795-0.29-2.271-0.99
			c-0.241-0.339-0.384-0.751-0.37-1.161c0.01-0.411,0.168-0.771,0.341-1.072c0.368-0.596,0.749-1.059,1.078-1.524
			c0.668-0.908,1.216-1.639,1.604-2.137c0.388-0.497,0.617-0.763,0.646-0.743c0.028,0.021-0.144,0.326-0.48,0.86
			c-0.337,0.533-0.839,1.296-1.469,2.232c-0.304,0.468-0.689,0.98-1.002,1.523c-0.323,0.54-0.374,1.202,0.042,1.741
			c0.389,0.544,1.1,0.827,1.847,0.762c0.75-0.051,1.499-0.396,2.167-0.879c0.674-0.485,1.252-1.082,1.813-1.663
			c0.56-0.582,1.102-1.144,1.622-1.685c1.018-1.04,1.948-1.994,2.771-2.833c0.794-0.801,1.443-1.443,1.9-1.879
			S514.47,127.829,514.496,127.854"/>
	</g>
	<g clip-path="url(#SVGID_2_)">
		<defs>
			<rect id="SVGID_21_" width="750" height="500"/>
		</defs>
		<clipPath id="SVGID_22_">
			<use xlink:href="#SVGID_21_"  overflow="visible"/>
		</clipPath>
		<path clip-path="url(#SVGID_22_)" fill="#E8505B" d="M618.911,433.998c1.707-3.721,5.319-6.504,9.354-7.201
			c4.034-0.699,8.373,0.705,11.231,3.637c-1.947,3.466-5.445,5.777-9.205,7.073C625.857,439.032,621.051,437.243,618.911,433.998"/>
		<path clip-path="url(#SVGID_22_)" fill="#263238" d="M611.806,435.64c-0.021-0.063,1.065-0.461,2.875-0.896
			c1.807-0.441,4.324-0.937,7.118-1.396c2.795-0.463,5.336-0.806,7.179-1.022s2.987-0.302,2.998-0.232
			c0.009,0.071-1.118,0.286-2.946,0.597c-1.991,0.326-4.438,0.728-7.146,1.173c-2.787,0.46-5.307,0.895-7.125,1.241
			C612.94,435.445,611.828,435.714,611.806,435.64"/>
		<path clip-path="url(#SVGID_22_)" fill="#E8505B" d="M261.482,370.691c4.243,3.49,6.566,9.185,5.978,14.646
			c-0.589,5.463-4.072,10.531-8.962,13.038C254.827,388.968,253.416,378.841,261.482,370.691"/>
		<path clip-path="url(#SVGID_22_)" fill="#E8505B" d="M275.392,377.906c0.386,7.102,4.54,13.889,10.687,17.462
			c6.147,3.575,14.1,3.829,20.462,0.652C299.549,384.98,290.072,375.747,275.392,377.906"/>
		<path clip-path="url(#SVGID_22_)" fill="#263238" d="M243.523,343.131c0.015-0.012,0.174,0.16,0.463,0.498
			c0.32,0.381,0.735,0.876,1.249,1.49c1.067,1.308,2.615,3.197,4.573,5.492c3.901,4.602,9.413,10.861,15.898,17.391
			c3.254,3.256,6.441,6.267,9.409,8.929c2.99,2.637,5.755,4.926,8.153,6.751c2.42,1.79,4.42,3.191,5.891,4.011
			c1.447,0.857,2.314,1.214,2.288,1.271c-0.007,0.018-0.224-0.067-0.633-0.244c-0.405-0.184-1.024-0.422-1.754-0.851
			c-1.512-0.77-3.553-2.133-6.012-3.893c-2.436-1.794-5.235-4.063-8.251-6.688c-2.993-2.648-6.2-5.656-9.46-8.92
			c-6.5-6.544-11.979-12.853-15.812-17.521c-1.924-2.329-3.429-4.256-4.449-5.604c-0.483-0.639-0.872-1.154-1.172-1.552
			C243.641,343.335,243.509,343.143,243.523,343.131"/>
		<path clip-path="url(#SVGID_22_)" fill="#263238" d="M260.706,384.915c-0.088-0.021,0.245-1.408,0.53-3.681
			c0.29-2.269,0.455-5.44,0.098-8.912c-0.367-3.472-1.183-6.542-1.934-8.703c-0.748-2.164-1.36-3.452-1.278-3.491
			c0.032-0.016,0.212,0.292,0.511,0.865c0.306,0.569,0.691,1.423,1.113,2.5c0.848,2.15,1.734,5.252,2.106,8.775
			c0.362,3.521,0.135,6.741-0.251,9.019c-0.19,1.142-0.391,2.057-0.573,2.676C260.853,384.585,260.741,384.924,260.706,384.915"/>
		<path clip-path="url(#SVGID_22_)" fill="#E8505B" d="M702.021,182.539c-2.468-3.267-3.203-7.768-1.904-11.65
			c1.298-3.883,4.592-7.037,8.528-8.163c2.128,3.359,2.504,7.534,1.859,11.459C709.748,178.81,705.893,182.195,702.021,182.539"/>
		<path clip-path="url(#SVGID_22_)" fill="#263238" d="M700.096,189.573c-0.064-0.012,0.101-1.157,0.574-2.956
			c0.47-1.799,1.229-4.251,2.147-6.929c0.919-2.679,1.821-5.079,2.504-6.804c0.683-1.726,1.151-2.775,1.218-2.749
			c0.068,0.025-0.277,1.12-0.873,2.876c-0.656,1.906-1.464,4.252-2.355,6.846c-0.918,2.673-1.73,5.098-2.285,6.862
			C700.462,188.482,700.171,189.588,700.096,189.573"/>
		<path clip-path="url(#SVGID_22_)" fill="#E8505B" d="M657.948,256.941c-2.063-7.643-0.126-16.249,5.01-22.272
			c5.136-6.025,13.326-9.298,21.199-8.473c1.389,7.564-0.957,15.324-4.949,21.897C674.503,255.841,665.141,259.125,657.948,256.941"
			/>
		<path clip-path="url(#SVGID_22_)" fill="#263238" d="M628.414,286.537c-0.015-0.013,0.133-0.195,0.424-0.537
			c0.332-0.375,0.762-0.862,1.295-1.469c1.146-1.257,2.823-3.057,4.921-5.257c4.193-4.401,10.054-10.413,16.572-17.009
			c6.519-6.6,12.458-12.535,16.776-16.811c2.138-2.096,3.88-3.807,5.139-5.041c0.584-0.557,1.054-1.005,1.416-1.351
			c0.328-0.304,0.507-0.459,0.52-0.446c0.012,0.013-0.142,0.192-0.446,0.52c-0.344,0.363-0.791,0.835-1.346,1.42
			c-1.229,1.263-2.933,3.014-5.02,5.158c-4.305,4.368-10.179,10.329-16.669,16.917c-6.493,6.579-12.371,12.534-16.679,16.898
			c-2.094,2.137-3.804,3.882-5.037,5.14c-0.563,0.578-1.016,1.044-1.364,1.401C628.6,286.389,628.427,286.55,628.414,286.537"/>
		<g opacity="0.3" clip-path="url(#SVGID_22_)">
			<g>
				<defs>
					<rect id="SVGID_23_" x="657.136" y="226.07" width="27.423" height="31.534"/>
				</defs>
				<clipPath id="SVGID_24_">
					<use xlink:href="#SVGID_23_"  overflow="visible"/>
				</clipPath>
				<path clip-path="url(#SVGID_24_)" d="M657.948,256.941c-2.063-7.643-0.126-16.249,5.01-22.272
					c5.136-6.025,13.326-9.298,21.199-8.473c1.389,7.564-0.957,15.324-4.949,21.897
					C674.503,255.841,665.141,259.125,657.948,256.941"/>
			</g>
		</g>
		<path clip-path="url(#SVGID_22_)" fill="#E8505B" d="M644.288,259.912c-4.321-2.223-7.43-6.655-8.042-11.477
			c-0.612-4.82,1.284-9.891,4.912-13.125c4.009,2.496,6.563,6.767,7.896,11.294C650.629,251.942,648.251,257.549,644.288,259.912"/>
		<g opacity="0.3" clip-path="url(#SVGID_22_)">
			<g>
				<defs>
					<rect id="SVGID_25_" x="636.132" y="235.311" width="13.413" height="24.601"/>
				</defs>
				<clipPath id="SVGID_26_">
					<use xlink:href="#SVGID_25_"  overflow="visible"/>
				</clipPath>
				<path clip-path="url(#SVGID_26_)" d="M644.288,259.912c-4.321-2.223-7.43-6.655-8.042-11.477
					c-0.612-4.82,1.284-9.891,4.912-13.125c4.009,2.496,6.563,6.767,7.896,11.294C650.629,251.942,648.251,257.549,644.288,259.912"
					/>
			</g>
		</g>
		<path clip-path="url(#SVGID_22_)" fill="#263238" d="M645.855,268.426c-0.035,0.01-0.144-0.314-0.309-0.911
			c-0.166-0.596-0.358-1.469-0.566-2.552c-0.418-2.166-0.864-5.179-1.263-8.516c-0.397-3.338-0.676-6.368-0.843-8.564
			c-0.167-2.196-0.22-3.558-0.148-3.564c0.071-0.007,0.254,1.343,0.515,3.528c0.271,2.326,0.614,5.275,0.995,8.538
			c0.396,3.332,0.784,6.345,1.106,8.518C645.66,267.075,645.931,268.406,645.855,268.426"/>
		<path clip-path="url(#SVGID_22_)" fill="#E8505B" d="M457.039,375.813c3.048-7.188,9.868-12.646,17.551-14.046
			c7.681-1.397,15.989,1.308,21.375,6.96C484.625,377.52,471.393,383.521,457.039,375.813"/>
		<g opacity="0.3" clip-path="url(#SVGID_22_)">
			<g>
				<defs>
					<rect id="SVGID_27_" x="457.039" y="361.405" width="38.925" height="17.955"/>
				</defs>
				<clipPath id="SVGID_28_">
					<use xlink:href="#SVGID_27_"  overflow="visible"/>
				</clipPath>
				<path clip-path="url(#SVGID_28_)" d="M457.039,375.813c3.048-7.188,9.868-12.646,17.551-14.046
					c7.681-1.397,15.989,1.308,21.375,6.96C484.625,377.52,471.393,383.521,457.039,375.813"/>
			</g>
		</g>
		<path clip-path="url(#SVGID_22_)" fill="#263238" d="M450.634,379.327c-0.021-0.029,0.301-0.276,0.899-0.699
			c0.595-0.429,1.491-1,2.622-1.662c2.262-1.326,5.538-2.93,9.346-4.19c3.813-1.253,7.4-1.914,10.007-2.193
			c1.305-0.142,2.362-0.214,3.097-0.225c0.732-0.016,1.138-0.009,1.14,0.028c0.004,0.088-1.61,0.188-4.188,0.562
			c-2.578,0.371-6.115,1.082-9.892,2.322c-3.771,1.249-7.037,2.782-9.329,4.018C452.04,378.521,450.682,379.4,450.634,379.327"/>
		<path clip-path="url(#SVGID_22_)" fill="#E8505B" d="M193.432,245.511c5.463-2.55,12.197-2.158,17.327,1.009
			c5.13,3.166,8.499,9.011,8.668,15.037C208.378,260.742,197.685,257.35,193.432,245.511"/>
		<g opacity="0.3" clip-path="url(#SVGID_22_)">
			<g>
				<defs>
					<rect id="SVGID_29_" x="193.432" y="243.84" width="25.995" height="17.717"/>
				</defs>
				<clipPath id="SVGID_30_">
					<use xlink:href="#SVGID_29_"  overflow="visible"/>
				</clipPath>
				<path clip-path="url(#SVGID_30_)" d="M193.432,245.511c5.463-2.55,12.197-2.158,17.327,1.009
					c5.13,3.166,8.499,9.011,8.668,15.037C208.378,260.742,197.685,257.35,193.432,245.511"/>
			</g>
		</g>
		<path clip-path="url(#SVGID_22_)" fill="#263238" d="M187.942,244.217c0.005-0.036,0.318-0.019,0.882,0.041
			c0.564,0.055,1.375,0.183,2.369,0.383c1.987,0.397,4.701,1.165,7.541,2.411c2.839,1.253,5.239,2.735,6.875,3.932
			c0.818,0.597,1.46,1.107,1.882,1.486c0.426,0.375,0.649,0.596,0.626,0.623c-0.053,0.065-1.041-0.698-2.718-1.808
			c-1.675-1.109-4.071-2.52-6.874-3.757c-2.805-1.23-5.464-2.043-7.414-2.529C189.161,244.512,187.93,244.3,187.942,244.217"/>
		<path clip-path="url(#SVGID_22_)" fill="#E8505B" d="M551.763,363.559c-0.648-5.354,1.56-10.972,5.68-14.452
			s10.027-4.719,15.198-3.186C568.872,355.089,563.013,363.237,551.763,363.559"/>
		<path clip-path="url(#SVGID_22_)" fill="#263238" d="M549.135,367.867c-0.056-0.025,0.357-1.071,1.249-2.655
			c0.887-1.583,2.293-3.681,4.145-5.75c1.856-2.067,3.788-3.694,5.264-4.748c1.479-1.058,2.473-1.582,2.505-1.531
			c0.045,0.07-0.877,0.704-2.281,1.825c-1.405,1.118-3.27,2.764-5.101,4.801c-1.824,2.041-3.258,4.073-4.217,5.592
			C549.737,366.92,549.208,367.904,549.135,367.867"/>
		<path clip-path="url(#SVGID_22_)" fill="#E8505B" d="M630.453,311.613c-1.645-5.137-0.532-11.068,2.859-15.263
			c3.393-4.193,8.96-6.519,14.327-5.986C645.665,300.077,641.44,309.182,630.453,311.613"/>
		<g opacity="0.3" clip-path="url(#SVGID_22_)">
			<g>
				<defs>
					<rect id="SVGID_31_" x="629.704" y="290.289" width="17.937" height="21.325"/>
				</defs>
				<clipPath id="SVGID_32_">
					<use xlink:href="#SVGID_31_"  overflow="visible"/>
				</clipPath>
				<path clip-path="url(#SVGID_32_)" d="M630.453,311.613c-1.645-5.137-0.532-11.068,2.859-15.263
					c3.393-4.193,8.96-6.519,14.327-5.986C645.665,300.077,641.44,309.182,630.453,311.613"/>
			</g>
		</g>
		<path clip-path="url(#SVGID_22_)" fill="#263238" d="M628.682,316.339c-0.06-0.015,0.149-1.12,0.728-2.844
			c0.573-1.72,1.56-4.045,2.989-6.427c1.434-2.378,3.024-4.339,4.276-5.653c1.253-1.315,2.132-2.018,2.173-1.973
			c0.058,0.059-0.729,0.854-1.897,2.219c-1.17,1.364-2.691,3.331-4.106,5.676c-1.408,2.35-2.434,4.612-3.09,6.285
			C629.096,315.295,628.762,316.361,628.682,316.339"/>
		<path clip-path="url(#SVGID_22_)" fill="#E8505B" d="M37.282,240.102c1.169-5.265,5.118-9.829,10.161-11.742
			s11.026-1.117,15.393,2.048C56.235,237.802,48,243.539,37.282,240.102"/>
		<path clip-path="url(#SVGID_22_)" fill="#263238" d="M33.372,243.292c-0.043-0.043,0.694-0.893,2.061-2.09
			c1.362-1.198,3.386-2.708,5.82-4.045c2.438-1.332,4.801-2.224,6.544-2.728c1.744-0.506,2.857-0.67,2.87-0.611
			c0.019,0.081-1.06,0.371-2.757,0.962c-1.698,0.588-4.003,1.521-6.407,2.834c-2.4,1.318-4.426,2.758-5.836,3.871
			C34.256,242.597,33.43,243.352,33.372,243.292"/>
	</g>
	<g clip-path="url(#SVGID_2_)">
		<defs>
			<rect id="SVGID_33_" width="750" height="500"/>
		</defs>
		<clipPath id="SVGID_34_">
			<use xlink:href="#SVGID_33_"  overflow="visible"/>
		</clipPath>
		<path clip-path="url(#SVGID_34_)" fill="#FFFFFF" d="M494.375,109.601l8.036-14.486c-3.673-5.836-5.829-12.727-5.9-20.128
			c-0.204-21.285,16.885-38.704,38.169-38.909c21.284-0.205,38.704,16.884,38.908,38.169c0.204,21.284-16.885,38.704-38.168,38.908
			c-8.889,0.085-17.096-2.852-23.663-7.844l0.014,0.017L494.375,109.601z"/>
		<path clip-path="url(#SVGID_34_)" fill="#263238" d="M494.375,109.601c0.896-0.228,6.34-1.606,17.363-4.399l-0.07,0.206
			l-0.015-0.017l-0.609-0.776l0.792,0.593c2.212,1.656,4.851,3.282,7.942,4.624c3.096,1.318,6.631,2.382,10.523,2.846
			c1.942,0.222,3.97,0.355,6.052,0.226c1.039-0.073,2.096-0.112,3.163-0.214c1.058-0.174,2.13-0.35,3.218-0.528
			c4.311-0.908,8.704-2.601,12.79-5.204c4.084-2.594,7.853-6.094,10.857-10.372c2.998-4.27,5.253-9.316,6.274-14.782
			c1.014-5.458,0.863-11.297-0.625-16.931c-1.498-5.613-4.239-11.086-8.311-15.571l-1.572-1.696c-0.515-0.57-1.129-1.038-1.688-1.56
			c-0.585-0.493-1.112-1.054-1.739-1.489l-1.84-1.349c-0.597-0.473-1.251-0.851-1.903-1.233l-1.942-1.155
			c-0.679-0.322-1.354-0.642-2.029-0.962c-0.682-0.307-1.336-0.672-2.049-0.889c-5.549-2.144-11.452-2.928-17.089-2.471
			c-5.637,0.454-11.019,2.116-15.631,4.76c-4.626,2.624-8.519,6.109-11.518,9.991c-3.008,3.885-5.118,8.161-6.416,12.415
			c-1.289,4.275-1.619,8.51-1.583,12.432c0.266,7.897,2.939,14.379,5.796,18.952l0.039,0.063l-0.036,0.064
			C497.332,104.365,494.811,108.83,494.375,109.601c0.424-0.777,2.878-5.28,7.928-14.547l0.004,0.127
			c-2.909-4.581-5.643-11.101-5.946-19.071c-0.053-3.958,0.266-8.237,1.555-12.561c1.298-4.304,3.42-8.635,6.452-12.572
			c3.024-3.935,6.957-7.47,11.637-10.135c4.664-2.685,10.114-4.377,15.824-4.844c5.708-0.469,11.692,0.32,17.317,2.491
			c0.722,0.22,1.386,0.589,2.077,0.899c0.684,0.324,1.371,0.65,2.058,0.975l1.97,1.17c0.659,0.386,1.323,0.771,1.929,1.249
			l1.864,1.366c0.636,0.441,1.172,1.009,1.764,1.509c0.566,0.529,1.188,1.004,1.712,1.582l1.591,1.718
			c4.126,4.546,6.907,10.094,8.421,15.785c1.504,5.712,1.652,11.626,0.619,17.156c-1.042,5.537-3.333,10.645-6.377,14.964
			c-3.048,4.326-6.869,7.86-11.007,10.475c-4.14,2.623-8.59,4.324-12.949,5.227c-1.099,0.177-2.184,0.351-3.254,0.523
			c-1.078,0.101-2.146,0.137-3.197,0.206c-2.101,0.122-4.147-0.02-6.108-0.251c-3.927-0.485-7.49-1.575-10.604-2.92
			c-3.109-1.37-5.759-3.024-7.974-4.708l0.18-0.183l0.013,0.017l0.124,0.16l-0.194,0.046
			C500.736,108.087,495.274,109.387,494.375,109.601"/>
		<path clip-path="url(#SVGID_34_)" fill="#E8505B" d="M524.362,68.012l5.014-0.048c0,0-0.041-4.21,4.334-4.327
			c2.271-0.062,3.464,1.416,3.953,2.551c0.568,1.319,0.415,2.829-0.318,4.064c-0.837,1.411-2.688,2.703-6.073,2.14l0.109,11.306
			l4.958-0.048l-0.064-6.622c0,0,6.937-1.865,6.862-9.528c-0.07-7.331-6.662-8.971-9.476-8.944
			C531.508,58.576,524.182,59.167,524.362,68.012"/>
		
			<rect x="531.412" y="86.002" transform="matrix(1 -0.0095 0.0095 1 -0.8161 5.0819)" clip-path="url(#SVGID_34_)" fill="#E8505B" width="5.031" height="4.699"/>
	</g>
</g>
</svg>
